<?xml version="1.0" encoding="UTF-8"?>
<svg xmlns="http://www.w3.org/2000/svg" version="1.1" viewBox="0 0 499.2 270.2">
  <defs>
    <style>
      .cls-1 {
        display: none;
        fill: #db172b;
      }

      .cls-2 {
        fill: #0f3067;
      }
    </style>
  </defs>
  <!-- Generator: Adobe Illustrator 28.7.1, SVG Export Plug-In . SVG Version: 1.2.0 Build 142)  -->
  <g>
    <g id="Layer_2">
      <g id="Layer_1-2">
        <path class="cls-1" d="M472.7,70.1c-4.3-1.4-8.6-2.9-12.9-4.3-1.4-.5-3.5,0-4.4,1.2-3.8,4.8-7.6,9.5-11.4,14.3-1.2,1.5-2.3,3.2-3.6,4.5-2,2-4.6,3.6-6.8,5.3-2.5,1.9-5,3.8-7.4,5.8l3.2-1.3c-4.1-.2-8.2-.4-12.3-.6-1.6,0-3-.3-4.5.6-.5.3-1.1.7-1.6,1-6.8,4.2-13.6,8.5-20.5,12.7l-26,16.2-8,5c-.4.3-1.1.5-1.5.9,0,0,1.6-.5.8-.4-.6.1-1.1.3-1.6.5-8.7,2.4-17.3,4.8-26,7.2h2.4c-5.9-1.7-11.9-3.4-17.8-5.2-2.7-.8-5.5-1.7-8.2-2.4s-5.5,1-8.1,2.1c-3.2,1.4-6.5,2.8-9.7,4.2l5.5.7c-5.5-5.9-10.8-12-16.9-17.3l-6.9-6.2c-1.8-1.6-3.6-3.8-6.1-4-4.3-.2-8.9-.3-13.2,0-2.6.1-3.7,1.9-4.9,3.8l-3.7,5.7c-3.3,5.1-6.6,10.2-9.8,15.4-1.4,2.2-2.7,4.5-4.3,6.6-3.2,4.2-6.4,8.4-9.6,12.6l-4.6,6c-.3.4-.7.9-1,1.3.7-.9.8-1,0-.1-3.7,3.8-7.3,7.7-11,11.5l-1,1.1,2-1.2c-4.1,1-8.2,2-12.3,3-2.9.7-5.2,2.1-7.8,3.6-6.6,3.6-13.2,7.4-19.8,10.9s-13.6,7-20.2,10.8c-7,4.1-13.9,8.6-20.9,12.9s-14.5,8.9-21.8,13.4c-4.9,3-.4,10.8,4.5,7.8,12.2-7.5,24.4-15,36.5-22.5,9.1-5.6,18.7-10.4,28.1-15.6,6.6-3.6,13.2-7.3,19.8-10.9.9-.5,2-1,2.8-1.6.5-.3-1.5.4-.6.3.6,0,1.3-.3,1.9-.5,3.9-.9,7.8-1.8,11.6-2.8,2.8-.8,4.9-3.9,6.9-5.9,2.7-2.8,5.4-5.5,8-8.4,1.5-1.7,2.9-3.7,4.2-5.5l8.4-10.9c7.9-10.3,14.4-21.6,21.4-32.5l.9-1.5-3.9,2.2c4.4,0,8.9,0,13.3,0l-3.2-1.3c4.1,3.6,8.1,7.3,12.2,10.9,3.3,3,6.2,6.4,9.3,9.6,1.7,1.9,3.5,3.7,5.2,5.6,1.5,1.6,3.6,1.5,5.5.7,4.6-2,9.2-3.9,13.8-5.9l-3.5.4c8.6,2.5,17.1,5,25.7,7.4,3,.9,6.2-.6,9.1-1.4,5.6-1.5,11.1-3.1,16.7-4.6,2.3-.6,4.9-1,6.9-2.2,2.6-1.5,5.1-3.2,7.6-4.8,9.6-6,19.3-12,28.9-18,6.9-4.3,13.7-8.6,20.6-12.8l-2.3.6c4.2.2,8.4.4,12.7.6.6,0,1.2,0,1.8,0,1.5,0,2.5-.7,3.6-1.6,1.5-1.2,3.1-2.4,4.6-3.6l6.2-4.8c1-.8,2.1-1.5,3-2.4.8-.8,1.5-1.9,2.2-2.8l4.7-5.8c2.7-3.4,5.4-6.7,8.1-10.1l-4.4,1.2c4.3,1.4,8.6,2.9,12.9,4.3,2.3.8,4.9-.9,5.5-3.1.7-2.5-.8-4.8-3.1-5.5h0Z"/>
        <g>
          <g>
            <path class="cls-2" d="M7.7,61.1c-.2,0-.3,0-.4-.2s-.2-.2-.2-.4v-2.1H.6c-.2,0-.3,0-.4-.2s-.2-.2-.2-.4v-2.5c0-.2,0-.3,0-.4s0-.2.2-.3l6.1-8.2c.2-.2.5-.4.8-.4h3.8c.2,0,.3,0,.4.2s.2.2.2.4v8h1.9c.2,0,.3,0,.4.2s.1.2.1.4v2.7c0,.2,0,.3-.2.4s-.2.2-.4.2h-1.9v2.1c0,.2,0,.3-.2.4s-.2.2-.4.2h-3.3,0ZM4.3,54.8h2.9v-4.1s-2.9,4.1-2.9,4.1Z"/>
            <path class="cls-2" d="M22.1,61.3c-1,0-2-.1-2.8-.4-.8-.3-1.4-.7-2-1.2-.5-.5-.9-1.1-1.2-1.8-.3-.7-.5-1.4-.5-2.2,0-.4,0-.8,0-1.4v-1.6c0-.5,0-1,0-1.4,0-.8.2-1.5.5-2.2s.7-1.2,1.2-1.7c.5-.5,1.2-.9,2-1.2.8-.3,1.7-.4,2.7-.4s1.9.1,2.7.4,1.4.7,2,1.2,1,1.1,1.2,1.7c.3.7.5,1.4.5,2.2,0,.4,0,.9,0,1.4v1.6c0,.5,0,1,0,1.4,0,.8-.2,1.5-.5,2.2s-.7,1.3-1.2,1.8-1.2.9-2,1.2c-.8.3-1.7.4-2.7.4ZM22.1,57.6c.6,0,1-.2,1.2-.6.2-.4.4-.8.4-1.5,0-.4,0-.9,0-1.3v-1.5c0-.5,0-.9,0-1.3,0-.6-.2-1-.4-1.4s-.7-.6-1.2-.6c-.6,0-1,.2-1.2.6s-.4.8-.4,1.4c0,.4,0,.8,0,1.3v1.5c0,.5,0,.9,0,1.3,0,.6.2,1.1.4,1.5s.7.6,1.2.6Z"/>
            <path class="cls-2" d="M31.1,61.1c-.2,0-.3,0-.4-.2s-.2-.2-.2-.4v-3.2c0-.2,0-.3.2-.4s.2-.2.4-.2h3.2c.2,0,.3,0,.4.2s.2.2.2.4v3.2c0,.2,0,.3-.2.4s-.2.2-.4.2h-3.2Z"/>
            <path class="cls-2" d="M43.2,61.3c-1,0-2-.1-2.8-.4-.8-.3-1.4-.7-2-1.2-.5-.5-.9-1.1-1.2-1.8-.3-.7-.5-1.4-.5-2.2,0-.4,0-.8,0-1.4v-1.6c0-.5,0-1,0-1.4,0-.8.2-1.5.5-2.2s.7-1.2,1.2-1.7c.5-.5,1.2-.9,2-1.2.8-.3,1.7-.4,2.7-.4s1.9.1,2.7.4,1.4.7,2,1.2,1,1.1,1.2,1.7.5,1.4.5,2.2c0,.4,0,.9,0,1.4v1.6c0,.5,0,1,0,1.4,0,.8-.2,1.5-.5,2.2s-.7,1.3-1.2,1.8-1.2.9-2,1.2-1.7.4-2.7.4ZM43.2,57.6c.6,0,1-.2,1.2-.6.2-.4.4-.8.4-1.5,0-.4,0-.9,0-1.3v-1.5c0-.5,0-.9,0-1.3,0-.6-.2-1-.4-1.4s-.7-.6-1.2-.6c-.6,0-1,.2-1.2.6s-.4.8-.4,1.4c0,.4,0,.8,0,1.3v1.5c0,.5,0,.9,0,1.3,0,.6.2,1.1.4,1.5s.7.6,1.2.6Z"/>
            <path class="cls-2" d="M58.2,61.3c-1,0-2-.1-2.8-.4-.8-.3-1.4-.7-2-1.2-.5-.5-.9-1.1-1.2-1.8-.3-.7-.5-1.4-.5-2.2,0-.4,0-.8,0-1.4v-1.6c0-.5,0-1,0-1.4,0-.8.2-1.5.5-2.2s.7-1.2,1.2-1.7c.5-.5,1.2-.9,2-1.2.8-.3,1.7-.4,2.7-.4s1.9.1,2.7.4,1.4.7,2,1.2,1,1.1,1.2,1.7c.3.7.5,1.4.5,2.2,0,.4,0,.9,0,1.4v1.6c0,.5,0,1,0,1.4,0,.8-.2,1.5-.5,2.2s-.7,1.3-1.2,1.8-1.2.9-2,1.2-1.7.4-2.7.4ZM58.2,57.6c.6,0,1-.2,1.2-.6.2-.4.4-.8.4-1.5,0-.4,0-.9,0-1.3v-1.5c0-.5,0-.9,0-1.3,0-.6-.2-1-.4-1.4s-.7-.6-1.2-.6c-.6,0-1,.2-1.2.6s-.4.8-.4,1.4c0,.4,0,.8,0,1.3v1.5c0,.5,0,.9,0,1.3,0,.6.2,1.1.4,1.5s.7.6,1.2.6Z"/>
            <path class="cls-2" d="M73.1,61.3c-1.1,0-2-.1-2.8-.4-.8-.3-1.4-.7-1.9-1.2-.5-.5-.9-1.1-1.2-1.8-.3-.7-.5-1.4-.5-2.2,0-.4,0-.8,0-1.4v-1.6c0-.5,0-1,0-1.4,0-.8.2-1.5.5-2.2.3-.7.7-1.2,1.2-1.7.5-.5,1.2-.9,2-1.2.8-.3,1.7-.4,2.7-.4s1.9.1,2.7.4,1.4.7,2,1.2.9,1.1,1.2,1.7.5,1.4.5,2.2c0,.4,0,.9,0,1.4v1.6c0,.5,0,1,0,1.4,0,.8-.2,1.5-.5,2.2s-.7,1.3-1.2,1.8-1.2.9-2,1.2-1.7.4-2.7.4ZM73.1,57.6c.6,0,1-.2,1.2-.6.2-.4.4-.8.4-1.5,0-.4,0-.9,0-1.3v-1.5c0-.5,0-.9,0-1.3,0-.6-.2-1-.4-1.4s-.7-.6-1.2-.6c-.6,0-1,.2-1.2.6s-.4.8-.4,1.4c0,.4,0,.8,0,1.3v1.5c0,.5,0,.9,0,1.3,0,.6.2,1.1.4,1.5s.7.6,1.2.6Z"/>
          </g>
          <g>
            <path class="cls-2" d="M.6,147.9c-.2,0-.3,0-.4-.2s-.2-.2-.2-.4v-1.9c0-.1,0-.3,0-.5,0-.2.2-.4.5-.6l1.2-1.2c1.3-1,2.4-1.8,3.3-2.5.9-.7,1.5-1.3,1.9-1.8s.7-1,.7-1.4,0-.6-.2-.9c-.2-.2-.5-.4-1-.4s-.6,0-.8.2c-.2.2-.4.4-.5.6s-.2.4-.2.7c0,.2-.2.3-.3.4s-.3.1-.5.1H.7c-.1,0-.3,0-.3-.1,0,0-.1-.2-.1-.3,0-.8.2-1.4.5-2.1.3-.6.7-1.2,1.3-1.6s1.2-.8,1.9-1.1c.8-.2,1.6-.4,2.5-.4s2.3.2,3.2.6c.9.4,1.6.9,2.1,1.6.5.7.7,1.5.7,2.5s-.2,1.4-.5,2.1c-.3.6-.8,1.2-1.4,1.8-.6.6-1.4,1.2-2.2,1.8l-1.1,1h5c.2,0,.3,0,.4.2s.2.2.2.4v2.7c0,.2,0,.3-.2.4s-.2.2-.4.2H.6Z"/>
            <path class="cls-2" d="M20.7,148.1c-1.4,0-2.6-.2-3.6-.6-1-.4-1.7-1-2.2-1.7s-.7-1.5-.8-2.3c0-.1,0-.2.1-.3s.2-.1.3-.1h3.6c.2,0,.4,0,.5.1.1,0,.2.2.2.3.1.2.3.4.5.6.2.2.3.3.6.4.2,0,.5.1.8.1s.6,0,.9-.2c.3-.1.5-.3.6-.6s.2-.6.2-1,0-.6-.2-.9-.4-.4-.6-.6-.6-.2-.9-.2-.5,0-.7.1-.3.1-.4.2c-.1,0-.2.2-.3.2s-.2.1-.3.1h-3.5c-.1,0-.2,0-.3-.1s-.1-.2-.1-.3l.8-7.6c0-.2.1-.4.3-.5.1-.1.3-.2.5-.2h9.1c.2,0,.3,0,.4.2s.2.2.2.4v2.5c0,.1,0,.3-.2.4s-.2.2-.4.2h-6.2l-.2,2.1c.4-.2.7-.4,1.1-.5.4-.1,1-.2,1.7-.2s1.3.1,1.9.4c.6.2,1.2.6,1.7,1,.5.4.9.9,1.2,1.6.3.6.4,1.3.4,2s-.2,1.9-.8,2.6c-.5.8-1.2,1.4-2.2,1.9-1,.5-2.2.7-3.6.7h0Z"/>
            <path class="cls-2" d="M29.5,147.9c-.2,0-.3,0-.4-.2s-.2-.2-.2-.4v-3.2c0-.2,0-.3.2-.4.1-.1.2-.2.4-.2h3.2c.2,0,.3,0,.4.2.1.1.2.2.2.4v3.2c0,.2,0,.3-.2.4s-.2.2-.4.2h-3.2Z"/>
            <path class="cls-2" d="M41.6,148.1c-1,0-2-.1-2.8-.4-.8-.3-1.4-.7-2-1.2-.5-.5-.9-1.1-1.2-1.8-.3-.7-.5-1.4-.5-2.2,0-.4,0-.8,0-1.4v-1.6c0-.5,0-1,0-1.4,0-.8.2-1.5.5-2.2s.7-1.2,1.2-1.7,1.2-.9,2-1.1c.8-.3,1.7-.4,2.7-.4s1.9.1,2.7.4,1.4.7,2,1.1c.5.5,1,1.1,1.2,1.7.3.7.5,1.4.5,2.2,0,.4,0,.9,0,1.4v1.6c0,.5,0,1,0,1.4,0,.8-.2,1.5-.5,2.2-.3.7-.7,1.3-1.2,1.8s-1.2.9-2,1.2-1.7.4-2.7.4ZM41.6,144.4c.6,0,1-.2,1.2-.6s.4-.9.4-1.4c0-.4,0-.9,0-1.4v-1.5c0-.5,0-.9,0-1.3,0-.6-.2-1-.4-1.4-.2-.4-.7-.6-1.2-.6-.6,0-1,.2-1.2.6-.2.4-.4.9-.4,1.4,0,.4,0,.8,0,1.3v1.5c0,.5,0,.9,0,1.4,0,.6.2,1.1.4,1.4s.7.6,1.2.6Z"/>
            <path class="cls-2" d="M56.5,148.1c-1,0-2-.1-2.8-.4-.8-.3-1.4-.7-2-1.2-.5-.5-.9-1.1-1.2-1.8-.3-.7-.5-1.4-.5-2.2,0-.4,0-.8,0-1.4v-1.6c0-.5,0-1,0-1.4,0-.8.2-1.5.5-2.2s.7-1.2,1.2-1.7,1.2-.9,2-1.1c.8-.3,1.7-.4,2.7-.4s1.9.1,2.7.4,1.4.7,2,1.1c.5.5,1,1.1,1.2,1.7.3.7.5,1.4.5,2.2,0,.4,0,.9,0,1.4v1.6c0,.5,0,1,0,1.4,0,.8-.2,1.5-.5,2.2-.3.7-.7,1.3-1.2,1.8s-1.2.9-2,1.2-1.7.4-2.7.4ZM56.5,144.4c.6,0,1-.2,1.2-.6s.4-.9.4-1.4c0-.4,0-.9,0-1.4v-1.5c0-.5,0-.9,0-1.3,0-.6-.2-1-.4-1.4-.2-.4-.7-.6-1.2-.6-.6,0-1,.2-1.2.6-.2.4-.4.9-.4,1.4,0,.4,0,.8,0,1.3v1.5c0,.5,0,.9,0,1.4,0,.6.2,1.1.4,1.4s.7.6,1.2.6Z"/>
            <path class="cls-2" d="M71.5,148.1c-1.1,0-2-.1-2.8-.4-.8-.3-1.4-.7-1.9-1.2-.5-.5-.9-1.1-1.2-1.8-.3-.7-.5-1.4-.5-2.2,0-.4,0-.8,0-1.4v-1.6c0-.5,0-1,0-1.4,0-.8.2-1.5.5-2.2s.7-1.2,1.2-1.7,1.2-.9,2-1.1c.8-.3,1.7-.4,2.7-.4s1.9.1,2.7.4,1.4.7,2,1.1c.5.5.9,1.1,1.2,1.7.3.7.5,1.4.5,2.2,0,.4,0,.9,0,1.4v1.6c0,.5,0,1,0,1.4,0,.8-.2,1.5-.5,2.2-.3.7-.7,1.3-1.2,1.8s-1.2.9-2,1.2-1.7.4-2.7.4ZM71.5,144.4c.6,0,1-.2,1.2-.6s.4-.9.4-1.4c0-.4,0-.9,0-1.4v-1.5c0-.5,0-.9,0-1.3,0-.6-.2-1-.4-1.4-.2-.4-.7-.6-1.2-.6-.6,0-1,.2-1.2.6-.2.4-.4.9-.4,1.4,0,.4,0,.8,0,1.3v1.5c0,.5,0,.9,0,1.4,0,.6.2,1.1.4,1.4s.7.6,1.2.6Z"/>
          </g>
          <g>
            <path class="cls-2" d="M8.5,234.7c-.2,0-.3,0-.4-.2s-.2-.2-.2-.4v-9.4l-2.7,2.1c-.1.1-.3.1-.4.1-.1,0-.3-.1-.4-.3l-1.6-2c0-.1,0-.3,0-.4,0-.2,0-.3.2-.4l5-3.9c0,0,.1-.1.2-.1s.2,0,.3,0h3.4c.2,0,.3,0,.4.2.1.1.2.2.2.4v13.8c0,.2,0,.3-.2.4s-.2.2-.4.2h-3.5Z"/>
            <path class="cls-2" d="M21.3,234.9c-1,0-2-.1-2.8-.4-.8-.3-1.4-.7-2-1.2-.5-.5-.9-1.1-1.2-1.8-.3-.7-.5-1.4-.5-2.2,0-.4,0-.8,0-1.4v-1.6c0-.5,0-1,0-1.4,0-.8.2-1.5.5-2.2s.7-1.2,1.2-1.7,1.2-.9,2-1.1c.8-.3,1.7-.4,2.7-.4s1.9.1,2.7.4,1.4.7,2,1.1c.5.5,1,1.1,1.2,1.7.3.7.5,1.4.5,2.2,0,.4,0,.9,0,1.4v1.6c0,.5,0,1,0,1.4,0,.8-.2,1.5-.5,2.2-.3.7-.7,1.3-1.2,1.8s-1.2.9-2,1.2c-.8.3-1.7.4-2.7.4ZM21.3,231.2c.6,0,1-.2,1.2-.6s.4-.9.4-1.4c0-.4,0-.9,0-1.4v-1.5c0-.5,0-.9,0-1.3,0-.6-.2-1-.4-1.4-.2-.4-.7-.6-1.2-.6-.6,0-1,.2-1.2.6-.2.4-.4.9-.4,1.4,0,.4,0,.8,0,1.3v1.5c0,.5,0,.9,0,1.4,0,.6.2,1.1.4,1.4s.7.6,1.2.6Z"/>
            <path class="cls-2" d="M30.3,234.7c-.2,0-.3,0-.4-.2s-.2-.2-.2-.4v-3.2c0-.2,0-.3.2-.4.1-.1.2-.2.4-.2h3.2c.2,0,.3,0,.4.2.1.1.2.2.2.4v3.2c0,.2,0,.3-.2.4s-.2.2-.4.2c0,0-3.2,0-3.2,0Z"/>
            <path class="cls-2" d="M42.4,234.9c-1,0-2-.1-2.8-.4-.8-.3-1.4-.7-2-1.2-.5-.5-.9-1.1-1.2-1.8-.3-.7-.5-1.4-.5-2.2,0-.4,0-.8,0-1.4v-1.6c0-.5,0-1,0-1.4,0-.8.2-1.5.5-2.2s.7-1.2,1.2-1.7,1.2-.9,2-1.1c.8-.3,1.7-.4,2.7-.4s1.9.1,2.7.4,1.4.7,2,1.1c.5.5,1,1.1,1.2,1.7.3.7.5,1.4.5,2.2,0,.4,0,.9,0,1.4v1.6c0,.5,0,1,0,1.4,0,.8-.2,1.5-.5,2.2-.3.7-.7,1.3-1.2,1.8s-1.2.9-2,1.2-1.7.4-2.7.4ZM42.4,231.2c.6,0,1-.2,1.2-.6s.4-.9.4-1.4c0-.4,0-.9,0-1.4v-1.5c0-.5,0-.9,0-1.3,0-.6-.2-1-.4-1.4-.2-.4-.7-.6-1.2-.6-.6,0-1,.2-1.2.6-.2.4-.4.9-.4,1.4,0,.4,0,.8,0,1.3v1.5c0,.5,0,.9,0,1.4,0,.6.2,1.1.4,1.4s.7.6,1.2.6Z"/>
            <path class="cls-2" d="M57.3,234.9c-1,0-2-.1-2.8-.4-.8-.3-1.4-.7-2-1.2-.5-.5-.9-1.1-1.2-1.8-.3-.7-.5-1.4-.5-2.2,0-.4,0-.8,0-1.4v-1.6c0-.5,0-1,0-1.4,0-.8.2-1.5.5-2.2s.7-1.2,1.2-1.7,1.2-.9,2-1.1c.8-.3,1.7-.4,2.7-.4s1.9.1,2.7.4,1.4.7,2,1.1c.5.5,1,1.1,1.2,1.7.3.7.5,1.4.5,2.2,0,.4,0,.9,0,1.4v1.6c0,.5,0,1,0,1.4,0,.8-.2,1.5-.5,2.2-.3.7-.7,1.3-1.2,1.8s-1.2.9-2,1.2-1.7.4-2.7.4ZM57.3,231.2c.6,0,1-.2,1.2-.6s.4-.9.4-1.4c0-.4,0-.9,0-1.4v-1.5c0-.5,0-.9,0-1.3,0-.6-.2-1-.4-1.4-.2-.4-.7-.6-1.2-.6-.6,0-1,.2-1.2.6-.2.4-.4.9-.4,1.4,0,.4,0,.8,0,1.3v1.5c0,.5,0,.9,0,1.4,0,.6.2,1.1.4,1.4s.7.6,1.2.6Z"/>
            <path class="cls-2" d="M72.3,234.9c-1.1,0-2-.1-2.8-.4-.8-.3-1.4-.7-1.9-1.2-.5-.5-.9-1.1-1.2-1.8-.3-.7-.5-1.4-.5-2.2,0-.4,0-.8,0-1.4v-1.6c0-.5,0-1,0-1.4,0-.8.2-1.5.5-2.2s.7-1.2,1.2-1.7,1.2-.9,2-1.1c.8-.3,1.7-.4,2.7-.4s1.9.1,2.7.4,1.4.7,2,1.1c.5.5.9,1.1,1.2,1.7.3.7.5,1.4.5,2.2,0,.4,0,.9,0,1.4v1.6c0,.5,0,1,0,1.4,0,.8-.2,1.5-.5,2.2-.3.7-.7,1.3-1.2,1.8s-1.2.9-2,1.2-1.7.4-2.7.4ZM72.3,231.2c.6,0,1-.2,1.2-.6s.4-.9.4-1.4c0-.4,0-.9,0-1.4v-1.5c0-.5,0-.9,0-1.3,0-.6-.2-1-.4-1.4-.2-.4-.7-.6-1.2-.6-.6,0-1,.2-1.2.6-.2.4-.4.9-.4,1.4,0,.4,0,.8,0,1.3v1.5c0,.5,0,.9,0,1.4,0,.6.2,1.1.4,1.4s.7.6,1.2.6Z"/>
          </g>
        </g>
        <g>
          <g>
            <path class="cls-2" d="M101.2,270.2c-.2,0-.3,0-.4-.2-.1-.1-.2-.2-.2-.4v-9.7l-2.8,2.1c-.2.1-.3.1-.4.1s-.3-.1-.4-.3l-1.6-2.1c0-.1,0-.3,0-.4s.1-.3.2-.4l5.2-4c0,0,.2-.1.2-.1,0,0,.2,0,.3,0h3.5c.2,0,.3,0,.4.2.1.1.2.2.2.4v14.3c0,.2,0,.3-.2.4-.1.1-.3.2-.4.2h-3.6,0Z"/>
            <path class="cls-2" d="M110.3,270.2c-.1,0-.2,0-.3-.1,0,0-.1-.2-.1-.3s0-.1,0-.2c0,0,0,0,0-.1l3-4.1c-.2,0-.3,0-.4,0-.6,0-1.2-.2-1.8-.4s-1.2-.6-1.7-1c-.5-.4-1-1-1.3-1.6s-.5-1.4-.5-2.2.1-1.4.4-2.1.7-1.3,1.3-1.8,1.2-.9,2.1-1.3,1.8-.5,2.9-.5,2.1.1,2.9.4,1.6.6,2.1,1.1c.6.5,1,1.1,1.3,1.7s.4,1.4.4,2.2-.1,1.3-.4,2c-.3.6-.6,1.2-1,1.8-.4.6-.8,1.1-1.2,1.7l-3.2,4.4c0,0-.2.2-.3.3s-.3.2-.6.2h-3.7ZM113.9,262c.4,0,.7,0,1-.2s.5-.4.7-.6c.2-.3.2-.6.2-1s0-.7-.2-1c-.2-.3-.4-.5-.7-.6-.3-.1-.6-.2-.9-.2s-.7,0-1,.2-.5.4-.7.6c-.2.3-.2.6-.2,1s0,.7.2,1,.4.5.7.6c.3.1.6.2,1,.2Z"/>
            <path class="cls-2" d="M124.9,270.2c-.1,0-.2,0-.3-.1,0,0-.1-.2-.1-.3s0-.1,0-.2c0,0,0,0,0-.1l3-4.1c-.2,0-.3,0-.4,0-.6,0-1.2-.2-1.8-.4s-1.2-.6-1.7-1c-.5-.4-1-1-1.3-1.6s-.5-1.4-.5-2.2.1-1.4.4-2.1.7-1.3,1.3-1.8,1.2-.9,2.1-1.3,1.8-.5,2.9-.5,2.1.1,2.9.4,1.6.6,2.1,1.1c.6.5,1,1.1,1.3,1.7s.4,1.4.4,2.2-.1,1.3-.4,2c-.3.6-.6,1.2-1,1.8-.4.6-.8,1.1-1.2,1.7l-3.2,4.4c0,0-.1.2-.3.3s-.3.2-.6.2h-3.7ZM128.5,262c.4,0,.7,0,1-.2s.5-.4.6-.6c.2-.3.2-.6.2-1s0-.7-.2-1-.4-.5-.7-.6c-.3-.1-.6-.2-.9-.2s-.7,0-1,.2-.5.4-.7.6c-.2.3-.2.6-.2,1s0,.7.2,1,.4.5.7.6c.3.1.6.2,1,.2Z"/>
            <path class="cls-2" d="M139.5,270.2c-.1,0-.2,0-.3-.1-.1,0-.1-.2-.1-.3s0-.1,0-.2c0,0,0,0,0-.1l3-4.1c-.1,0-.3,0-.4,0-.6,0-1.2-.2-1.8-.4s-1.2-.6-1.7-1c-.5-.4-1-1-1.3-1.6-.3-.6-.5-1.4-.5-2.2s.1-1.4.4-2.1.7-1.3,1.3-1.8,1.2-.9,2.1-1.3,1.8-.5,2.9-.5,2.1.1,2.9.4,1.6.6,2.1,1.1c.6.5,1,1.1,1.3,1.7s.4,1.4.4,2.2-.1,1.3-.4,2c-.3.6-.6,1.2-1,1.8-.4.6-.8,1.1-1.2,1.7l-3.2,4.4c0,0-.1.2-.3.3s-.3.2-.6.2h-3.7ZM143.1,262c.4,0,.7,0,1-.2s.5-.4.6-.6c.2-.3.2-.6.2-1s0-.7-.2-1-.4-.5-.7-.6c-.3-.1-.6-.2-.9-.2s-.7,0-1,.2-.5.4-.7.6c-.2.3-.2.6-.2,1s0,.7.2,1,.4.5.7.6c.3.1.6.2,1,.2Z"/>
          </g>
          <g>
            <path class="cls-2" d="M404,270c-.2,0-.3,0-.4-.2-.1-.1-.2-.2-.2-.4v-1.9c0-.1,0-.3,0-.5,0-.2.2-.5.5-.6l1.3-1.2c1.4-1,2.5-1.9,3.4-2.5s1.6-1.3,2-1.8c.5-.5.7-1,.7-1.4s0-.7-.2-.9-.5-.4-1-.4-.7,0-.9.2-.4.4-.5.6c-.1.2-.2.5-.2.7,0,.2-.2.3-.3.4-.1,0-.3.1-.5.1h-3.4c-.1,0-.3,0-.4-.1,0-.1-.1-.2-.1-.3,0-.8.2-1.5.5-2.1s.8-1.2,1.3-1.7,1.2-.9,2-1.1c.8-.3,1.6-.4,2.5-.4s2.4.2,3.3.6c.9.4,1.6,1,2.1,1.7s.8,1.6.8,2.6-.2,1.5-.5,2.1-.9,1.3-1.5,1.9-1.4,1.2-2.3,1.8l-1.1,1.1h5.2c.2,0,.3,0,.4.2.1.1.2.3.2.4v2.8c0,.2,0,.3-.2.4-.1.1-.2.2-.4.2h-12Z"/>
            <path class="cls-2" d="M425.2,270.2c-1.1,0-2-.1-2.8-.4-.8-.3-1.5-.7-2-1.2s-1-1.1-1.2-1.8-.5-1.5-.5-2.3c0-.4,0-.9,0-1.4v-1.6c0-.6,0-1,0-1.5,0-.8.2-1.5.5-2.2.3-.7.7-1.3,1.3-1.8s1.2-.9,2-1.2c.8-.3,1.7-.4,2.8-.4s2,.1,2.8.4,1.5.7,2,1.2c.5.5,1,1.1,1.3,1.8.3.7.5,1.4.5,2.2,0,.4,0,.9,0,1.5v1.6c0,.5,0,1,0,1.4,0,.8-.2,1.6-.5,2.3-.3.7-.7,1.3-1.2,1.8-.5.5-1.2.9-2,1.2s-1.8.4-2.8.4h0ZM425.2,266.4c.6,0,1-.2,1.3-.6.3-.4.4-.9.4-1.5,0-.4,0-.9,0-1.4v-1.5c0-.5,0-1,0-1.4,0-.6-.2-1.1-.4-1.5s-.7-.6-1.3-.6c-.6,0-1,.2-1.3.6-.2.4-.4.9-.4,1.5,0,.4,0,.9,0,1.4v1.5c0,.5,0,1,0,1.4,0,.6.2,1.1.4,1.5.3.4.7.6,1.3.6h0Z"/>
            <path class="cls-2" d="M434.3,270c-.2,0-.3,0-.4-.2-.1-.1-.2-.2-.2-.4v-1.9c0-.1,0-.3,0-.5,0-.2.2-.5.5-.6l1.3-1.2c1.4-1,2.5-1.9,3.4-2.5s1.6-1.3,2-1.8c.5-.5.7-1,.7-1.4s0-.7-.2-.9-.5-.4-1-.4-.7,0-.9.2-.4.4-.5.6c-.1.2-.2.5-.2.7,0,.2-.2.3-.3.4-.1,0-.3.1-.5.1h-3.4c-.1,0-.3,0-.4-.1,0-.1-.1-.2-.1-.3,0-.8.2-1.5.5-2.1s.8-1.2,1.3-1.7,1.2-.9,2-1.1c.8-.3,1.6-.4,2.5-.4s2.4.2,3.3.6c.9.4,1.6,1,2.1,1.7s.8,1.6.8,2.6-.2,1.5-.5,2.1-.9,1.3-1.5,1.9-1.4,1.2-2.3,1.8l-1.1,1.1h5.2c.2,0,.3,0,.4.2.1.1.2.3.2.4v2.8c0,.2,0,.3-.2.4-.1.1-.2.2-.4.2h-12Z"/>
            <path class="cls-2" d="M449.2,270c-.2,0-.3,0-.4-.2-.1-.1-.2-.2-.2-.4v-1.9c0-.1,0-.3,0-.5,0-.2.2-.5.5-.6l1.3-1.2c1.4-1,2.5-1.9,3.4-2.5s1.6-1.3,2-1.8c.5-.5.7-1,.7-1.4s0-.7-.2-.9-.5-.4-1-.4-.7,0-.9.2-.4.4-.5.6c-.1.2-.2.5-.2.7,0,.2-.2.3-.3.4-.1,0-.3.1-.5.1h-3.4c-.1,0-.3,0-.4-.1,0-.1-.1-.2-.1-.3,0-.8.2-1.5.5-2.1s.8-1.2,1.3-1.7,1.2-.9,2-1.1c.8-.3,1.6-.4,2.5-.4s2.4.2,3.3.6c.9.4,1.6,1,2.1,1.7s.8,1.6.8,2.6-.2,1.5-.5,2.1-.9,1.3-1.5,1.9-1.4,1.2-2.3,1.8l-1.1,1.1h5.2c.2,0,.3,0,.4.2.1.1.2.3.2.4v2.8c0,.2,0,.3-.2.4-.1.1-.2.2-.4.2h-12Z"/>
          </g>
        </g>
        <g>
          <path class="cls-2" d="M85.7,6.3c0,3.8,0,7.6,0,11.4,0,9.9,0,19.8,0,29.7,0,13.8,0,27.6-.1,41.4,0,15.5,0,30.9-.1,46.4,0,15.5,0,29.9-.1,44.8,0,12.2,0,24.4,0,36.6,0,7.2,0,14.4,0,21.7,0,1.1,0,2.1,0,3.2.2,4,3.3,6.1,7,6.1h400.5c3.9,0,3.9-6,0-6H92.3c-.4,0-1,.1-1.2-.2-.4-.6,0-3.1,0-3.8v-9c0-10.2,0-20.3,0-30.5v-41.6c.2-15.4.2-30.8.2-46.3,0-14.8,0-29.6.1-44.3,0-11.9,0-23.8,0-35.7,0-7,0-13.9,0-20.9v-2.8c0-3.9-6-3.9-6,0h0Z"/>
          <path class="cls-2" d="M88.9,4.2c-.3.2-.5.5-.7.7-4.7,6.8-9.5,13.5-14.2,20.3-.1.2-.3.4-.4.6-.3,1-.9,1.2-1.7,1.1-.5,0-1-.1-1.6-.1-.4,0-.9-.1-1.1-.7-.2-.6,0-1.2.2-1.7.2-.3.4-.5.6-.8,5.6-7.2,11.2-14.4,16.8-21.6.4-.5.8-1.1,1.2-1.6.4-.6.9-.6,1.4,0,0,.1.2.2.2.3,3.5,6.2,7.3,12.1,10.9,18.2,1.3,2.1,2.6,4.2,3.9,6.3.2.3.4.5.5.9.3.7,0,1.4-.5,1.6-.6.2-1.2.4-1.9.5-.5,0-.8-.4-1-.9-.8-1.5-1.7-3.1-2.5-4.6-3.3-6-6.6-12.1-9.9-18.1,0-.1-.2-.2-.2-.4h0Z"/>
          <path class="cls-2" d="M495,244.2c-.2-.3-.5-.5-.7-.7-6.7-4.7-13.5-9.5-20.2-14.2-.2-.1-.4-.3-.6-.4-1-.3-1.2-.9-1.1-1.7,0-.5.1-1,.1-1.6,0-.4.1-.9.7-1.1.6-.2,1.2,0,1.7.2.3.1.5.4.8.6,7.2,5.6,14.4,11.2,21.5,16.8.5.4,1.1.8,1.6,1.2.6.4.6.9,0,1.4-.1,0-.2.2-.4.2-6.2,3.5-12.1,7.3-18.1,10.9-2.1,1.3-4.2,2.6-6.3,3.9-.3.2-.5.4-.9.5-.7.3-1.4,0-1.6-.5-.2-.6-.4-1.2-.5-1.9,0-.5.4-.8.9-1,1.5-.8,3-1.6,4.6-2.5,6-3.3,12-6.6,18-9.9.1,0,.2-.1.4-.2h0Z"/>
        </g>
      </g>
    </g>
  </g>
</svg>