<?xml version="1.0" encoding="UTF-8"?>
<svg id="Layer_2" xmlns="http://www.w3.org/2000/svg" viewBox="0 0 154.77 346.86">
  <defs>
    <style>
      .cls-1 {
        fill: #ff8800;
      }

      .cls-2 {
        fill: #d41a2a;
      }

      .cls-3 {
        fill: #0f3067;
      }

      .cls-4 {
        fill: #6cc5c1;
      }
    </style>
  </defs>
  <g id="Layer_1-2" data-name="Layer_1">
    <g>
      <path class="cls-1" d="M105.82,288.41c.33,22.33.75,50.59.62,58.33-1.06-1.16-1.24-2.61-1.2-4.08.18-6.62-.41-33.1-.73-54.25-.19-12.22-.29-22.66-.11-26.48.13-2.64-.27-5.26-.55-7.89-.36-3.26-2.08-4.28-5.11-3.84-5.49.81-10.87,2.19-16.29,3.36-12,2.6-11.37,1.82-11.34,14.1v20.73c0,20.05,0,47.54-.02,52.92,0,1.83.25,3.73-1.03,5.32v-58.24H19.82c-.04-30.77-.07-69.87.31-85.97.69-28.93.27-57.85.82-86.77.13-6.97.48-13.97.65-20.95.09-3.52,2.01-6.27,4.03-8.84,10.17-12.95,20.42-25.84,30.75-38.66,2.19-2.72,4.53-5.32,6.98-7.81,4.78-4.88,9.42-9.85,13.65-15.22.51-.65,1.09-1.27,1.68-1.86,2.07-2.06,5.33-2.5,7.72-.82,1.3.92,2.15,2.25,3.03,3.57,14.28,21.56,28.56,43.12,42.9,64.64,1.3,1.95,1.96,3.87,1.91,6.26-.13,5.95-.36,11.92.1,17.84.98,12.79.04,25.62.82,38.4.77,12.54.01,25.09.79,37.6.78,12.54.02,25.1.79,37.6.78,12.41.04,24.83.8,37.21.2,3.22.31,12.59.37,23.78h-32.09v.02Z"/>
      <path class="cls-3" d="M81.98,14.1c-5.62,6.59-11.18,13.13-16.76,19.64-9.38,10.93-18.81,21.82-28.16,32.77-5.83,6.83-12.04,13.42-17.14,20.77-2.83,4.07-5.73,5.25-10.15,4.73-1.96-.23-3.97,0-5.94-.18-2.9-.26-4.13-1.96-3.77-4.88.23-1.8,1.18-3.14,2.4-4.43,10.81-11.43,21.57-22.9,32.36-34.34,13.69-14.52,27.4-29.03,41.1-43.54.72-.77,1.38-1.59,2.05-2.41,2.45-2.98,5.06-3.02,7.45.2,1.89,2.55,3.84,5.04,5.89,7.46,17.62,20.93,35.21,41.88,52.84,62.8,2.81,3.33,5.78,6.53,8.66,9.8.88.99,1.8,1.98,1.94,3.38.17,1.77-.58,3.08-2.17,3.87-.47.23-.99.39-1.5.49-9.48,1.86-8.1,3.04-14.09-4.87-17.47-23.07-35.06-46.06-52.61-69.07-.55-.72-1.02-1.55-2.4-2.2h0Z"/>
      <path class="cls-3" d="M106.44,346.74c-12.12.13-24.25.24-36.37-.09,1.28-1.59,1.03-3.49,1.03-5.32.02-5.38.03-32.87.02-52.92v-20.73c-.03-12.28-.66-11.51,11.34-14.1,5.41-1.17,10.79-2.55,16.29-3.36,3.03-.44,4.75.57,5.11,3.84.28,2.63.68,5.25.55,7.89-.18,3.82-.08,14.26.11,26.48.32,21.16.91,47.64.73,54.25-.04,1.47.14,2.91,1.2,4.08v-.02Z"/>
      <path class="cls-3" d="M106.44,346.74c-1.06-1.16-1.24-2.61-1.2-4.08.18-6.62-.41-33.1-.73-54.25-.19-12.22-.29-22.66-.11-26.48.13-2.64-.27-5.26-.55-7.89-.36-3.26-2.08-4.28-5.11-3.84-5.49.81-10.87,2.19-16.29,3.36-12,2.6-11.37,1.82-11.34,14.1v20.73c0,20.05,0,47.54-.02,52.92,0,1.83.25,3.73-1.03,5.32v-86.3c0-4.49.8-5.52,5.2-6.48,7.47-1.65,14.96-3.24,22.45-4.82.95-.2,2.53-.38,3.5-.36,2.61.04,3.52.86,3.74,3.52.26,3.02.52,6.05.53,9.08,0,4.27.15,14.8.33,27.14.33,22.33.75,50.59.62,58.33h0Z"/>
      <path class="cls-4" d="M53.18,186.11c4.36,0,8.71-.05,13.07.02,3.32.05,4.31,1,4.46,4.16.4,8.42,1.05,16.83.87,25.27-.09,4.36-1.84,6.12-6.07,5.33-2.77-.52-5.51-.64-8.26-.53-7.92.3-15.79-.86-23.7-.87-3.2,0-4.79-1.67-4.83-4.93-.1-7.66-.12-15.31-.1-22.97.01-3.51,1.03-4.29,4.41-4.69,6.7-.78,13.42-.65,20.14-.78h.01Z"/>
      <path class="cls-4" d="M96.13,135.5c0-5.02.02-10.04-.02-15.06-.01-1.48.14-2.9.87-4.21.75-1.34,1.78-2.14,3.43-2.3,8.29-.83,16.6-.7,24.91-.66,3.23.01,4.82,1.65,4.85,4.9.05,5.53-.13,11.05-.61,16.58-.43,4.98-.1,10.03-.17,15.05-.06,4.45-1.04,4.91-5.27,5.59-6.68,1.07-13.46-.07-20.09,1.32-.89.19-1.85.09-2.77.07-3.51-.08-5.08-1.55-5.12-5.05-.07-5.42-.02-10.83-.02-16.25h.01v.02Z"/>
      <path class="cls-2" d="M70.07,346.64c-14.53.04-29.07.09-43.61.13-1.46,0-2.91-.02-4.36,0-2.01.03-2.93-1-2.86-2.93.2-5.66,0,13.08.47-17,.02-1.31.13-2.63.13-3.96.02-7.54,0-20.1-.02-34.48h50.24v58.24h0Z"/>
      <path class="cls-2" d="M138.17,343.45c-.14,2.9-.52,3.31-3.58,3.34-5.95.05-11.89.02-17.84,0-3.44,0-6.87-.04-10.31-.06.13-7.74-.29-36-.62-58.33h32.09c.12,20.52.09,47.14.26,53.02.02.67.02,1.35,0,2.02h0Z"/>
      <g>
        <path class="cls-3" d="M71.1,341.32c0,1.83.25,3.74-1.03,5.32v-58.24h1.06c0,20.04,0,47.54-.02,52.91h-.01Z"/>
        <path class="cls-3" d="M106.44,346.74c-1.06-1.16-1.24-2.61-1.2-4.08.18-6.61-.41-33.09-.72-54.25h1.3c.33,22.34.76,50.59.62,58.33h0Z"/>
      </g>
    </g>
  </g>
</svg>