<?xml version="1.0" encoding="UTF-8"?>
<svg xmlns="http://www.w3.org/2000/svg" version="1.1" viewBox="0 0 1096.9 602.3">
  <defs>
    <style>
      .cls-1 {
        fill: #0f3067;
      }

      .cls-2 {
        fill: none;
        stroke: #0f3067;
        stroke-miterlimit: 10;
        stroke-width: 8px;
      }
    </style>
  </defs>
  <!-- Generator: Adobe Illustrator 28.7.1, SVG Export Plug-In . SVG Version: 1.2.0 Build 142)  -->
  <g>
    <g id="Layer_2">
      <g id="Layer_1-2">
        <path class="cls-1" d="M97.3,53.5c-.7.3-1.1,1-1.4,1.6-10.2,14.6-20.4,29.1-30.6,43.7-.3.4-.7.8-.9,1.3-.7,2.2-2,2.7-3.7,2.4-1.1-.2-2.2-.3-3.3-.3-1,0-1.9-.2-2.3-1.6-.4-1.3,0-2.5.5-3.6.3-.6.8-1.1,1.2-1.7,12-15.5,24-31,36-46.5.9-1.1,1.7-2.4,2.6-3.5.9-1.2,1.9-1.3,2.9-.1.2.2.4.5.5.8,7.5,13.3,15.6,26.1,23.4,39.1,2.7,4.6,5.6,9.1,8.4,13.6.4.6.8,1.2,1.1,1.8.6,1.5.1,3.1-1.1,3.5-1.3.5-2.7.8-4.1,1-1.1.2-1.6-.9-2.2-1.9-1.8-3.3-3.6-6.6-5.3-9.9-7.1-13-14.2-26-21.2-39-.2-.3-.3-.5-.6-.9h0Z"/>
        <path class="cls-1" d="M1087.8,567.6c-.3-.7-1-1-1.6-1.4-14.6-10.2-29.1-20.4-43.7-30.6-.4-.3-.8-.7-1.3-.9-2.2-.7-2.7-2-2.4-3.7.2-1.1.3-2.2.3-3.3,0-1,.2-1.9,1.6-2.3,1.3-.4,2.5,0,3.6.5.6.3,1.1.8,1.7,1.2,15.5,12,31,24,46.5,36,1.1.9,2.4,1.7,3.5,2.6,1.2.9,1.3,1.9.1,2.9-.2.2-.5.4-.8.5-13.3,7.5-26.1,15.6-39.1,23.4-4.6,2.7-9.1,5.6-13.6,8.4-.6.4-1.2.8-1.8,1.1-1.5.6-3.1.2-3.5-1.1-.5-1.3-.8-2.7-1-4.1-.2-1.1.9-1.6,1.9-2.2,3.3-1.8,6.6-3.6,9.9-5.3,13-7.1,26-14.2,39-21.2.3-.2.5-.3.9-.5h0Z"/>
        <path class="cls-1" d="M80.9,540.4c-.2-.6-.4-1.2-.6-1.8-.7-2-1.9-3.5-3.8-4.5-1.4-.8-2.9-1.1-4.5-1.3-.9,0-1.9-.1-2.8-.1s-.3,0-.3-.3c0,0,0,0,0-.1-.4-2-.8-4-1.2-5.9-.2-.7-.3-1.4-.4-2.1,0-.2,0-.3.2-.2.2,0,.3,0,.4,0,1,0,1.9.2,2.9.6.5.2.9.4,1.3.8.3.3.7.6,1,.9.2.2.4.2.7.2.2,0,.3-.1.4-.2.5-.4.8-.9.9-1.5.1-.3,0-.4-.2-.6-.4-.3-.8-.5-1.2-.6-1.2-.5-2.3-1-3.6-1.1-1-.1-2-.3-3-.3-.2,0-.2,0-.2-.2,0-.6-.1-1.1-.2-1.7,0-.7-.2-1.4-.3-2.1,0-.4,0-.8-.1-1.2,0-.6-.4-.7-.9-.7s-.7.3-.6.7c0,0,0,0,0,.2.3,1.6.7,3.2,1,4.8,0,.3,0,.3-.2.3-1,0-1.9.2-2.9.5-.3,0-.3,0-.3-.3v-2.1h0v-2.1c0-.2,0-.5,0-.7-.1-.5-.5-.7-1-.6-.4,0-.8.2-1.2.4-.1,0-.2,0-.3.2,0,.2-.2.5,0,.7s0,.3.1.4c.5,1.4.7,3,1.3,4.4,0,0,0,.2,0,.2-.2,0-.3.2-.5.2-.8.3-1.7.8-2.4,1.3-.8.6-1.5,1.4-2.2,2.2-.8,1-1.3,2.2-1.5,3.5-.2,1.3.3,2.4,1.5,3,.6.3,1.3.6,2,.7,1.2.3,2.4.4,3.5.4h1.1c.2,0,.3,0,.3.3h0c.2,1.4.4,2.7.6,4,.3,2.5.7,4.9,1,7.4,0,.2,0,.5,0,.7,0,.2,0,.2-.2.1,0,0-.1,0-.2,0-.3-.2-.7-.3-1-.5-1.9-1-3.7-2.1-5.4-3.3-.4-.3-.8-.6-1.3-.9-.5-.3-1-.1-1.2.4,0,0,0,.2,0,.2-.3,1.4-.6,2.8-.7,4.2,0,.3,0,.6.2.8,0,.1.2.2.3.3,1.2,1.2,2.5,2.1,4.2,2.7,1.3.4,2.6.7,4,.6.5,0,1.1,0,1.6,0,.3,0,.3,0,.3.3.2,1.3.4,2.6.6,4,0,.6.2,1.2.2,1.8,0,.4.3.6.7.6.3,0,.6,0,.9-.1.5-.1.7-.4.5-.9-.4-1.1-.7-2.3-.9-3.4-.2-.7-.3-1.3-.6-2,0-.3,0-.3.2-.3h0c1.1,0,2.2-.2,3.3-.4.3,0,.7-.1,1-.2.3,0,.3,0,.3.2,0,.2,0,.3,0,.4,0,.8.2,1.5.2,2.3,0,.9.2,1.8.1,2.7,0,.3.2.5.5.5,0,0,.2,0,.3,0,.5,0,1.1,0,1.6-.2.4-.2.5-.4.3-.8-.4-.9-.7-1.7-1.1-2.6-.3-.8-.7-1.6-.9-2.5,0-.3,0-.3.2-.4,0,0,0,0,0,0,1.5-.4,3-.8,4.4-1.5.9-.4,1.6-.9,2.3-1.6.1,0,.2-.2.3-.3.5-.9.8-1.8,1-2.8.2-1.2.3-2.4-.1-3.6h0ZM62.5,532.6c-.2,0-.5-.2-.7-.3-1.1-.5-1.8-1.4-2.1-2.6,0-.3,0-.6,0-.8,0-.5,0-1,.3-1.5.2-.5.5-1.1.9-1.5.2-.2.4-.4.6-.6.2,0,.2,0,.2.1.1,1,.3,2,.4,3,.2,1.3.4,2.7.6,4,0,0,0,0,0,.1,0,.1,0,.2-.2.1h0ZM63.7,532.6c-.1-.9-.3-1.8-.4-2.7-.2-1.2-.4-2.5-.6-3.7,0-.4-.1-.8-.2-1.2,0-.2,0-.2.2-.3.7-.3,1.3-.5,2-.5.4,0,.8-.1,1.2-.1.2,0,.2,0,.3.2.4,1.7.7,3.4,1.1,5.1.2,1,.4,2,.6,3,0,.4,0,.4-.3.4-.7,0-1.4,0-2.2,0-.2,0-.5,0-.8,0h0c-.3,0-.5,0-.8,0s-.2,0-.2-.2h0ZM71,548.4c-1.6,0-3.2,0-4.7-.6-.2,0-.3-.2-.4-.4-.3-2-.6-4.1-.9-6.1-.3-1.7-.5-3.5-.8-5.2,0-.5-.1-.9-.2-1.3,0-.3,0-.3.2-.3.7,0,1.3,0,1.9,0,.6,0,1.2,0,1.9,0,.3,0,.3,0,.3.3.5,2.4,1,4.7,1.5,7.1.4,2.2.9,4.3,1.4,6.5,0,.3,0,.4-.3.4h0ZM76.9,543.7c-.1.4-.3.8-.3.9-.3.6-.4,1.1-.8,1.6-.6.8-1.3,1.2-1.7,1.5-.3.2-.5.2-.8.4-.3.1-.6.2-.9.2-.2,0-.2,0-.3-.2-.2-.8-.3-1.5-.5-2.3-.6-2.9-1.2-5.8-1.8-8.7-.2-.8-.3-1.7-.5-2.5,0-.3,0-.3.2-.3h.7c1.1,0,2.2.1,3.3.4.4,0,.8.2,1.1.3.5.2.8.5,1.2,1,.3.4.5.8.9,2,.4,1.2.6,1.8.7,2.1.2,1.4-.1,2.5-.5,3.8h0Z"/>
        <g>
          <path class="cls-1" d="M26.5,139.7c-.2-.6-.4-1.2-.6-1.8-.7-1.9-1.9-3.5-3.8-4.5-1.4-.8-3-1.1-4.5-1.3-.9,0-1.9-.1-2.8-.1s-.3,0-.3-.3c0,0,0,0,0-.1-.4-2-.8-3.9-1.2-5.9-.1-.7-.3-1.4-.4-2.1,0-.2,0-.3.2-.2.1,0,.3,0,.4,0,1,0,1.9.2,2.9.6.5.2.9.4,1.3.8.4.3.7.6,1,.9.2.2.5.2.7.2.1,0,.3-.1.4-.2.5-.4.8-.9,1-1.4.1-.3,0-.4-.2-.6-.4-.3-.8-.5-1.2-.6-1.2-.4-2.4-1-3.6-1.1-1-.1-2-.3-3-.3-.2,0-.2,0-.2-.2,0-.6-.1-1.1-.2-1.7-.1-.7-.2-1.4-.3-2.1,0-.4,0-.8-.1-1.2,0-.6-.4-.7-.9-.7s-.7.3-.6.7c0,0,0,0,0,.2.3,1.6.7,3.2,1,4.8,0,.3,0,.3-.2.3-1,0-1.9.2-2.9.5-.3,0-.3,0-.3-.3v-2.1h0v-2.1c0-.2,0-.5,0-.7-.1-.5-.5-.7-1-.6-.4,0-.8.2-1.2.4-.1,0-.2,0-.3.2,0,.2-.2.5,0,.7,0,.1,0,.3.1.4.5,1.4.7,3,1.3,4.4,0,0,0,.2,0,.2-.2,0-.3.2-.5.2-.8.3-1.7.8-2.4,1.3-.8.6-1.5,1.4-2.2,2.2-.8,1-1.3,2.2-1.5,3.5-.2,1.3.3,2.4,1.5,3,.6.3,1.3.6,2,.7,1.2.3,2.4.4,3.5.4h1.1c.2,0,.3,0,.3.3h0c.2,1.4.4,2.7.6,4,.4,2.5.7,4.9,1.1,7.4,0,.2,0,.5.1.7,0,.2,0,.2-.2.1,0,0-.1,0-.2,0-.3-.2-.7-.4-1-.5-1.9-1-3.7-2.1-5.4-3.3-.4-.3-.8-.6-1.3-.9-.5-.3-1-.1-1.2.4,0,0,0,.1,0,.2-.3,1.4-.6,2.8-.7,4.2,0,.3,0,.6.2.8,0,.1.2.2.3.3,1.2,1.2,2.5,2.1,4.2,2.6,1.3.4,2.6.7,4,.6.5,0,1.1,0,1.6,0,.3,0,.3,0,.3.3.2,1.3.4,2.6.6,4,0,.6.2,1.2.2,1.8,0,.4.3.6.7.6.3,0,.6,0,.9-.1.5-.1.6-.4.5-.9-.4-1.1-.7-2.3-.9-3.4-.1-.7-.4-1.3-.6-2-.1-.3,0-.3.2-.3h0c1.1,0,2.2-.2,3.3-.4.3,0,.7-.1,1-.2.3,0,.3,0,.3.2,0,.1,0,.3,0,.4,0,.8.2,1.5.2,2.3,0,.9.2,1.8.1,2.7,0,.3.2.5.5.5,0,0,.2,0,.3,0,.5,0,1,0,1.5-.2.4-.1.5-.4.4-.8-.4-.9-.7-1.7-1.1-2.6-.3-.8-.6-1.6-.9-2.5,0-.3,0-.3.2-.4,0,0,0,0,0,0,1.5-.4,3-.8,4.4-1.5.9-.4,1.6-.9,2.3-1.6.1-.1.2-.2.3-.4.5-.9.8-1.8,1-2.8.2-1.2.3-2.4-.1-3.6h0ZM8.1,132c-.2,0-.4-.2-.7-.3-1.1-.5-1.8-1.4-2.1-2.6,0-.3,0-.6,0-.8,0-.5,0-1,.3-1.5.2-.6.5-1.1.9-1.6.2-.2.4-.4.6-.6.2,0,.2,0,.2.1.1,1,.3,2,.4,2.9.2,1.3.4,2.7.6,4,0,0,0,0,0,.1,0,.1,0,.2-.2.1h0ZM9.3,131.9c-.1-.9-.3-1.8-.4-2.7-.2-1.2-.4-2.5-.6-3.7,0-.4-.1-.8-.2-1.2,0-.2,0-.2.2-.3.7-.3,1.3-.4,2-.5.4,0,.8-.1,1.2-.1.2,0,.2,0,.3.2.4,1.7.7,3.4,1.1,5.1.2,1,.4,2,.6,3,0,.4,0,.4-.3.4-.7,0-1.4,0-2.2,0-.2,0-.5,0-.8,0h0c-.3,0-.5,0-.8,0s-.2,0-.2-.2h0ZM16.6,147.8c-1.6.1-3.1,0-4.7-.6-.2,0-.3-.2-.4-.4-.3-2-.6-4.1-.9-6.1-.3-1.7-.5-3.5-.8-5.2,0-.4-.1-.9-.2-1.4,0-.3,0-.3.2-.3.6,0,1.3,0,1.9,0,.6,0,1.2,0,1.9,0,.3,0,.3,0,.3.3.5,2.4,1,4.7,1.5,7.1.4,2.2.9,4.3,1.4,6.5,0,.3,0,.4-.3.4h0ZM22.5,143.1c-.1.4-.3.8-.3.9-.3.6-.4,1.1-.8,1.6-.6.8-1.3,1.2-1.6,1.5-.3.2-.5.2-.8.4-.3.1-.6.2-.9.2-.2,0-.2,0-.3-.2-.2-.8-.3-1.5-.5-2.3-.6-2.9-1.2-5.8-1.8-8.7-.2-.9-.4-1.7-.5-2.5,0-.3,0-.3.2-.3h.7c1.1,0,2.2.1,3.3.4.4,0,.8.2,1.1.3.5.2.8.6,1.1,1,.3.4.5.8.9,2,.4,1.2.6,1.8.7,2.1.2,1.4-.1,2.6-.5,3.8h0Z"/>
          <path class="cls-1" d="M53.7,139.7c-.2-.6-.4-1.2-.6-1.8-.7-1.9-1.9-3.5-3.8-4.5-1.4-.8-3-1.1-4.5-1.3-.9,0-1.9-.1-2.8-.1s-.3,0-.3-.3c0,0,0,0,0-.1-.4-2-.8-3.9-1.2-5.9-.2-.7-.3-1.4-.4-2.1,0-.2,0-.3.2-.2.2,0,.3,0,.5,0,1,0,2,.2,2.9.6.5.2.9.4,1.3.8.3.3.7.6,1,.9.2.2.5.2.7.2.2,0,.3-.1.4-.2.5-.4.8-.9,1-1.4.1-.3,0-.4-.2-.6-.4-.3-.8-.5-1.2-.6-1.2-.4-2.3-1-3.6-1.1-1-.1-2-.3-3-.3-.2,0-.2,0-.2-.2,0-.6-.1-1.1-.2-1.7,0-.7-.2-1.4-.3-2.1,0-.4,0-.8-.1-1.2,0-.6-.4-.7-.9-.7s-.7.3-.6.7c0,0,0,0,0,.2.3,1.6.7,3.2,1,4.8,0,.3,0,.3-.2.3-1,0-1.9.2-2.9.5-.3,0-.3,0-.3-.3v-2.1h0v-2.1c0-.2,0-.5,0-.7-.1-.5-.5-.7-1-.6-.4,0-.8.2-1.2.4-.1,0-.2,0-.3.2,0,.2-.2.5,0,.7,0,.1,0,.3.1.4.5,1.4.7,3,1.3,4.4,0,0,0,.2,0,.2-.2,0-.3.2-.5.2-.8.3-1.7.8-2.4,1.3-.8.6-1.5,1.4-2.2,2.2-.8,1-1.3,2.2-1.5,3.5-.2,1.3.4,2.4,1.5,3,.6.3,1.3.6,2,.7,1.2.3,2.4.4,3.5.4h1.1c.2,0,.3,0,.3.3h0c.2,1.4.4,2.7.6,4,.3,2.5.7,4.9,1,7.4,0,.2,0,.5,0,.7,0,.2,0,.2-.2.1,0,0-.1,0-.2,0-.3-.2-.7-.4-1-.5-1.9-1-3.7-2.1-5.4-3.3-.4-.3-.9-.6-1.3-.9-.5-.3-1-.1-1.2.4,0,0,0,.1,0,.2-.3,1.4-.6,2.8-.7,4.2,0,.3,0,.6.2.8,0,.1.2.2.3.3,1.2,1.2,2.5,2.1,4.2,2.6,1.3.4,2.6.7,4,.6.5,0,1.1,0,1.6,0,.3,0,.3,0,.3.3.2,1.3.4,2.6.5,4,0,.6.2,1.2.2,1.8,0,.4.3.6.7.6.3,0,.6,0,.9-.1.5-.1.7-.4.5-.9-.4-1.1-.7-2.3-.9-3.4-.2-.7-.3-1.3-.6-2,0-.3,0-.3.2-.3h0c1.1,0,2.2-.2,3.3-.4.3,0,.7-.1,1-.2.3,0,.3,0,.3.2,0,.1,0,.3,0,.4,0,.8.2,1.5.2,2.3,0,.9.2,1.8.1,2.7,0,.3.2.5.5.5,0,0,.2,0,.3,0,.5,0,1,0,1.5-.2.4-.1.5-.4.3-.8-.4-.9-.7-1.7-1.1-2.6-.3-.8-.7-1.6-.9-2.5,0-.3,0-.3.2-.4,0,0,0,0,0,0,1.5-.4,3-.8,4.5-1.5.9-.4,1.6-.9,2.3-1.6.1-.1.2-.2.3-.4.5-.9.8-1.8,1-2.8.2-1.2.3-2.4-.1-3.6h0ZM35.3,132c-.2,0-.5-.2-.7-.3-1.1-.5-1.8-1.4-2.1-2.6,0-.3,0-.6,0-.8,0-.5,0-1,.3-1.5.2-.6.5-1.1.9-1.6.2-.2.4-.4.6-.6.2,0,.2,0,.2.1.1,1,.3,2,.4,2.9.2,1.3.4,2.7.6,4,0,0,0,0,0,.1,0,.1,0,.2-.2.1h0ZM36.5,131.9c-.1-.9-.3-1.8-.4-2.7-.2-1.2-.4-2.5-.6-3.7,0-.4-.1-.8-.2-1.2,0-.2,0-.2.2-.3.7-.3,1.3-.4,2-.5.4,0,.8-.1,1.2-.1.2,0,.2,0,.3.2.4,1.7.7,3.4,1.1,5.1.2,1,.4,2,.6,3,0,.4,0,.4-.3.4-.7,0-1.5,0-2.2,0-.2,0-.5,0-.8,0h0c-.3,0-.5,0-.8,0s-.2,0-.2-.2h0ZM43.8,147.8c-1.6.1-3.2,0-4.7-.6-.2,0-.3-.2-.4-.4-.3-2-.6-4.1-.9-6.1-.3-1.7-.5-3.5-.8-5.2,0-.4-.1-.9-.2-1.4,0-.3,0-.3.2-.3.7,0,1.3,0,2,0,.6,0,1.2,0,1.9,0,.3,0,.3,0,.3.3.5,2.4,1,4.7,1.5,7.1.5,2.2.9,4.3,1.4,6.5,0,.3,0,.4-.3.4h0ZM49.7,143.1c-.1.4-.3.8-.3.9-.3.6-.4,1.1-.8,1.6-.6.8-1.3,1.2-1.7,1.5-.3.2-.5.2-.8.4-.3.1-.6.2-.9.2-.2,0-.2,0-.3-.2-.2-.8-.3-1.5-.5-2.3-.6-2.9-1.2-5.8-1.8-8.7-.2-.9-.3-1.7-.5-2.5,0-.3,0-.3.2-.3h.7c1.1,0,2.2.1,3.3.4.4,0,.8.2,1.1.3.5.2.8.6,1.2,1,.3.4.5.8.9,2,.4,1.2.6,1.8.7,2.1.2,1.4-.1,2.6-.5,3.8h0Z"/>
          <path class="cls-1" d="M80.9,139.7c-.2-.6-.4-1.2-.6-1.8-.7-1.9-1.9-3.5-3.8-4.5-1.4-.8-2.9-1.1-4.5-1.3-.9,0-1.9-.1-2.8-.1s-.3,0-.3-.3c0,0,0,0,0-.1-.4-2-.8-3.9-1.2-5.9-.2-.7-.3-1.4-.4-2.1,0-.2,0-.3.2-.2.2,0,.3,0,.4,0,1,0,1.9.2,2.9.6.5.2.9.4,1.3.8.3.3.7.6,1,.9.2.2.4.2.7.2.2,0,.3-.1.4-.2.5-.4.8-.9.9-1.4.1-.3,0-.4-.2-.6-.4-.3-.8-.5-1.2-.6-1.2-.4-2.3-1-3.6-1.1-1-.1-2-.3-3-.3-.2,0-.2,0-.2-.2,0-.6-.1-1.1-.2-1.7,0-.7-.2-1.4-.3-2.1,0-.4,0-.8-.1-1.2,0-.6-.4-.7-.9-.7s-.7.3-.6.7c0,0,0,0,0,.2.3,1.6.7,3.2,1,4.8,0,.3,0,.3-.2.3-1,0-1.9.2-2.9.5-.3,0-.3,0-.3-.3v-2.1h0v-2.1c0-.2,0-.5,0-.7-.1-.5-.5-.7-1-.6-.4,0-.8.2-1.2.4-.1,0-.2,0-.3.2,0,.2-.2.5,0,.7,0,.1,0,.3.1.4.5,1.4.7,3,1.3,4.4,0,0,0,.2,0,.2-.2,0-.3.2-.5.2-.8.3-1.7.8-2.4,1.3-.8.6-1.5,1.4-2.2,2.2-.8,1-1.3,2.2-1.5,3.5-.2,1.3.3,2.4,1.5,3,.6.3,1.3.6,2,.7,1.2.3,2.4.4,3.5.4h1.1c.2,0,.3,0,.3.3h0c.2,1.4.4,2.7.6,4,.3,2.5.7,4.9,1,7.4,0,.2,0,.5,0,.7,0,.2,0,.2-.2.1,0,0-.1,0-.2,0-.3-.2-.7-.4-1-.5-1.9-1-3.7-2.1-5.4-3.3-.4-.3-.8-.6-1.3-.9-.5-.3-1-.1-1.2.4,0,0,0,.1,0,.2-.3,1.4-.6,2.8-.7,4.2,0,.3,0,.6.2.8,0,.1.2.2.3.3,1.2,1.2,2.5,2.1,4.2,2.6,1.3.4,2.6.7,4,.6.5,0,1.1,0,1.6,0,.3,0,.3,0,.3.3.2,1.3.4,2.6.6,4,0,.6.2,1.2.2,1.8,0,.4.3.6.7.6.3,0,.6,0,.9-.1.5-.1.7-.4.5-.9-.4-1.1-.7-2.3-.9-3.4-.2-.7-.3-1.3-.6-2,0-.3,0-.3.2-.3h0c1.1,0,2.2-.2,3.3-.4.3,0,.7-.1,1-.2.3,0,.3,0,.3.2,0,.1,0,.3,0,.4,0,.8.2,1.5.2,2.3,0,.9.2,1.8.1,2.7,0,.3.2.5.5.5,0,0,.2,0,.3,0,.5,0,1.1,0,1.6-.2.4-.1.5-.4.3-.8-.4-.9-.7-1.7-1.1-2.6-.3-.8-.7-1.6-.9-2.5,0-.3,0-.3.2-.4,0,0,0,0,0,0,1.5-.4,3-.8,4.4-1.5.9-.4,1.6-.9,2.3-1.6.1-.1.2-.2.3-.4.5-.9.8-1.8,1-2.8.2-1.2.3-2.4-.1-3.6h0ZM62.5,132c-.2,0-.5-.2-.7-.3-1.1-.5-1.8-1.4-2.1-2.6,0-.3,0-.6,0-.8,0-.5,0-1,.3-1.5.2-.6.5-1.1.9-1.6.2-.2.4-.4.6-.6.2,0,.2,0,.2.1.1,1,.3,2,.4,2.9.2,1.3.4,2.7.6,4,0,0,0,0,0,.1,0,.1,0,.2-.2.1h0ZM63.7,131.9c-.1-.9-.3-1.8-.4-2.7-.2-1.2-.4-2.5-.6-3.7,0-.4-.1-.8-.2-1.2,0-.2,0-.2.2-.3.7-.3,1.3-.4,2-.5.4,0,.8-.1,1.2-.1.2,0,.2,0,.3.2.4,1.7.7,3.4,1.1,5.1.2,1,.4,2,.6,3,0,.4,0,.4-.3.4-.7,0-1.4,0-2.2,0-.2,0-.5,0-.8,0h0c-.3,0-.5,0-.8,0s-.2,0-.2-.2h0ZM71,147.8c-1.6.1-3.2,0-4.7-.6-.2,0-.3-.2-.4-.4-.3-2-.6-4.1-.9-6.1-.3-1.7-.5-3.5-.8-5.2,0-.4-.1-.9-.2-1.4,0-.3,0-.3.2-.3.7,0,1.3,0,1.9,0,.6,0,1.2,0,1.9,0,.3,0,.3,0,.3.3.5,2.4,1,4.7,1.5,7.1.4,2.2.9,4.3,1.4,6.5,0,.3,0,.4-.3.4h0ZM76.9,143.1c-.1.4-.3.8-.3.9-.3.6-.4,1.1-.8,1.6-.6.8-1.3,1.2-1.7,1.5-.3.2-.5.2-.8.4-.3.1-.6.2-.9.2-.2,0-.2,0-.3-.2-.2-.8-.3-1.5-.5-2.3-.6-2.9-1.2-5.8-1.8-8.7-.2-.9-.3-1.7-.5-2.5,0-.3,0-.3.2-.3h.7c1.1,0,2.2.1,3.3.4.4,0,.8.2,1.1.3.5.2.8.6,1.2,1,.3.4.5.8.9,2,.4,1.2.6,1.8.7,2.1.2,1.4-.1,2.6-.5,3.8h0Z"/>
        </g>
        <path class="cls-2" d="M96.8,53.8l-1.3,505.5c0,3.7,3,6.7,6.7,6.7h988.7"/>
      </g>
    </g>
  </g>
</svg>