<?xml version="1.0" encoding="UTF-8"?>
<svg id="Layer_2" xmlns="http://www.w3.org/2000/svg" viewBox="0 0 154.83 745.39">
  <defs>
    <style>
      .cls-1 {
        fill: #ff8800;
      }

      .cls-2 {
        fill: #d41a2a;
      }

      .cls-3 {
        fill: #0f3067;
      }

      .cls-4 {
        fill: #6cc5c1;
      }
    </style>
  </defs>
  <g id="Layer_1-2" data-name="Layer_1">
    <g>
      <path class="cls-1" d="M142.37,557.41l-59.64,1.83c-.08-14.89-.16-28.22-.2-28.8-.15-2.48-1.57-3.8-3.86-4.37-2.17-.54-4.35-1.06-6.53-1.58-4.87-1.16-9.72-2.39-14.61-3.44-4.64-1.01-6.68.64-7,5.38-.11,1.67-.23,17.13-.36,33.8l-25.66.79c-.1-8.43-.21-15.6-.33-20.81-.83-36.07-.04-72.14-.81-108.2-.25-11.4-.27-22.79-.49-34.19-.03-1.47.02-2.94.15-4.41.24-2.75.34-7.12.13-9.82-.64-7.95-.56-15.96.03-23.93.07-.92.28-1.8-.06-2.71-.49-1.27-.33-2.61-.36-3.92-.79-44.26-.31-88.52-.99-132.78-.55-35.27-.47-70.55-.36-105.82.02-6.41.15-12.91,1.22-19.31.3-1.77,1.03-3.22,2.13-4.6,4.7-5.87,9.66-11.52,14.77-17.04,11.12-12,22.25-24,33.34-36.05,1.65-1.8,3.17-3.73,4.69-5.64,3.26-4.1,7.19-4.12,10.27.04,5.72,7.75,11.26,15.64,17.17,23.24,8.74,11.24,17.28,22.64,26.43,33.56,2.15,2.56,3.32,5.41,3.2,8.89-.17,5.22-.14,10.44.06,15.66.63,17.29.31,34.61.98,51.88.65,16.91-.05,33.82.79,50.7.79,15.98-.01,31.97.81,47.92.8,15.59-.02,31.18.78,46.74.82,15.84,0,31.71.8,47.52.8,15.72-.01,31.45.79,47.13.81,15.72,0,31.45.8,47.13.8,15.72,0,31.45.79,47.13.8,15.85-.02,31.72.8,47.53.18,3.52.28,7.02.33,10.54h0Z"/>
      <path class="cls-3" d="M85.15,14.08c-1.48.53-2.1,1.6-2.89,2.47-20.47,22.44-40.92,44.89-61.38,67.34-.62.68-1.47,1.28-1.8,2.08-1.42,3.45-4.07,4.14-7.41,3.72-2.22-.28-4.47-.41-6.71-.5-1.94-.08-3.75-.38-4.6-2.41-.86-2.05-.04-3.9,1.08-5.56.66-.97,1.62-1.73,2.46-2.57C28.01,54.75,52.12,30.85,76.22,6.93c1.78-1.76,3.44-3.65,5.18-5.45,1.87-1.92,3.9-1.97,5.91-.17.39.35.78.73,1.09,1.15,15.08,20.56,31.34,40.19,46.96,60.33,5.5,7.09,11.22,14.02,16.83,21.03.74.93,1.58,1.82,2.12,2.86,1.18,2.27.31,4.73-2.13,5.41-2.65.75-5.42,1.16-8.16,1.53-2.17.29-3.3-1.35-4.38-2.87-3.58-5.07-7.14-10.15-10.73-15.22-14.21-20.03-28.43-40.06-42.66-60.09-.3-.43-.65-.82-1.1-1.38v.02Z"/>
      <path class="cls-3" d="M86.08,745.21h-9.47c-1.34-.84-2.83-.47-4.25-.49-6.86-.1-13.72-.07-20.57-.2-3.19-.07-3.2-.18-3.09-3.38.41-12.12.19-125.35,1.05-137.44.15-2,.3-23.59.44-43.45.12-16.67.25-32.13.36-33.8.32-4.74,2.36-6.39,7-5.38,4.89,1.06,9.74,2.29,14.61,3.44,2.18.52,4.36,1.04,6.53,1.58,2.29.57,3.7,1.88,3.86,4.37.04.58.12,13.91.2,28.8.1,19.03.21,40.62.24,41.36.38,9.35,1.38,80.57,1.83,89.91.24,5.13,1.59,49.55,1.28,54.7l-.02-.02Z"/>
      <path class="cls-4" d="M133.96,490.12c0,1.59.06,3.17-.01,4.75-.12,2.6-1.22,3.81-3.84,4.1-1.3.15-2.65.12-3.96,0-8.65-.85-17.32-1.46-26.01-1.52-1.46-.01-2.92.03-4.25-.71-1.95-1.09-3.34-2.51-3.22-4.99.34-7.11-.48-14.23.62-21.34.44-2.84.1-5.8.16-8.71.07-3.08.91-4.31,3.74-5.3,2.12-.74,4.29-1.33,6.57-.57.62.21,1.3.37,1.94.33,5.82-.31,11.55,1.17,17.36.89h.4c6.96.18,8.26,1.35,8.78,8.25.26,3.41.48,6.83.66,10.23.27,4.87,1.32,9.68,1.06,14.58h0Z"/>
      <path class="cls-4" d="M84.76,230.99c0-3.43-.03-6.86,0-10.29.06-4.6,1.07-5.67,5.45-6.6,1.83-.39,3.64-.52,5.48-.52,5.54,0,11.08-.08,16.62-.02,2.99.03,4.85,1.68,4.88,4.49.08,7.65.15,15.3-.06,22.94-.12,4.4-3.65,7.41-8.04,7.42-6.58,0-13.11-1.09-19.71-.85-2.92.11-4.59-1.76-4.66-4.7-.09-3.95-.02-7.91-.02-11.87h.06Z"/>
      <path class="cls-4" d="M39.2,352.35c-1.48,0-2.28.02-3.07,0-3.73-.11-5.46-2.06-4.39-5.63,1.28-4.28,2.93-8.46,4.62-12.6.77-1.89,2.32-2.91,4.54-3.29,11.38-1.93,22.73-4.05,34.08-6.11,3.53-.64,6.15,1.52,5.69,5.06-.67,5.2-1.56,10.38-2.56,15.52-.39,1.99-1.53,3.64-3.91,3.91-1.17.13-2.31.56-3.48.65-8.26.6-16.52,1.15-24.78,1.69-2.49.16-4.89,1.22-6.75.79h.01Z"/>
      <path class="cls-4" d="M47.1,154.87c-2.75.34-5.92-.9-9.24-.92-2.13,0-3.65-2.11-3.84-4.8-.16-2.37-.06-4.75-.11-7.13-.03-1.71-.11-3.39-.46-5.1-.88-4.24,1.15-6.5,5.37-6.71,3.86-.19,7.61.64,11.41.94,1.93.15,3.23,1.25,3.65,3.5.62,3.27.66,6.54.73,9.83.03,1.45,0,2.91.25,4.33.71,4.14-.69,5.97-4.8,6.05-.79.02-1.58,0-2.96,0h0Z"/>
      <g>
        <path class="cls-2" d="M76.61,745.21c-9.12.04-18.24.05-27.36.14-6.47.07-12.92-.3-19.37-.71-2.57-.17-3.01-.51-3.22-3.01-.34-4.2-1.48-47.69-1.48-51.93.01-24.01-.21-89.79-.66-128.68l25.66-.79c-.15,19.87-.3,41.45-.44,43.45-.86,12.09-.63,125.31-1.05,137.44-.11,3.2-.1,3.32,3.09,3.38,6.86.13,13.72.1,20.57.2,1.42.02,2.91-.36,4.25.49v.02Z"/>
        <path class="cls-2" d="M139.22,745.35c-16.13.04-32.26.01-48.39,0-1.59,0-3.17-.09-4.75-.14.31-5.15-1.04-49.57-1.28-54.7-.44-9.34-1.45-80.56-1.83-89.91-.03-.74-.14-22.33-.24-41.36l59.64-1.83c.18,12.07-.17,24.15.44,36.2.77,14.92,1.91,131,2.1,145.91.08,6.81.21,5.81-5.69,5.83h0Z"/>
      </g>
    </g>
  </g>
</svg>