<?xml version="1.0" encoding="UTF-8"?>
<svg id="Layer_2" xmlns="http://www.w3.org/2000/svg" viewBox="0 0 273.68 350.5">
  <defs>
    <style>
      .cls-1 {
        fill: #ffedc9;
      }
    </style>
  </defs>
  <g id="Layer_1-2" data-name="Layer_1">
    <path class="cls-1" d="M.1,350.5c-.2,0-1.5-33.4,19.5-61.4,12.7-17,29.6-25.6,63.3-42.8,37.9-19.4,49.7-19.4,60.5-35.4,8.3-12.3,15.6-33.4,7.4-49.3-8.7-17-26.4-11.5-49.3-29.8-3.8-3.1-37.5-30.6-32.6-66.1,3.1-22.2,21.3-47.5,43.7-48.4,22.1-.9,40.8,22.3,42.8,25.1,1.7,2.3,2.6,4,2.6,4,3.5,6.1,3.4,9.7,4.8,10,2.4.5,6.1-8.8,8.4-14,4.5-10.4,11.8-24.1,16.8-29.8,14.7-16.8,57.1-18,75.4,3.7,9.2,10.9,9.8,24.5,10.2,32.6.3,6.8.2,23.9-10.2,40-8.8,13.6-18,15.8-40.9,32.6-19.2,14-28.6,21.4-32.6,27-13,18.4-9.3,31.8-27,55.8-2.5,3.4-5.8,7.9-11.2,13-12.7,12.2-24,16.1-42.8,24.2-25.3,10.9-38.9,16.7-54.9,27.9-9.1,6.4-18.3,13.9-27,24.2-6.8,8-10.9,14.8-12.1,16.8C2.4,331.4.1,350.4,0,350.4h0l.1.1Z"/>
  </g>
</svg>