<?xml version="1.0" encoding="UTF-8"?>
<svg xmlns="http://www.w3.org/2000/svg" version="1.1" viewBox="0 0 515.3 272.8">
  <defs>
    <style>
      .cls-1 {
        display: none;
        fill: #6cc5c1;
      }

      .cls-2 {
        fill: #0f3067;
      }
    </style>
  </defs>
  <!-- Generator: Adobe Illustrator 28.7.1, SVG Export Plug-In . SVG Version: 1.2.0 Build 142)  -->
  <g>
    <g id="Layer_2">
      <g id="Layer_1-2">
        <g>
          <path class="cls-2" d="M101.9,6.3c0,3.8,0,7.6,0,11.4,0,9.9,0,19.8,0,29.7,0,13.8,0,27.6-.1,41.4,0,15.5,0,30.9-.1,46.4,0,15.5,0,29.9-.1,44.8,0,12.2,0,24.4,0,36.6,0,7.2,0,14.4,0,21.7,0,1.1,0,2.1,0,3.2.2,4,3.3,6.1,7,6.1h400.5c3.9,0,3.9-6,0-6H108.5c-.4,0-1,.1-1.2-.2-.4-.6,0-3.1,0-3.8v-9c0-10.2,0-20.3,0-30.5,0-13.9,0-27.8.1-41.6,0-15.4,0-30.8.1-46.3,0-14.8,0-29.6.1-44.3,0-11.9,0-23.8,0-35.7,0-7,0-13.9,0-20.9v-2.8c0-3.9-6-3.9-6,0h0Z"/>
          <path class="cls-2" d="M105.1,4.2c-.3.2-.5.5-.7.7-4.7,6.8-9.5,13.5-14.2,20.3-.1.2-.3.4-.4.6-.3,1-.9,1.2-1.7,1.1-.5,0-1-.1-1.6-.1-.4,0-.9-.1-1.1-.7-.2-.6,0-1.2.2-1.7.2-.3.4-.5.6-.8,5.6-7.2,11.2-14.4,16.8-21.6.4-.5.8-1.1,1.2-1.6.4-.6.9-.6,1.4,0,0,.1.2.2.2.3,3.5,6.2,7.3,12.1,10.9,18.2,1.3,2.1,2.6,4.2,3.9,6.3.2.3.4.5.5.9.3.7,0,1.4-.5,1.6-.6.2-1.2.4-1.9.5-.5,0-.8-.4-1-.9-.8-1.5-1.7-3.1-2.5-4.6-3.3-6-6.6-12.1-9.9-18.1,0-.1-.2-.2-.2-.4h0Z"/>
          <path class="cls-2" d="M511.1,244.2c-.2-.3-.5-.5-.7-.7-6.7-4.7-13.5-9.5-20.2-14.2-.2-.1-.4-.3-.6-.4-1-.3-1.2-.9-1.1-1.7,0-.5.1-1,.1-1.6,0-.4.1-.9.7-1.1.6-.2,1.2,0,1.7.2.3.1.5.4.8.6,7.2,5.6,14.4,11.2,21.5,16.8.5.4,1.1.8,1.6,1.2.6.4.6.9,0,1.4-.1,0-.2.2-.3.2-6.2,3.5-12.1,7.3-18.1,10.9-2.1,1.3-4.2,2.6-6.3,3.9-.3.2-.5.4-.9.5-.7.3-1.4,0-1.6-.5-.2-.6-.4-1.2-.5-1.9,0-.5.4-.8.9-1,1.5-.8,3-1.6,4.6-2.5,6-3.3,12-6.6,18-9.9.1,0,.2-.1.4-.2h0Z"/>
        </g>
        <path class="cls-1" d="M497.7,131.5c-5.9-1.7-11.8-3.5-17.8-5.1-4.9-1.3-11.2.9-16,2.1-5.8,1.5-11.4,3.7-17.1,5.6-1.2.4-2.6.6-3.7,1.2-1.6.8,1,.1.1,0-2.9,0-5.8,0-8.6,0-5.8,0-11.9-.4-17.7.1-6.1.6-12.4,3.1-18.4,4.7-1.2.3-2.5.5-3.7,1-1.8.7,1.3,0,0,.1-3.1.5-6.3.7-9.5,1.1-4.8.6-9.8,1.6-14.6,1.4-6.9-.3-13.9-1.1-20.8-1.5-.7,0-3-.5-.4,0-.9-.2-1.8-.4-2.6-.6l-11.6-2.6c-11-2.5-21.8-5.9-32.6-8.9-4.5-1.3-8.9-.3-13.6,0-5.5.5-11.3.4-16.6,2.1l-5.4,1.7c-1,.3-3.4.8-1.2.6-2.6.3-5.4.2-8,.2-5.9.2-11.9.4-17.8.5-11.1.2-22.3-.5-33.4.4-13.4,1.1-26.9,2.1-40.3,3.2-4.1.3-6.9,5.3-3.5,8.5l.3.3,3.5-8.5c-16.7.1-33.5.2-50.2.3-6.4,0-6.4,10,0,10,16.7-.1,33.5-.2,50.2-.3,4.2,0,6.7-5.5,3.5-8.5l-.3-.3-3.5,8.5c12.3-1,24.5-1.9,36.8-2.9,10.6-.8,21.2-.6,31.9-.6s20.8.3,30.9-.8c2.6-.3,5-1.3,7.5-2.1,1.3-.4,2.7-.9,4-1.3-2.2.7-.3,0,.6,0,3.4-.3,6.8-.6,10.1-.9,3.1-.3,7.1,0,10.1-.9,1.6-.5-.9-.3-.2-.2.8.2,1.7.5,2.5.7l10.6,2.9c5.7,1.6,11.4,3.3,17.2,4.8s11.4,2.7,17.1,3.9c5,1.1,10.3,1.1,15.4,1.4,4.6.3,9.4,1.1,14,.6,6.5-.8,13.1-1.5,19.6-2.3,5.3-.6,10.6-2.5,15.7-3.9,2.6-.7,5.1-1.4,7.7-2.1-.7.2-1.6,0,0,.1s3,0,4.4,0c7,0,14.2.6,21.1-.1s13.6-4.1,19.9-6.2c2-.6,3.8-1.1,5.9-1.6l6.4-1.4c.6-.1,1.4-.2,2-.4,1.9-.7-1.6,0-1.6-.1.2.5,3.4,1,3.9,1.1l6.4,1.8c2.9.8,5.8,1.6,8.6,2.5,6.2,1.8,8.8-7.9,2.7-9.6h0Z"/>
        <g>
          <g>
            <path class="cls-2" d="M6.9,61.1c-1.4,0-2.6-.2-3.6-.7-1-.4-1.7-1-2.2-1.7s-.7-1.5-.8-2.3c0-.1,0-.2.1-.3,0,0,.2-.1.3-.1h3.6c.2,0,.4,0,.5.1s.2.2.2.3c.1.2.3.5.4.6s.3.3.6.4c.2,0,.5.1.8.1s.6,0,.9-.2c.3-.1.5-.3.6-.6.2-.3.2-.6.2-1s0-.6-.2-.9-.4-.5-.6-.6-.6-.2-.9-.2-.5,0-.7,0c-.2,0-.3.1-.4.2-.1,0-.2.2-.3.2s-.2,0-.3,0H1.6c-.1,0-.2,0-.3-.1s-.1-.2-.1-.3l.8-7.6c0-.2.1-.4.3-.5.2-.1.3-.2.5-.2h9.1c.2,0,.3,0,.4.2s.2.2.2.4v2.5c0,.1,0,.3-.2.4s-.2.2-.4.2h-6.2l-.2,2.1c.4-.2.7-.4,1.1-.5.4-.1,1-.2,1.7-.2s1.3.1,1.9.3c.6.2,1.2.6,1.7,1,.5.4.9,1,1.2,1.5.3.6.4,1.3.4,2s-.2,1.8-.8,2.7c-.5.8-1.2,1.4-2.2,1.9s-2.2.7-3.6.7h0Z"/>
            <path class="cls-2" d="M21.5,61.1c-1,0-2-.1-2.8-.4-.8-.3-1.4-.7-2-1.2-.5-.5-.9-1.1-1.2-1.8-.3-.7-.5-1.4-.5-2.2,0-.4,0-.8,0-1.4v-1.6c0-.5,0-1,0-1.4,0-.8.2-1.5.5-2.2s.7-1.2,1.2-1.7c.5-.5,1.2-.9,2-1.2s1.7-.4,2.7-.4,1.9.1,2.7.4,1.4.7,2,1.2,1,1.1,1.2,1.7c.3.7.5,1.4.5,2.2,0,.4,0,.9,0,1.4v1.6c0,.5,0,1,0,1.4,0,.8-.2,1.5-.5,2.2s-.7,1.3-1.2,1.8-1.2.9-2,1.2c-.8.3-1.7.4-2.7.4ZM21.5,57.5c.6,0,1-.2,1.2-.6.2-.4.4-.8.4-1.5,0-.4,0-.9,0-1.3v-1.5c0-.5,0-.9,0-1.3,0-.6-.2-1-.4-1.4-.2-.4-.7-.6-1.2-.6-.6,0-1,.2-1.2.6s-.4.8-.4,1.4c0,.4,0,.8,0,1.3v1.5c0,.5,0,.9,0,1.3,0,.6.2,1.1.4,1.5s.7.6,1.2.6Z"/>
            <path class="cls-2" d="M36.4,61.1c-1,0-2-.1-2.8-.4-.8-.3-1.4-.7-2-1.2-.5-.5-.9-1.1-1.2-1.8-.3-.7-.5-1.4-.5-2.2,0-.4,0-.8,0-1.4v-1.6c0-.5,0-1,0-1.4,0-.8.2-1.5.5-2.2s.7-1.2,1.2-1.7c.5-.5,1.2-.9,2-1.2s1.7-.4,2.7-.4,1.9.1,2.7.4,1.4.7,2,1.2,1,1.1,1.2,1.7.5,1.4.5,2.2c0,.4,0,.9,0,1.4v1.6c0,.5,0,1,0,1.4,0,.8-.2,1.5-.5,2.2s-.7,1.3-1.2,1.8-1.2.9-2,1.2-1.7.4-2.7.4ZM36.4,57.5c.6,0,1-.2,1.2-.6.2-.4.4-.8.4-1.5,0-.4,0-.9,0-1.3v-1.5c0-.5,0-.9,0-1.3,0-.6-.2-1-.4-1.4-.2-.4-.7-.6-1.2-.6-.6,0-1,.2-1.2.6s-.4.8-.4,1.4c0,.4,0,.8,0,1.3v1.5c0,.5,0,.9,0,1.3,0,.6.2,1.1.4,1.5s.7.6,1.2.6Z"/>
            <path class="cls-2" d="M45.4,60.9c-.2,0-.3,0-.4-.2s-.2-.2-.2-.4v-3.2c0-.2,0-.3.2-.4.1-.1.2-.2.4-.2h3.2c.2,0,.3,0,.4.2.1.1.2.2.2.4v3.2c0,.2,0,.3-.2.4s-.2.2-.4.2h-3.2Z"/>
            <path class="cls-2" d="M57.5,61.1c-1,0-2-.1-2.8-.4-.8-.3-1.4-.7-2-1.2-.5-.5-.9-1.1-1.2-1.8-.3-.7-.5-1.4-.5-2.2,0-.4,0-.8,0-1.4v-1.6c0-.5,0-1,0-1.4,0-.8.2-1.5.5-2.2s.7-1.2,1.2-1.7c.5-.5,1.2-.9,2-1.2s1.7-.4,2.7-.4,1.9.1,2.7.4,1.4.7,2,1.2,1,1.1,1.2,1.7.5,1.4.5,2.2c0,.4,0,.9,0,1.4v1.6c0,.5,0,1,0,1.4,0,.8-.2,1.5-.5,2.2s-.7,1.3-1.2,1.8-1.2.9-2,1.2-1.7.4-2.7.4ZM57.5,57.5c.6,0,1-.2,1.2-.6.2-.4.4-.8.4-1.5,0-.4,0-.9,0-1.3v-1.5c0-.5,0-.9,0-1.3,0-.6-.2-1-.4-1.4-.2-.4-.7-.6-1.2-.6-.6,0-1,.2-1.2.6s-.4.8-.4,1.4c0,.4,0,.8,0,1.3v1.5c0,.5,0,.9,0,1.3,0,.6.2,1.1.4,1.5s.7.6,1.2.6Z"/>
            <path class="cls-2" d="M72.5,61.1c-1.1,0-2-.1-2.8-.4-.8-.3-1.4-.7-1.9-1.2-.5-.5-.9-1.1-1.2-1.8-.3-.7-.5-1.4-.5-2.2,0-.4,0-.8,0-1.4v-1.6c0-.5,0-1,0-1.4,0-.8.2-1.5.5-2.2.3-.7.7-1.2,1.2-1.7.5-.5,1.2-.9,2-1.2s1.7-.4,2.7-.4,1.9.1,2.7.4,1.4.7,2,1.2.9,1.1,1.2,1.7.5,1.4.5,2.2c0,.4,0,.9,0,1.4v1.6c0,.5,0,1,0,1.4,0,.8-.2,1.5-.5,2.2s-.7,1.3-1.2,1.8-1.2.9-2,1.2-1.7.4-2.7.4ZM72.5,57.5c.6,0,1-.2,1.2-.6.2-.4.4-.8.4-1.5,0-.4,0-.9,0-1.3v-1.5c0-.5,0-.9,0-1.3,0-.6-.2-1-.4-1.4-.2-.4-.7-.6-1.2-.6-.6,0-1,.2-1.2.6s-.4.8-.4,1.4c0,.4,0,.8,0,1.3v1.5c0,.5,0,.9,0,1.3,0,.6.2,1.1.4,1.5s.7.6,1.2.6Z"/>
            <path class="cls-2" d="M87.4,61.1c-1.1,0-2-.1-2.8-.4-.8-.3-1.4-.7-1.9-1.2-.5-.5-.9-1.1-1.2-1.8-.3-.7-.5-1.4-.5-2.2,0-.4,0-.8,0-1.4v-1.6c0-.5,0-1,0-1.4,0-.8.2-1.5.5-2.2.3-.7.7-1.2,1.2-1.7.5-.5,1.2-.9,2-1.2s1.7-.4,2.7-.4,1.9.1,2.7.4,1.4.7,2,1.2.9,1.1,1.2,1.7.5,1.4.5,2.2c0,.4,0,.9,0,1.4v1.6c0,.5,0,1,0,1.4,0,.8-.2,1.5-.5,2.2s-.7,1.3-1.2,1.8-1.2.9-2,1.2-1.7.4-2.7.4ZM87.4,57.5c.6,0,1-.2,1.2-.6.2-.4.4-.8.4-1.5,0-.4,0-.9,0-1.3v-1.5c0-.5,0-.9,0-1.3,0-.6-.2-1-.4-1.4-.2-.4-.7-.6-1.2-.6-.6,0-1,.2-1.2.6s-.4.8-.4,1.4c0,.4,0,.8,0,1.3v1.5c0,.5,0,.9,0,1.3,0,.6.2,1.1.4,1.5s.7.6,1.2.6Z"/>
          </g>
          <g>
            <path class="cls-2" d="M6.6,147.9c-1.2,0-2.2-.1-3-.4-.8-.3-1.5-.6-2-1.1-.5-.4-.9-.9-1.1-1.4S0,144,0,143.6c0-.1,0-.2.1-.3,0,0,.2-.1.3-.1h3.5c.2,0,.3,0,.4.1,0,0,.2.2.3.3,0,.2.2.3.4.4.2.1.4.2.6.3.2,0,.5,0,.9,0,.6,0,1.1-.1,1.4-.4.3-.3.5-.6.5-1.1s-.2-.8-.5-1c-.3-.2-.8-.3-1.3-.3h-2.5c-.2,0-.3,0-.4-.2-.1-.1-.2-.2-.2-.4v-1.5c0-.2,0-.4.1-.5,0-.1.2-.2.3-.3l3.2-2.3H1.4c-.2,0-.3,0-.4-.2s-.2-.2-.2-.4v-2.5c0-.2,0-.3.2-.4.1-.1.2-.2.4-.2h10.4c.2,0,.3,0,.4.2s.2.2.2.4v2.3c0,.2,0,.4-.1.5s-.2.2-.3.3l-2.9,2.4h0c.8.2,1.4.4,2.1.8.6.3,1.1.8,1.4,1.4.4.6.5,1.4.5,2.3s-.3,1.8-.9,2.5-1.4,1.3-2.3,1.7-2.1.6-3.4.6h0Z"/>
            <path class="cls-2" d="M21.5,147.9c-1,0-2-.1-2.8-.4-.8-.3-1.4-.7-2-1.2-.5-.5-.9-1.1-1.2-1.8-.3-.7-.5-1.4-.5-2.2,0-.4,0-.8,0-1.4v-1.6c0-.5,0-1,0-1.4,0-.8.2-1.5.5-2.2s.7-1.2,1.2-1.7c.5-.5,1.2-.9,2-1.1s1.7-.4,2.7-.4,1.9.1,2.7.4,1.4.7,2,1.1c.5.5,1,1.1,1.2,1.7.3.7.5,1.4.5,2.2,0,.4,0,.9,0,1.4v1.6c0,.5,0,1,0,1.4,0,.8-.2,1.5-.5,2.2-.3.7-.7,1.3-1.2,1.8s-1.2.9-2,1.2c-.8.3-1.7.4-2.7.4ZM21.5,144.2c.6,0,1-.2,1.2-.6.2-.4.4-.9.4-1.4,0-.4,0-.9,0-1.4v-1.5c0-.5,0-.9,0-1.3,0-.6-.2-1-.4-1.4-.2-.4-.7-.6-1.2-.6-.6,0-1,.2-1.2.6-.2.4-.4.9-.4,1.4,0,.4,0,.8,0,1.3v1.5c0,.5,0,.9,0,1.4,0,.6.2,1.1.4,1.4s.7.6,1.2.6Z"/>
            <path class="cls-2" d="M36.4,147.9c-1,0-2-.1-2.8-.4-.8-.3-1.4-.7-2-1.2-.5-.5-.9-1.1-1.2-1.8-.3-.7-.5-1.4-.5-2.2,0-.4,0-.8,0-1.4v-1.6c0-.5,0-1,0-1.4,0-.8.2-1.5.5-2.2s.7-1.2,1.2-1.7c.5-.5,1.2-.9,2-1.1s1.7-.4,2.7-.4,1.9.1,2.7.4,1.4.7,2,1.1c.5.5,1,1.1,1.2,1.7.3.7.5,1.4.5,2.2,0,.4,0,.9,0,1.4v1.6c0,.5,0,1,0,1.4,0,.8-.2,1.5-.5,2.2-.3.7-.7,1.3-1.2,1.8s-1.2.9-2,1.2-1.7.4-2.7.4ZM36.4,144.2c.6,0,1-.2,1.2-.6.2-.4.4-.9.4-1.4,0-.4,0-.9,0-1.4v-1.5c0-.5,0-.9,0-1.3,0-.6-.2-1-.4-1.4-.2-.4-.7-.6-1.2-.6-.6,0-1,.2-1.2.6-.2.4-.4.9-.4,1.4,0,.4,0,.8,0,1.3v1.5c0,.5,0,.9,0,1.4,0,.6.2,1.1.4,1.4s.7.6,1.2.6Z"/>
            <path class="cls-2" d="M45.4,147.7c-.2,0-.3,0-.4-.2s-.2-.2-.2-.4v-3.2c0-.2,0-.3.2-.4.1-.1.2-.2.4-.2h3.2c.2,0,.3,0,.4.2.1.1.2.2.2.4v3.2c0,.2,0,.3-.2.4s-.2.2-.4.2h-3.2Z"/>
            <path class="cls-2" d="M57.5,147.9c-1,0-2-.1-2.8-.4-.8-.3-1.4-.7-2-1.2-.5-.5-.9-1.1-1.2-1.8-.3-.7-.5-1.4-.5-2.2,0-.4,0-.8,0-1.4v-1.6c0-.5,0-1,0-1.4,0-.8.2-1.5.5-2.2s.7-1.2,1.2-1.7c.5-.5,1.2-.9,2-1.1s1.7-.4,2.7-.4,1.9.1,2.7.4,1.4.7,2,1.1c.5.5,1,1.1,1.2,1.7.3.7.5,1.4.5,2.2,0,.4,0,.9,0,1.4v1.6c0,.5,0,1,0,1.4,0,.8-.2,1.5-.5,2.2-.3.7-.7,1.3-1.2,1.8s-1.2.9-2,1.2-1.7.4-2.7.4ZM57.5,144.2c.6,0,1-.2,1.2-.6.2-.4.4-.9.4-1.4,0-.4,0-.9,0-1.4v-1.5c0-.5,0-.9,0-1.3,0-.6-.2-1-.4-1.4-.2-.4-.7-.6-1.2-.6-.6,0-1,.2-1.2.6-.2.4-.4.9-.4,1.4,0,.4,0,.8,0,1.3v1.5c0,.5,0,.9,0,1.4,0,.6.2,1.1.4,1.4s.7.6,1.2.6Z"/>
            <path class="cls-2" d="M72.5,147.9c-1.1,0-2-.1-2.8-.4-.8-.3-1.4-.7-1.9-1.2-.5-.5-.9-1.1-1.2-1.8-.3-.7-.5-1.4-.5-2.2,0-.4,0-.8,0-1.4v-1.6c0-.5,0-1,0-1.4,0-.8.2-1.5.5-2.2.3-.7.7-1.2,1.2-1.7.5-.5,1.2-.9,2-1.1s1.7-.4,2.7-.4,1.9.1,2.7.4,1.4.7,2,1.1c.5.5.9,1.1,1.2,1.7.3.7.5,1.4.5,2.2,0,.4,0,.9,0,1.4v1.6c0,.5,0,1,0,1.4,0,.8-.2,1.5-.5,2.2-.3.7-.7,1.3-1.2,1.8s-1.2.9-2,1.2-1.7.4-2.7.4ZM72.5,144.2c.6,0,1-.2,1.2-.6.2-.4.4-.9.4-1.4,0-.4,0-.9,0-1.4v-1.5c0-.5,0-.9,0-1.3,0-.6-.2-1-.4-1.4-.2-.4-.7-.6-1.2-.6-.6,0-1,.2-1.2.6-.2.4-.4.9-.4,1.4,0,.4,0,.8,0,1.3v1.5c0,.5,0,.9,0,1.4,0,.6.2,1.1.4,1.4s.7.6,1.2.6Z"/>
            <path class="cls-2" d="M87.4,147.9c-1.1,0-2-.1-2.8-.4-.8-.3-1.4-.7-1.9-1.2-.5-.5-.9-1.1-1.2-1.8-.3-.7-.5-1.4-.5-2.2,0-.4,0-.8,0-1.4v-1.6c0-.5,0-1,0-1.4,0-.8.2-1.5.5-2.2.3-.7.7-1.2,1.2-1.7.5-.5,1.2-.9,2-1.1s1.7-.4,2.7-.4,1.9.1,2.7.4,1.4.7,2,1.1c.5.5.9,1.1,1.2,1.7.3.7.5,1.4.5,2.2,0,.4,0,.9,0,1.4v1.6c0,.5,0,1,0,1.4,0,.8-.2,1.5-.5,2.2-.3.7-.7,1.3-1.2,1.8s-1.2.9-2,1.2-1.7.4-2.7.4ZM87.4,144.2c.6,0,1-.2,1.2-.6.2-.4.4-.9.4-1.4,0-.4,0-.9,0-1.4v-1.5c0-.5,0-.9,0-1.3,0-.6-.2-1-.4-1.4-.2-.4-.7-.6-1.2-.6-.6,0-1,.2-1.2.6-.2.4-.4.9-.4,1.4,0,.4,0,.8,0,1.3v1.5c0,.5,0,.9,0,1.4,0,.6.2,1.1.4,1.4s.7.6,1.2.6Z"/>
          </g>
          <g>
            <path class="cls-2" d="M8.7,234.5c-.2,0-.3,0-.4-.2s-.2-.2-.2-.4v-9.4l-2.7,2.1c-.1.1-.3.1-.4.1-.1,0-.3-.1-.4-.3l-1.6-2c0-.1,0-.3,0-.4,0-.2,0-.3.2-.4l5-3.9c0,0,.1-.1.2-.1s.2,0,.3,0h3.3c.2,0,.3,0,.4.2.1.1.2.2.2.4v13.8c0,.2,0,.3-.2.4s-.2.2-.4.2h-3.5Z"/>
            <path class="cls-2" d="M21.5,234.7c-1,0-2-.1-2.8-.4-.8-.3-1.4-.7-2-1.2-.5-.5-.9-1.1-1.2-1.8-.3-.7-.5-1.4-.5-2.2,0-.4,0-.8,0-1.4v-1.6c0-.5,0-1,0-1.4,0-.8.2-1.5.5-2.2s.7-1.2,1.2-1.7c.5-.5,1.2-.9,2-1.1.8-.3,1.7-.4,2.7-.4s1.9.1,2.7.4,1.4.7,2,1.1c.5.5,1,1.1,1.2,1.7.3.7.5,1.4.5,2.2,0,.4,0,.9,0,1.4v1.6c0,.5,0,1,0,1.4,0,.8-.2,1.5-.5,2.2-.3.7-.7,1.3-1.2,1.8s-1.2.9-2,1.2c-.8.3-1.7.4-2.7.4ZM21.5,231c.6,0,1-.2,1.2-.6.2-.4.4-.9.4-1.4,0-.4,0-.9,0-1.4v-1.5c0-.5,0-.9,0-1.3,0-.6-.2-1-.4-1.4s-.7-.6-1.2-.6c-.6,0-1,.2-1.2.6-.2.4-.4.9-.4,1.4,0,.4,0,.8,0,1.3v1.5c0,.5,0,.9,0,1.4,0,.6.2,1.1.4,1.4s.7.6,1.2.6Z"/>
            <path class="cls-2" d="M36.4,234.7c-1,0-2-.1-2.8-.4-.8-.3-1.4-.7-2-1.2-.5-.5-.9-1.1-1.2-1.8-.3-.7-.5-1.4-.5-2.2,0-.4,0-.8,0-1.4v-1.6c0-.5,0-1,0-1.4,0-.8.2-1.5.5-2.2s.7-1.2,1.2-1.7c.5-.5,1.2-.9,2-1.1.8-.3,1.7-.4,2.7-.4s1.9.1,2.7.4,1.4.7,2,1.1c.5.5,1,1.1,1.2,1.7.3.7.5,1.4.5,2.2,0,.4,0,.9,0,1.4v1.6c0,.5,0,1,0,1.4,0,.8-.2,1.5-.5,2.2-.3.7-.7,1.3-1.2,1.8s-1.2.9-2,1.2-1.7.4-2.7.4ZM36.4,231c.6,0,1-.2,1.2-.6.2-.4.4-.9.4-1.4,0-.4,0-.9,0-1.4v-1.5c0-.5,0-.9,0-1.3,0-.6-.2-1-.4-1.4s-.7-.6-1.2-.6c-.6,0-1,.2-1.2.6-.2.4-.4.9-.4,1.4,0,.4,0,.8,0,1.3v1.5c0,.5,0,.9,0,1.4,0,.6.2,1.1.4,1.4s.7.6,1.2.6Z"/>
            <path class="cls-2" d="M45.4,234.5c-.2,0-.3,0-.4-.2s-.2-.2-.2-.4v-3.2c0-.2,0-.3.2-.4s.2-.2.4-.2h3.2c.2,0,.3,0,.4.2s.2.2.2.4v3.2c0,.2,0,.3-.2.4s-.2.2-.4.2h-3.2Z"/>
            <path class="cls-2" d="M57.5,234.7c-1,0-2-.1-2.8-.4-.8-.3-1.4-.7-2-1.2-.5-.5-.9-1.1-1.2-1.8-.3-.7-.5-1.4-.5-2.2,0-.4,0-.8,0-1.4v-1.6c0-.5,0-1,0-1.4,0-.8.2-1.5.5-2.2s.7-1.2,1.2-1.7c.5-.5,1.2-.9,2-1.1.8-.3,1.7-.4,2.7-.4s1.9.1,2.7.4,1.4.7,2,1.1c.5.5,1,1.1,1.2,1.7.3.7.5,1.4.5,2.2,0,.4,0,.9,0,1.4v1.6c0,.5,0,1,0,1.4,0,.8-.2,1.5-.5,2.2-.3.7-.7,1.3-1.2,1.8s-1.2.9-2,1.2-1.7.4-2.7.4ZM57.5,231c.6,0,1-.2,1.2-.6.2-.4.4-.9.4-1.4,0-.4,0-.9,0-1.4v-1.5c0-.5,0-.9,0-1.3,0-.6-.2-1-.4-1.4s-.7-.6-1.2-.6c-.6,0-1,.2-1.2.6-.2.4-.4.9-.4,1.4,0,.4,0,.8,0,1.3v1.5c0,.5,0,.9,0,1.4,0,.6.2,1.1.4,1.4s.7.6,1.2.6Z"/>
            <path class="cls-2" d="M72.5,234.7c-1.1,0-2-.1-2.8-.4-.8-.3-1.4-.7-1.9-1.2-.5-.5-.9-1.1-1.2-1.8-.3-.7-.5-1.4-.5-2.2,0-.4,0-.8,0-1.4v-1.6c0-.5,0-1,0-1.4,0-.8.2-1.5.5-2.2.3-.7.7-1.2,1.2-1.7.5-.5,1.2-.9,2-1.1.8-.3,1.7-.4,2.7-.4s1.9.1,2.7.4,1.4.7,2,1.1c.5.5.9,1.1,1.2,1.7.3.7.5,1.4.5,2.2,0,.4,0,.9,0,1.4v1.6c0,.5,0,1,0,1.4,0,.8-.2,1.5-.5,2.2-.3.7-.7,1.3-1.2,1.8s-1.2.9-2,1.2-1.7.4-2.7.4ZM72.5,231c.6,0,1-.2,1.2-.6.2-.4.4-.9.4-1.4,0-.4,0-.9,0-1.4v-1.5c0-.5,0-.9,0-1.3,0-.6-.2-1-.4-1.4s-.7-.6-1.2-.6c-.6,0-1,.2-1.2.6-.2.4-.4.9-.4,1.4,0,.4,0,.8,0,1.3v1.5c0,.5,0,.9,0,1.4,0,.6.2,1.1.4,1.4s.7.6,1.2.6Z"/>
            <path class="cls-2" d="M87.4,234.7c-1.1,0-2-.1-2.8-.4-.8-.3-1.4-.7-1.9-1.2-.5-.5-.9-1.1-1.2-1.8-.3-.7-.5-1.4-.5-2.2,0-.4,0-.8,0-1.4v-1.6c0-.5,0-1,0-1.4,0-.8.2-1.5.5-2.2.3-.7.7-1.2,1.2-1.7.5-.5,1.2-.9,2-1.1.8-.3,1.7-.4,2.7-.4s1.9.1,2.7.4,1.4.7,2,1.1c.5.5.9,1.1,1.2,1.7.3.7.5,1.4.5,2.2,0,.4,0,.9,0,1.4v1.6c0,.5,0,1,0,1.4,0,.8-.2,1.5-.5,2.2-.3.7-.7,1.3-1.2,1.8s-1.2.9-2,1.2-1.7.4-2.7.4ZM87.4,231c.6,0,1-.2,1.2-.6.2-.4.4-.9.4-1.4,0-.4,0-.9,0-1.4v-1.5c0-.5,0-.9,0-1.3,0-.6-.2-1-.4-1.4s-.7-.6-1.2-.6c-.6,0-1,.2-1.2.6-.2.4-.4.9-.4,1.4,0,.4,0,.8,0,1.3v1.5c0,.5,0,.9,0,1.4,0,.6.2,1.1.4,1.4s.7.6,1.2.6Z"/>
          </g>
        </g>
        <g>
          <g>
            <path class="cls-2" d="M116.9,272.8c-.2,0-.3,0-.4-.2s-.2-.2-.2-.4v-9.7l-2.8,2.1c-.2.1-.3.1-.4.1s-.3-.1-.4-.3l-1.6-2.1c0-.1,0-.3,0-.4s.1-.3.2-.4l5.2-4c0,0,.2-.1.2-.1s.2,0,.3,0h3.5c.2,0,.3,0,.4.2.1.1.2.2.2.4v14.3c0,.2,0,.3-.2.4-.1.1-.3.2-.4.2h-3.6,0Z"/>
            <path class="cls-2" d="M126.1,272.8c-.1,0-.2,0-.3-.1,0-.1-.1-.2-.1-.3s0-.1,0-.2,0,0,0-.1l3-4.1c-.1,0-.3,0-.4,0-.6,0-1.2-.2-1.8-.4s-1.2-.6-1.7-1c-.5-.4-1-1-1.3-1.6s-.5-1.4-.5-2.2.1-1.4.4-2.1.7-1.3,1.3-1.8,1.2-1,2.1-1.3,1.8-.5,2.9-.5,2.1.1,2.9.4,1.6.6,2.1,1.1c.6.5,1,1.1,1.3,1.7s.4,1.4.4,2.2-.1,1.3-.4,2c-.3.6-.6,1.2-1,1.8-.4.6-.8,1.1-1.2,1.7l-3.2,4.4c0,0-.1.2-.3.3s-.3.2-.6.2h-3.7ZM129.6,264.6c.4,0,.7,0,1-.2s.5-.4.6-.6c.2-.3.2-.6.2-1s0-.7-.2-1-.4-.5-.7-.6-.6-.2-.9-.2-.7,0-1,.2-.5.4-.7.6c-.2.3-.2.6-.2,1s0,.7.2,1c.2.3.4.5.7.6.3.1.6.2,1,.2Z"/>
            <path class="cls-2" d="M140.6,272.8c-.1,0-.2,0-.3-.1-.1-.1-.1-.2-.1-.3s0-.1,0-.2,0,0,0-.1l3-4.1c-.1,0-.3,0-.4,0-.6,0-1.2-.2-1.8-.4s-1.2-.6-1.7-1c-.5-.4-1-1-1.3-1.6s-.5-1.4-.5-2.2.1-1.4.4-2.1.7-1.3,1.3-1.8,1.2-1,2.1-1.3,1.8-.5,2.9-.5,2.1.1,2.9.4,1.6.6,2.1,1.1c.6.5,1,1.1,1.3,1.7s.4,1.4.4,2.2-.1,1.3-.4,2c-.3.6-.6,1.2-1,1.8-.4.6-.8,1.1-1.2,1.7l-3.2,4.4c0,0-.1.2-.3.3s-.3.2-.6.2h-3.7ZM144.2,264.6c.4,0,.7,0,1-.2s.5-.4.6-.6c.2-.3.2-.6.2-1s0-.7-.2-1-.4-.5-.7-.6-.6-.2-.9-.2-.7,0-1,.2-.5.4-.7.6c-.2.3-.2.6-.2,1s0,.7.2,1,.4.5.7.6c.3.1.6.2,1,.2Z"/>
            <path class="cls-2" d="M155.2,272.8c-.1,0-.2,0-.3-.1-.1-.1-.1-.2-.1-.3s0-.1,0-.2,0,0,0-.1l3-4.1c-.1,0-.3,0-.4,0-.6,0-1.2-.2-1.8-.4s-1.2-.6-1.7-1c-.5-.4-1-1-1.3-1.6s-.5-1.4-.5-2.2.1-1.4.4-2.1.7-1.3,1.3-1.8,1.2-1,2.1-1.3,1.8-.5,2.9-.5,2.1.1,2.9.4,1.6.6,2.1,1.1c.6.5,1,1.1,1.3,1.7s.4,1.4.4,2.2-.1,1.3-.4,2c-.3.6-.6,1.2-1,1.8-.4.6-.8,1.1-1.2,1.7l-3.2,4.4c0,0-.1.2-.3.3s-.3.2-.6.2h-3.7ZM158.8,264.6c.4,0,.7,0,1-.2s.5-.4.6-.6c.2-.3.2-.6.2-1s0-.7-.2-1-.4-.5-.7-.6-.6-.2-.9-.2-.7,0-1,.2-.5.4-.7.6c-.2.3-.2.6-.2,1s0,.7.2,1,.4.5.7.6c.3.1.6.2,1,.2Z"/>
          </g>
          <g>
            <path class="cls-2" d="M419.8,272.6c-.2,0-.3,0-.4-.2s-.2-.2-.2-.4v-1.9c0-.1,0-.3,0-.5,0-.2.2-.5.5-.6l1.3-1.2c1.4-1,2.5-1.9,3.4-2.5s1.6-1.3,2-1.8c.5-.5.7-1,.7-1.4s0-.7-.2-.9-.5-.4-1-.4-.7,0-.9.2-.4.4-.5.6c-.1.2-.2.5-.2.7,0,.2-.2.3-.3.4s-.3.1-.5.1h-3.4c-.1,0-.3,0-.4-.1,0-.1-.1-.2-.1-.3,0-.8.2-1.5.5-2.1s.8-1.2,1.3-1.7,1.2-.9,2-1.1c.8-.3,1.6-.4,2.5-.4s2.4.2,3.3.6,1.6,1,2.1,1.7.8,1.6.8,2.6-.2,1.5-.5,2.1-.9,1.3-1.5,1.9-1.4,1.2-2.3,1.8l-1.1,1.1h5.2c.2,0,.3,0,.4.2.1.1.2.3.2.4v2.8c0,.2,0,.3-.2.4s-.2.2-.4.2h-12Z"/>
            <path class="cls-2" d="M441,272.8c-1.1,0-2-.1-2.8-.4-.8-.3-1.5-.7-2-1.2s-1-1.1-1.2-1.8-.5-1.5-.5-2.3c0-.4,0-.9,0-1.4v-1.6c0-.6,0-1,0-1.4,0-.8.2-1.5.5-2.2.3-.7.7-1.3,1.3-1.8s1.2-.9,2-1.2,1.7-.4,2.8-.4,2,.1,2.8.4,1.5.7,2,1.2,1,1.1,1.3,1.8c.3.7.5,1.4.5,2.2,0,.4,0,.9,0,1.4v1.6c0,.5,0,1,0,1.4,0,.8-.2,1.6-.5,2.3-.3.7-.7,1.3-1.2,1.8-.5.5-1.2.9-2,1.2s-1.8.4-2.8.4h0ZM441,269.1c.6,0,1-.2,1.3-.6.3-.4.4-.9.4-1.5,0-.4,0-.9,0-1.4v-1.5c0-.5,0-1,0-1.4,0-.6-.2-1.1-.4-1.5s-.7-.6-1.3-.6c-.6,0-1,.2-1.3.6s-.4.9-.4,1.5c0,.4,0,.9,0,1.4v1.5c0,.5,0,1,0,1.4,0,.6.2,1.1.4,1.5.3.4.7.6,1.3.6h0Z"/>
            <path class="cls-2" d="M450.1,272.6c-.2,0-.3,0-.4-.2s-.2-.2-.2-.4v-1.9c0-.1,0-.3,0-.5,0-.2.2-.5.5-.6l1.3-1.2c1.4-1,2.5-1.9,3.4-2.5s1.6-1.3,2-1.8c.5-.5.7-1,.7-1.4s0-.7-.2-.9-.5-.4-1-.4-.7,0-.9.2-.4.4-.5.6c-.1.2-.2.5-.2.7,0,.2-.2.3-.3.4s-.3.1-.5.1h-3.4c-.1,0-.3,0-.4-.1,0-.1-.1-.2-.1-.3,0-.8.2-1.5.5-2.1s.8-1.2,1.3-1.7,1.2-.9,2-1.1c.8-.3,1.6-.4,2.5-.4s2.4.2,3.3.6,1.6,1,2.1,1.7.8,1.6.8,2.6-.2,1.5-.5,2.1-.9,1.3-1.5,1.9-1.4,1.2-2.3,1.8l-1.1,1.1h5.2c.2,0,.3,0,.4.2.1.1.2.3.2.4v2.8c0,.2,0,.3-.2.4s-.2.2-.4.2h-12Z"/>
            <path class="cls-2" d="M465,272.6c-.2,0-.3,0-.4-.2s-.2-.2-.2-.4v-1.9c0-.1,0-.3,0-.5,0-.2.2-.5.5-.6l1.3-1.2c1.4-1,2.5-1.9,3.4-2.5s1.6-1.3,2-1.8c.5-.5.7-1,.7-1.4s0-.7-.2-.9-.5-.4-1-.4-.7,0-.9.2-.4.4-.5.6c-.1.2-.2.5-.2.7,0,.2-.2.3-.3.4s-.3.1-.5.1h-3.4c-.1,0-.3,0-.4-.1,0-.1-.1-.2-.1-.3,0-.8.2-1.5.5-2.1s.8-1.2,1.3-1.7,1.2-.9,2-1.1c.8-.3,1.6-.4,2.5-.4s2.4.2,3.3.6,1.6,1,2.1,1.7.8,1.6.8,2.6-.2,1.5-.5,2.1-.9,1.3-1.5,1.9-1.4,1.2-2.3,1.8l-1.1,1.1h5.2c.2,0,.3,0,.4.2.1.1.2.3.2.4v2.8c0,.2,0,.3-.2.4s-.2.2-.4.2h-12Z"/>
          </g>
        </g>
      </g>
    </g>
  </g>
</svg>