<?xml version="1.0" encoding="UTF-8"?>
<svg xmlns="http://www.w3.org/2000/svg" version="1.1" viewBox="0 0 1814.6 552.8">
  <defs>
    <style>
      .cls-1 {
        fill: none;
      }

      .cls-2 {
        stroke: #6cc5c1;
        stroke-miterlimit: 10;
        stroke-width: 3px;
      }

      .cls-2, .cls-3 {
        fill: #6cc5c1;
      }

      .cls-4 {
        fill: #377e81;
      }

      .cls-5 {
        fill: #ffeecd;
      }

      .cls-6 {
        fill: #0f3067;
      }

      .cls-7 {
        fill: #f8921d;
      }

      .cls-8 {
        fill: #db172b;
      }
    </style>
  </defs>
  <!-- Generator: Adobe Illustrator 28.7.1, SVG Export Plug-In . SVG Version: 1.2.0 Build 142)  -->
  <g>
    <g id="Layer_1">
      <g id="Layer_2">
        <g id="Layer_1-2">
          <path class="cls-4" d="M1340.6,508.6h12.5c0,.1,22.6.1,22.6.1,0-18.1,0-75.6-.2-85.1-.5-17-.2-13.5-.6-30.6,0-4.1-.3-5.8-.4-9.9,0-2.1-1.4-3.7-2.8-5.2-6.9-7.6-13.9-15.2-21-22.8-1.5-1.6-3.1-3.1-4.8-4.6-3.3-2.9-6.4-5.8-9.3-9-.3-.4-.8-.8-1.2-1.1-1.4-1.2-3.6-1.5-5.3-.5-.9.5-1.5,1.3-2.1,2.1-9.8,12.7-19.5,25.4-29.3,38.1-.9,1.1-1.3,2.3-1.3,3.7,0,3.5.2,4.6,0,8.1-.7,7.5,0-2.5-.6,5-.5,7.4,0,11.9-.5,19.2-.5,7.4,0,14.8-.5,22.1-.5,7.3,0,14.6-.5,21.9,0,1.9-.2,41.8-.3,48.3h22.8"/>
          <path class="cls-4" d="M1332.9,339.2c3.8,4.4,7.5,8.7,11.3,13.1,6.3,7.3,12.7,14.5,18.9,21.8,3.9,4.5,8.1,8.9,11.5,13.8,1.9,2.7,3.8,3.5,6.8,3.1,1.3-.1,2.7,0,4-.1,1.9-.2,2.8-1.3,2.5-3.2-.2-1.2-.8-2.1-1.6-3-7.3-7.6-14.5-15.2-21.8-22.9-9.2-9.7-18.4-19.3-27.6-29-.5-.5-.9-1.1-1.4-1.6-1.7-2-3.4-2-5,.1-1.3,1.7-2.6,3.4-4,5-11.8,13.9-23.7,27.9-35.5,41.8-1.9,2.2-3.9,4.4-5.8,6.5-.6.7-1.2,1.3-1.3,2.2,0,1.2.4,2,1.5,2.6.3.2.7.3,1,.3,6.4,1.2,5.4,2,9.5-3.2,11.8-15.4,23.6-30.6,35.4-46,.4-.5.7-1,1.6-1.5v.2Z"/>
          <path class="cls-4" d="M1460.6,508.6h12.5c0,.1,22.6.1,22.6.1,0-18.1,0-75.6-.2-85.1-.5-17-.2-13.5-.6-30.6,0-4.1-.3-5.8-.4-9.9,0-2.1-1.4-3.7-2.8-5.2-6.9-7.6-13.9-15.2-21-22.8-1.5-1.6-3.1-3.1-4.8-4.6-3.3-2.9-6.4-5.8-9.3-9-.3-.4-.8-.8-1.2-1.1-1.4-1.2-3.6-1.5-5.3-.5-.9.5-1.5,1.3-2.1,2.1-9.8,12.7-19.5,25.4-29.3,38.1-.9,1.1-1.3,2.3-1.3,3.7,0,3.5.2,4.6,0,8.1-.7,7.5,0-2.5-.6,5-.5,7.4,0,11.9-.5,19.2-.5,7.4,0,14.8-.5,22.1-.5,7.3,0,14.6-.5,21.9,0,1.9-.2,41.8-.3,48.3h22.8"/>
          <path class="cls-4" d="M1452.9,339.2c3.8,4.4,7.5,8.7,11.3,13.1,6.3,7.3,12.7,14.5,18.9,21.8,3.9,4.5,8.1,8.9,11.5,13.8,1.9,2.7,3.8,3.5,6.8,3.1,1.3-.1,2.7,0,4-.1,1.9-.2,2.8-1.3,2.5-3.2-.2-1.2-.8-2.1-1.6-3-7.3-7.6-14.5-15.2-21.8-22.9-9.2-9.7-18.4-19.3-27.6-29-.5-.5-.9-1.1-1.4-1.6-1.7-2-3.4-2-5,.1-1.3,1.7-2.6,3.4-4,5-11.8,13.9-23.7,27.9-35.5,41.8-1.9,2.2-3.9,4.4-5.8,6.5-.6.7-1.2,1.3-1.3,2.2,0,1.2.4,2,1.5,2.6.3.2.7.3,1,.3,6.4,1.2,5.4,2,9.5-3.2,11.8-15.4,23.6-30.6,35.4-46,.4-.5.7-1,1.6-1.5v.2Z"/>
          <path class="cls-4" d="M1573.2,508.6h12.5c0,.1,22.6.1,22.6.1,0-18.1,0-75.6-.2-85.1-.5-17-.2-13.5-.6-30.6,0-4.1-.3-5.8-.4-9.9,0-2.1-1.4-3.7-2.8-5.2-6.9-7.6-13.9-15.2-21-22.8-1.5-1.6-3.1-3.1-4.8-4.6-3.3-2.9-6.4-5.8-9.3-9-.3-.4-.8-.8-1.2-1.1-1.4-1.2-3.6-1.5-5.3-.5-.9.5-1.5,1.3-2.1,2.1-9.8,12.7-19.5,25.4-29.3,38.1-.9,1.1-1.3,2.3-1.3,3.7,0,3.5.2,4.6,0,8.1-.7,7.5,0-2.5-.6,5-.5,7.4,0,11.9-.5,19.2-.5,7.4,0,14.8-.5,22.1-.5,7.3,0,14.6-.5,21.9,0,1.9-.2,41.8-.3,48.3h22.8"/>
          <path class="cls-4" d="M1565.5,339.2c3.8,4.4,7.5,8.7,11.3,13.1,6.3,7.3,12.7,14.5,18.9,21.8,3.9,4.5,8.1,8.9,11.5,13.8,1.9,2.7,3.8,3.5,6.8,3.1,1.3-.1,2.7,0,4-.1,1.9-.2,2.8-1.3,2.5-3.2-.2-1.2-.8-2.1-1.6-3-7.3-7.6-14.5-15.2-21.8-22.9-9.2-9.7-18.4-19.3-27.6-29-.5-.5-.9-1.1-1.4-1.6-1.7-2-3.4-2-5,.1-1.3,1.7-2.6,3.4-4,5-11.8,13.9-23.7,27.9-35.5,41.8-1.9,2.2-3.9,4.4-5.8,6.5-.6.7-1.2,1.3-1.3,2.2,0,1.2.4,2,1.5,2.6.3.2.7.3,1,.3,6.4,1.2,5.4,2,9.5-3.2,11.8-15.4,23.6-30.6,35.4-46,.4-.5.7-1,1.6-1.5v.2Z"/>
          <path class="cls-4" d="M1223.1,507.5h12.5c0,.1,22.6.1,22.6.1,0-18.1,0-75.6-.2-85.1-.5-17-.2-13.5-.6-30.6,0-4.1-.3-5.8-.4-9.9,0-2.1-1.4-3.7-2.8-5.2-6.9-7.6-13.9-15.2-21-22.8-1.5-1.6-3.1-3.1-4.8-4.6-3.3-2.9-6.4-5.8-9.3-9-.3-.4-.8-.8-1.2-1.1-1.4-1.2-3.6-1.5-5.3-.5-.9.5-1.5,1.3-2.1,2.1-9.8,12.7-19.5,25.4-29.3,38.1-.9,1.1-1.3,2.3-1.3,3.7,0,3.5.2,4.6,0,8.1-.7,7.5,0-2.5-.6,5-.5,7.4,0,11.9-.5,19.2-.5,7.4,0,14.8-.5,22.1-.5,7.3,0,14.6-.5,21.9,0,1.9-.2,41.8-.3,48.3h22.8"/>
          <path class="cls-4" d="M1215.4,338.1c3.8,4.4,7.5,8.7,11.3,13.1,6.3,7.3,12.7,14.5,18.9,21.8,3.9,4.5,8.1,8.9,11.5,13.8,1.9,2.7,3.8,3.5,6.8,3.1,1.3-.1,2.7,0,4-.1,1.9-.2,2.8-1.3,2.5-3.2-.2-1.2-.8-2.1-1.6-3-7.3-7.6-14.5-15.2-21.8-22.9-9.2-9.7-18.4-19.3-27.6-29-.5-.5-.9-1.1-1.4-1.6-1.7-2-3.4-2-5,.1-1.3,1.7-2.6,3.4-4,5-11.8,13.9-23.7,27.9-35.5,41.8-1.9,2.2-3.9,4.4-5.8,6.5-.6.7-1.2,1.3-1.3,2.2,0,1.2.4,2,1.5,2.6.3.2.7.3,1,.3,6.4,1.2,5.4,2,9.5-3.2,11.8-15.4,23.6-30.6,35.4-46,.4-.5.7-1,1.6-1.5v.2Z"/>
          <path class="cls-2" d="M302.4,509.9h-22.5c-.1-7.1-.2-13.2,0-15.4,0-1.5-.2-3.1-.4-4.6-.2-1.9-1.4-2.5-3.4-2.2-3.7.5-7.3,1.3-11,2-8.1,1.5-7.6,1.1-7.6,8.3v12h-12.3c0,.1-22.2.1-22.2.1,0-18,0-41,.2-50.4.5-17,.2-13.5.6-30.4,0-4.1.3-5.8.4-9.8,0-2.1,1.4-3.7,2.7-5.2,6.8-7.6,13.7-15.1,20.7-22.7,1.5-1.6,3.1-3.1,4.7-4.6,3.2-2.9,6.3-11.4,9.2-14.5l1.1-1.1c1.4-1.2,3.6-1.5,5.2-.5.9.5,1.5,1.3,2,2.1,9.6,12.6,19.2,30.9,28.9,43.5.9,1.1,1.3,2.3,1.3,3.7,0,3.5-.2,4.5,0,8,.7,7.5,0-2.5.5,5,.5,7.4,0,11.8.5,19.1.5,7.4,0,14.7.5,22s0,14.6.5,21.8c.1,1.9.2,7.3.2,13.8h.2Z"/>
          <path class="cls-8" d="M265.7,370.8c-3.8,4.4-7.5,8.8-11.3,13.2-6.3,7.4-12.6,14.7-18.9,22-3.9,4.6-8.1,9-11.5,14-1.9,2.7-3.9,3.5-6.8,3.2-1.3-.2-2.7,0-4-.1-1.9-.2-2.8-1.3-2.5-3.3.1-1.2.8-2.1,1.6-3,7.3-7.7,14.5-15.4,21.8-23.1,9.2-9.8,18.4-19.5,27.6-29.3.5-.5.9-1.1,1.4-1.6,1.6-2,3.4-2,5,.1,1.3,1.7,2.6,3.4,4,5,11.9,14.1,23.7,28.2,35.5,42.2,1.9,2.2,3.9,4.4,5.8,6.6.6.7,1.2,1.3,1.3,2.3.1,1.2-.4,2.1-1.5,2.6-.3.2-.7.3-1,.3-6.4,1.2-5.5,2-9.5-3.3-11.8-15.5-23.6-31-35.4-46.4-.4-.5-.7-1-1.6-1.5h0Z"/>
          <path class="cls-8" d="M280.1,509.9h-21.9c-.4,0-.8-.3-.7-.7v-20.3c0-3.3-.5-3,7.6-3.7,3.6-.3,7.3-.7,11-.9,2-.1,3.2.1,3.4,1,.2.7.5,1.4.4,2.1-.1,1,0,3.8,0,7,.2,5.6.6,12.6.5,14.4v.7c0,.2-.1.4-.4.4h.1Z"/>
          <path class="cls-5" d="M278.6,446.5c-2.9.2-2,0-4.9.3-2.2.1-2.9.8-2.8,3,0,5.7,0,11.3.4,17,.2,2.9,1.4,3.5,4.3,3.4s6.1-.9,7.9-1c5.3,0,4.3-.7,9.6-1,2.1-.1,3.1-1.3,3.1-3.5-.2-5.1-.5-10.3-.8-15.4-.1-2.4-.9-2.9-3.1-3-4.5-.3-9,0-13.5.2h-.2Z"/>
          <path class="cls-5" d="M227.4,434v-10.1c0-1,.1-2,.6-2.8.5-.9,1.2-1.4,2.3-1.5,5.6-.6,11.2-.5,16.8-.4,2.2,0,3.2,1.1,3.3,3.3,0,3.7,0,7.4-.4,11.1-.3,3.4,0-1.6-.1,1.7,0,3-.7,3.3-3.6,3.8-4.5.7-9.1,0-13.5.9-.6.1-1.2,0-1.9,0-2.4,0-3.4-1-3.4-3.4,0-3.6,0,1.1,0-2.5h-.1Z"/>
          <path class="cls-6" d="M212.5,549.2h0c-.1,0-.2-.3-.3-.4h0c-.1-.2-.2-.4-.3-.6-.2-.5-.2-1.2-.2-1.8l.8,2.7h0Z"/>
          <path class="cls-2" d="M522.3,512.9l-14.9.3c-1.4,0-2.5-1.1-2.5-2.5v-11.3c-.6-24.2,0-48.5-.5-72.8-.2-7.7-.2-15.3-.3-23,0-1,0-2,.1-3,.2-1.9.2-4.8,0-6.6-.4-5.4-.4-10.7,0-16.1,0-.6.2-1.2,0-1.8-.3-.9-.2-1.8-.2-2.6-.5-29.8-.2-59.5-.7-89.3-.4-23.7-.3-110.6-.2-134.3,0-4.3.1-8.7.8-13,.2-1.2.7-2.2,1.4-3.1,3.2-3.9,6.5-7.8,9.9-11.5,7.5-8.1,15-16.1,22.4-24.2,1.1-1.2,2.1-2.5,3.2-3.8,2.2-2.8,4.8-2.8,6.9,0,3.8,5.2,7.6,10.5,11.5,15.6,5.9,7.6,11.6,15.2,17.8,22.6,1.4,1.7,2.2,3.6,2.2,6,0,3.5,0,7,0,10.5.4,11.6.2,86.4.7,98,.4,11.4,0,22.7.5,34.1.5,10.8,0,21.5.5,32.2.5,10.5,0,21,.5,31.4.5,10.6,0,21.3.5,32,.5,10.6,0,21.1.5,31.7s0,21.1.5,31.7,0,21.1.5,31.7c.5,10.7,0,21.3.5,32,0,2,.2,4,.2,6s-.5,1.1-1.1,1.2l-39,1.2"/>
          <path class="cls-8" d="M545.8,90.9c-1,.3-1.4,1.1-1.9,1.7-13.8,15.1-27.5,30.2-41.3,45.3-.4.5-1,.9-1.2,1.4-1,2.3-2.7,2.8-5,2.5-1.5-.2-3-.3-4.5-.3s-2.5-.3-3.1-1.6c-.6-1.4,0-2.6.7-3.7.4-.6,1.1-1.2,1.7-1.7,16.2-16.1,32.4-32.1,48.6-48.2,1.2-1.2,2.3-2.4,3.5-3.7,1.2-1.3,2.6-1.3,4,0,.3.2.5.5.7.8,10.1,13.8,21.1,27,31.6,40.6,3.7,4.8,7.5,9.4,11.3,14.1.5.6,1.1,1.2,1.4,1.9.8,1.5.2,3.2-1.4,3.6-1.8.5-3.6.8-5.5,1-1.5.2-2.2-.9-3-1.9-2.4-3.4-4.8-6.8-7.2-10.2-9.6-13.5-19.1-26.9-28.7-40.4-.2-.3-.4-.6-.7-.9h0v-.2Z"/>
          <path class="cls-8" d="M538.7,231.3h-3.2c-.7-.1-1.5,0-2.3,0h-11.8q-1.8,0-1.8-.7c.2-2.4,0-24.4.6-26.7,0-.4.2-4.6.2-8.4s0-6.2.2-6.6c.2-.9,1.3-1.2,4-1.1,2.8.2,5.6.4,8.4.7,1.2.1,2.5.2,3.7.3,1.3.1,2.1.4,2.2.9,0,.1,0,2.7,0,5.6,0,3.7,0,7.9,0,8,.2,1.8.8,15.7,1,17.5,0,.7.5,4.8.7,7.8,0,1.5-1,2.9-2.3,2.9h0l.2-.2Z"/>
          <path class="cls-5" d="M540.1,374.2v3.2c0,1.8-.8,2.6-2.6,2.8s-1.8,0-2.7,0c-5.8-.6-11.6-1-17.5-1s-2,0-2.9-.5c-1.3-.7-2.2-1.7-2.2-3.4.2-4.8-.3-9.6.4-14.4.3-1.9,0-3.9,0-5.9,0-2.1.6-2.9,2.5-3.6,1.4-.5,2.9-.9,4.4-.4.4.1.9.2,1.3.2,3.9-.2,7.8.8,11.7.6h.3c4.7.1,5.5.9,5.9,5.5.2,2.3.3,4.6.5,6.9.2,3.3.9,6.5.7,9.8h0v.2Z"/>
          <path class="cls-5" d="M555.1,477v-6.9c0-3.1.7-3.8,3.7-4.4,1.2-.3,2.5-.4,3.7-.4h11.2c2,0,3.3,1.1,3.3,3v15.4c0,3-2.5,5-5.4,5-4.4,0-8.8-.7-13.2-.6-2,0-3.1-1.2-3.1-3.2v-8h-.2Z"/>
          <path class="cls-5" d="M566.1,300.5h2.1c2.5,0,3.7-1.4,3-3.8-.9-2.9-2-5.7-3.1-8.5-.5-1.3-1.6-2-3.1-2.2-7.7-1.3-15.3-2.7-22.9-4.1-2.4-.4-4.1,1-3.8,3.4.5,3.5,1,7,1.7,10.4.3,1.3,1,2.5,2.6,2.6.8,0,1.6.4,2.3.4,5.5.4,11.1.8,16.7,1.1,1.7.1,3.3.8,4.5.5h0v.2Z"/>
          <path class="cls-5" d="M525.3,172.8c-1.8.2-4-.6-6.2-.6s-2.5-1.4-2.6-3.2c0-1.6,0-3.2,0-4.8s0-2.3-.3-3.4c-.6-2.9.8-4.4,3.6-4.5,2.6-.1,5.1.4,7.7.6,1.3.1,2.2.8,2.5,2.4.4,2.2.5,4.4.5,6.6s0,2,.2,2.9c.5,2.8-.5,4-3.2,4.1h-2.2Z"/>
          <g>
            <path class="cls-7" d="M122.3,92.1c0,68.3-.2,136.7-.3,205,0,47.2,0,94.3-.2,141.5v48.9c0,6.8-1,14.4,0,21.1,1.4,9.9,13.5,7.5,20.8,7.5h478.8c99.3,0,198.7,0,298,0,101.8,0,203.6,0,305.4,0h582.2c5.8,0,5.8-9,0-9h-167.5c-60.1,0-120.3,0-180.4.1h-220c-80.3.1-160.6.1-240.9.2h-244c-75.8.1-151.7.1-227.5.2h-191.6c-45.9,0-91.9.1-137.8.1s-44,1.7-65.5,0c-1.7-.1-2.1,0-3.5-.6l3.1,3.1c-1.4-3.4-.6-8.2-.6-12v-30.6c0-32.9,0-65.8.1-98.7.1-74.8.2-149.5.3-224.3v-49.8c0-5.8-9-5.8-9,0v-2h0v-.5Z"/>
            <path class="cls-7" d="M126.9,89.7c-.3,0-.4.4-.6.7-4.2,6-8.4,12-12.6,18.1,0,.2-.3.3-.4.6-.3.9-.8,1.1-1.5,1-.5,0-.9,0-1.4,0s-.8,0-.9-.6c-.2-.6,0-1.1.2-1.5,0-.3.3-.5.5-.7,5-6.4,9.9-12.8,14.9-19.2.4-.5.7-1,1.1-1.5s.8-.5,1.2,0c0,0,.2.2.2.3,3.1,5.5,6.5,10.8,9.7,16.2,1.1,1.9,2.3,3.8,3.5,5.6.1.2.3.5.4.8.2.6,0,1.3-.4,1.4-.6.2-1.1.3-1.7.4-.4,0-.7-.4-.9-.8-.7-1.4-1.5-2.7-2.2-4.1-2.9-5.4-5.9-10.7-8.8-16.1,0,0,0-.2-.2-.4h0Z"/>
            <path class="cls-7" d="M1810.8,511.7c0-.3-.4-.4-.7-.6-6-4.2-12-8.4-18.1-12.6-.2-.1-.3-.3-.6-.4-.9-.3-1.1-.8-1-1.5,0-.5,0-.9,0-1.4s0-.8.6-1,1.1,0,1.5.2c.3.1.5.3.7.5,6.4,5,12.8,9.9,19.2,14.9.5.4,1,.7,1.5,1.1s.5.8,0,1.2c0,0-.2.2-.3.2-5.5,3.1-10.8,6.5-16.2,9.7-1.9,1.1-3.8,2.3-5.6,3.5-.2.2-.5.3-.8.4-.6.2-1.3,0-1.4-.4-.2-.5-.3-1.1-.4-1.7,0-.5.4-.7.8-.9,1.4-.7,2.7-1.5,4.1-2.2,5.4-2.9,10.7-5.8,16.1-8.8,0,0,.2-.1.4-.2h.1Z"/>
          </g>
          <path class="cls-7" d="M401.1,355.1c4.7.6,8.1,2.4,10.6,5.8,2.9,4.1,4.8,8.5,4,13.7-.7,4.5-3.1,7.8-7.2,9.8-2.7,1.3-5.7,2-8.6,2.6q-1.9.4-1.7,2.2c.5,5.8.9,11.5,1.9,17.2.4,2.4-.8,3.9-3.3,4.2-1,.1-1.9,0-2.9-.2-1.4-.3-3.2-1.4-3.4-2.8-1.1-6.5-1.2-13-2.1-19.5-.1-1.1-.2-2.3,0-3.5.2-1.8,2.1-2.4,3.9-2.5,2.4-.2,4.6-.9,6.9-1.7,2.7-.9,3.4-.3,5.2-2.5,2-2.5,2-4.6.3-7.2-1.3-1.9-2.8-3.5-4.9-4.4-1.1-.5-.9-.5-2.1-.3-5.6,1-9.5,1.6-12.8,6.2-1.1,1.5-1.3,3.3-1.2,5.1.1,2.6-.9,3.8-3.5,4-.7,0-1.4.1-2.1.2-1.9.2-3-.7-3.3-2.6-.6-4.2.3-8.2,2.6-11.8,4.3-6.8,10.8-10.4,18.6-11.9,1.9-.4,3.8-.5,5.2-.3h0v.2Z"/>
          <path class="cls-7" d="M396.1,426.4c-2.7-.3-4.4-1.6-5-3.6-.6-1.9.1-3.9,1.8-5.1,1.7-1.3,4-1.5,5.8-.4.7.4,1.4.9,2,1.5,2,1.8,1.8,4.5-.3,6.2-1.4,1.1-3.1,1.5-4.3,1.5h0Z"/>
          <g>
            <path class="cls-7" d="M517.5,225.9c-.7,2.5-1.4,5.1-2.1,7.6-1.9,6.9-3.8,13.7-5.6,20.6-2.8,10.2-5.5,20.3-8.3,30.5-3.4,12.4-6.8,24.8-10.2,37.2-3.7,13.6-7.4,27.1-11.1,40.7s-7.5,27.3-11.2,41c-3.5,12.8-7,25.5-10.5,38.3-2.9,10.8-5.9,21.5-8.8,32.3-2.1,7.8-4.2,15.5-6.4,23.3-1,3.7-2.1,7.3-3,11,0,.2,0,.3-.1.5-.5,1.9,2.4,2.7,2.9.8.7-2.5,1.4-5,2.1-7.6,1.9-6.9,3.8-13.7,5.6-20.6,2.8-10.2,5.5-20.3,8.3-30.5,3.4-12.4,6.8-24.8,10.2-37.2,3.7-13.6,7.4-27.1,11.1-40.7s7.5-27.3,11.2-41c3.5-12.8,7-25.5,10.5-38.3,2.9-10.8,5.9-21.5,8.8-32.3,2.1-7.8,4.3-15.5,6.4-23.3,1-3.7,2.1-7.3,3-11,0-.2,0-.3,0-.5.5-1.9-2.4-2.7-2.9-.8h0Z"/>
            <path class="cls-7" d="M538.6,225.3c-.7,2.5-1.4,5.1-2.1,7.6l-5.6,20.7c-2.8,10.2-5.5,20.3-8.3,30.4-3.4,12.4-6.8,24.8-10.2,37.3-3.7,13.6-7.4,27.1-11.1,40.7-3.8,13.7-7.5,27.5-11.2,41.2-3.5,12.8-7,25.6-10.5,38.4-2.9,10.8-5.9,21.6-8.8,32.4-2.1,7.8-4.2,15.5-6.4,23.3-1,3.7-2.1,7.4-3,11.1,0,.2,0,.3-.1.5-.5,1.9,2.4,2.7,2.9.8.7-2.5,1.4-5.1,2.1-7.6,1.9-6.9,3.8-13.8,5.6-20.7,2.8-10.1,5.5-20.3,8.3-30.5,3.4-12.4,6.8-24.8,10.2-37.3,3.7-13.6,7.4-27.1,11.1-40.7s7.5-27.5,11.2-41.2c3.5-12.8,7-25.6,10.5-38.4,2.9-10.8,5.9-21.6,8.8-32.4,2.1-7.8,4.2-15.5,6.3-23.3,1-3.7,2.1-7.4,3-11.1,0-.2,0-.3,0-.5.5-1.9-2.4-2.7-2.9-.8h.1Z"/>
            <path class="cls-7" d="M513.8,245.1h21.2c1.9,0,1.9-3,0-3h-21.2c-1.9,0-1.9,3,0,3h0Z"/>
            <path class="cls-7" d="M507.5,268.2c6.2-.1,12.4-.3,18.6-.4h2.7c1.9,0,1.9-3,0-3-6.2.1-12.4.3-18.6.4h-2.7c-1.9,0-1.9,3,0,3h0Z"/>
            <path class="cls-7" d="M502,288.4c6.2-.1,12.4-.3,18.6-.4h2.7c1.9,0,1.9-3,0-3-6.2.1-12.4.3-18.6.4h-2.7c-1.9,0-1.9,3,0,3h0Z"/>
            <path class="cls-7" d="M496,311.4c6.1-.1,12.1-.3,18.2-.4h2.6c1.9,0,1.9-3,0-3-6.1.1-12.1.3-18.2.4h-2.6c-1.9,0-1.9,3,0,3h0Z"/>
            <path class="cls-7" d="M490.6,331.1c6.2-.1,12.4-.3,18.6-.4h2.7c1.9,0,1.9-3,0-3-6.2.1-12.4.3-18.6.4h-2.7c-1.9,0-1.9,3,0,3h0Z"/>
            <path class="cls-7" d="M484.5,352.3c6.2-.1,12.4-.3,18.6-.4h2.7c1.9,0,1.9-3,0-3-6.2.1-12.4.3-18.6.4h-2.7c-1.9,0-1.9,3,0,3h0Z"/>
            <path class="cls-7" d="M478.7,374.4c6.2-.1,12.4-.3,18.6-.4h2.7c1.9,0,1.9-3,0-3-6.2.1-12.4.3-18.6.4h-2.7c-1.9,0-1.9,3,0,3h0Z"/>
            <path class="cls-7" d="M472.5,397h21.2c1.9,0,1.9-3,0-3h-21.2c-1.9,0-1.9,3,0,3h0Z"/>
            <path class="cls-7" d="M466.6,419.1c6-.1,11.9-.3,17.9-.4h2.6c1.9,0,1.9-3,0-3-6,.1-11.9.3-17.9.4h-2.6c-1.9,0-1.9,3,0,3h0Z"/>
            <path class="cls-7" d="M460.7,439.8c6.2-.1,12.4-.3,18.6-.4h2.7c1.9,0,1.9-3,0-3-6.2.1-12.4.3-18.6.4h-2.7c-1.9,0-1.9,3,0,3h0Z"/>
            <path class="cls-7" d="M455.6,460h20.8c1.9,0,1.9-3,0-3h-20.8c-1.9,0-1.9,3,0,3h0Z"/>
            <path class="cls-7" d="M449.3,482.6h21.2c1.9,0,1.9-3,0-3h-21.2c-1.9,0-1.9,3,0,3h0Z"/>
          </g>
          <path class="cls-2" d="M1192.5,505.2h-22.5c0-7.1-.2-13.2,0-15.4,0-1.5-.2-3.1-.4-4.6-.2-1.9-1.4-2.5-3.4-2.2-3.7.5-7.3,1.3-10.9,2-8.1,1.5-7.6,1.1-7.6,8.3v12h-12.3c0,.1-22.2.1-22.2.1,0-18,0-41,.2-50.4.5-17,.2-13.5.6-30.4,0-4.1.3-5.8.4-9.8,0-2.1,1.3-3.7,2.7-5.2,6.8-7.6,13.7-15.1,20.7-22.7,1.5-1.6,3.1-3.1,4.7-4.6,3.2-2.9,6.3-5.8,9.2-8.9.3-.4.7-.7,1.1-1.1,1.4-1.2,3.6-1.5,5.2-.5.9.5,1.4,1.3,2,2.1,9.6,12.6,19.2,25.3,28.8,37.9.9,1.1,1.3,2.3,1.3,3.7,0,3.5-.2,4.5,0,8,.7,7.5,0-2.5.6,5,.5,7.4,0,11.8.5,19.1.5,7.4,0,14.7.5,22s0,14.6.5,21.8c0,1.9.2,7.3.2,13.8h.1Z"/>
          <path class="cls-3" d="M1282,507.1h12.5c0,.1,22.6.1,22.6.1,0-18.3,0-41.6-.2-51.2-.5-17.2-.2-13.7-.6-30.9,0-4.1-.3-5.8-.4-10,0-2.1-1.4-3.7-2.8-5.3-6.9-7.7-13.9-15.4-21-23-1.5-1.6-3.1-3.2-4.8-4.6-3.3-2.9-6.4-5.9-9.3-9.1-.3-.4-.8-.8-1.2-1.1-1.4-1.2-3.6-1.5-5.3-.5-.9.5-1.5,1.3-2.1,2.1-9.8,12.8-19.5,25.7-29.3,38.5-.9,1.2-1.3,2.3-1.3,3.7,0,3.5.2,4.6,0,8.1-.7,7.6,0-2.5-.6,5.1-.5,7.5,0,12-.5,19.4-.5,7.5,0,14.9-.5,22.4-.5,7.4,0,14.8-.5,22.1,0,1.9-.2,7.4-.3,14h22.8"/>
          <path class="cls-8" d="M1155.8,368.9c-3.8,4.4-7.5,8.8-11.3,13.2-6.3,7.4-12.7,14.7-18.9,22-3.9,4.6-8.1,9-11.5,14-1.9,2.7-3.8,3.5-6.8,3.2-1.3-.2-2.7,0-4-.1-1.9-.2-2.8-1.3-2.5-3.3.2-1.2.8-2.1,1.6-3,7.3-7.7,14.5-15.4,21.8-23.1,9.2-9.8,18.4-19.5,27.6-29.3.5-.5.9-1.1,1.4-1.6,1.7-2,3.4-2,5,.1,1.3,1.7,2.6,3.4,4,5,11.8,14.1,23.7,28.2,35.5,42.2,1.9,2.2,3.9,4.4,5.8,6.6.6.7,1.2,1.3,1.3,2.3,0,1.2-.4,2.1-1.5,2.6-.3.2-.7.3-1,.3-6.4,1.2-5.4,2-9.5-3.3-11.8-15.5-23.6-31-35.4-46.4-.4-.5-.7-1-1.6-1.5h0Z"/>
          <path class="cls-8" d="M1274.3,370.8c3.8,4.4,7.5,8.8,11.3,13.2,6.3,7.4,12.7,14.7,18.9,22,3.9,4.6,8.1,9,11.5,14,1.9,2.7,3.8,3.5,6.8,3.2,1.3-.2,2.7,0,4-.1,1.9-.2,2.8-1.3,2.5-3.3-.2-1.2-.8-2.1-1.6-3-7.3-7.7-14.5-15.4-21.8-23.1-9.2-9.8-18.4-19.5-27.6-29.3-.5-.5-.9-1.1-1.4-1.6-1.7-2-3.4-2-5,.1-1.3,1.7-2.6,3.4-4,5-11.8,14.1-23.7,28.2-35.5,42.2-1.9,2.2-3.9,4.4-5.8,6.6-.6.7-1.2,1.3-1.3,2.3,0,1.2.4,2.1,1.5,2.6.3.2.7.3,1,.3,6.4,1.2,5.4,2,9.5-3.3,11.8-15.5,23.6-31,35.4-46.4.4-.5.7-1,1.6-1.5h0Z"/>
          <path class="cls-8" d="M1170.2,507.1h-21.9c-.4,0-.8-.3-.7-.7v-20.3c0-3.3-.4-3,7.6-3.7,3.6-.3,7.3-.7,10.9-.9,2-.1,3.2.1,3.4,1,.2.7.5,1.4.4,2.1,0,1,0,3.8,0,7,.2,5.6.6,12.6.5,14.4v.7c0,.2,0,.4-.4.4h.2Z"/>
          <path class="cls-8" d="M1279.4,507.3c-6.1,0-11.9.1-18.1,0-.3,0-.6-.5-.6-1.1v-1.1c0-2.1-2.8-14.5-2.8-22.5v-6.5c0-4.9,2.4-5,9.1-6.1,3-.5,6-1,9.1-1.3,1.7-.2,2.6.2,2.8,1.5.2,1,.4,2.1.3,3.1v10.6c.2,8.5.5,19,.4,21.7v1c0,.3,0,.7-.3.7h0Z"/>
          <path class="cls-3" d="M1393.9,506.7h-12.2c0,.1-22,.1-22,.1,0-18.6,0-42.3.2-52.1.5-17.5.2-13.9.6-31.4,0-4.2.3-5.9.4-10.2,0-2.1,1.3-3.8,2.7-5.4,6.8-7.8,13.6-15.6,20.5-23.4,1.5-1.6,3-3.2,4.7-4.7,3.2-3,6.3-6,9.1-9.2.3-.4.7-.8,1.1-1.1,1.4-1.2,3.6-1.5,5.2-.5.9.6,1.4,1.4,2,2.2,9.5,13.1,19.1,26.1,28.6,39.2.9,1.2,1.3,2.4,1.3,3.8,0,3.6-.2,4.7,0,8.3.7,7.8,0-2.6.6,5.1.5,7.6,0,12.2.5,19.8.5,7.6,0,15.2.5,22.8.5,7.5,0,15,.5,22.5,0,1.9.2,7.6.2,14.3h-22.3"/>
          <path class="cls-8" d="M1403.2,367c-4.1,4.1-8.2,8.2-12.3,12.3-6.9,6.8-13.8,13.6-20.6,20.5-4.3,4.3-8.8,8.4-12.6,13-2.1,2.6-4.1,3.2-7.1,2.6-1.3-.3-2.7-.2-4-.4-1.9-.3-2.7-1.5-2.3-3.5.2-1.2,1-2,1.8-2.8,7.9-7.1,15.7-14.2,23.5-21.3,9.9-9,19.9-18,29.9-27l1.5-1.5c1.8-1.9,3.6-1.8,5,.5,1.1,1.8,2.3,3.6,3.6,5.3,10.7,15,21.4,30,32.1,44.9,1.7,2.4,3.5,4.7,5.3,7,.5.7,1.1,1.4,1.1,2.4s-.6,2-1.7,2.5c-.3.1-.7.2-1,.2-6.4.7-5.6,1.6-9.2-4-10.5-16.4-21-32.8-31.6-49.1-.3-.5-.6-1.1-1.5-1.6h0Z"/>
          <path class="cls-8" d="M1409,506.8h16.7c.3,0,.6-.3.5-.7v-20.3c0-3.3.3-3-5.8-3.7-2.8-.3-5.5-.7-8.3-.9-1.6-.1-2.4.1-2.6,1-.2.7-.3,1.4-.3,2.1v7c-.2,5.6-.5,12.6-.4,14.4v.7c0,.2,0,.4.3.4h0Z"/>
          <path class="cls-3" d="M1524.8,506.9h12.5c0,.1,22.6.1,22.6.1,0-18.9,0-43-.2-52.9-.5-17.8-.2-14.1-.6-31.9,0-4.3-.3-6-.4-10.3,0-2.2-1.4-3.9-2.8-5.4-6.9-8-13.9-15.9-21-23.8-1.5-1.7-3.1-3.3-4.8-4.8-3.3-3-6.4-6.1-9.3-9.4-.3-.4-.8-.8-1.2-1.1-1.4-1.3-3.6-1.5-5.3-.5-.9.6-1.5,1.4-2.1,2.2-9.8,13.3-19.5,26.5-29.3,39.8-.9,1.2-1.3,2.4-1.3,3.9,0,3.7.2,4.8,0,8.4-.7,7.9,0-2.6-.6,5.2-.5,7.7,0,12.4-.5,20.1s0,15.4-.5,23.1c-.5,7.6,0,15.3-.5,22.9,0,2-.2,7.7-.3,14.5h22.8"/>
          <path class="cls-8" d="M1519.6,366.9c-3.8,4.4-7.5,8.8-11.3,13.2-6.3,7.4-12.7,14.7-18.9,22-3.9,4.6-8.1,9-11.5,14-1.9,2.7-3.8,3.5-6.8,3.2-1.3-.2-2.7,0-4-.1-1.9-.2-2.8-1.3-2.5-3.3.2-1.2.8-2.1,1.6-3,7.3-7.7,14.5-15.4,21.8-23.1,9.2-9.8,18.4-19.5,27.6-29.3.5-.5.9-1.1,1.4-1.6,1.7-2,3.4-2,5,.1,1.3,1.7,2.6,3.4,4,5,11.8,14.1,23.7,28.2,35.5,42.2,1.9,2.2,3.9,4.4,5.8,6.6.6.7,1.2,1.3,1.3,2.3,0,1.2-.4,2.1-1.5,2.6-.3.2-.7.3-1,.3-6.4,1.2-5.4,2-9.5-3.3-11.8-15.5-23.6-31-35.4-46.4-.4-.5-.7-1-1.6-1.5h0Z"/>
          <path class="cls-8" d="M1522.1,507.1h-18.1c-.3,0-.6-.2-.6-.5v-.6c0-1-2.8-7.1-2.8-11v-3.2c0-2.4,2.4-2.5,9.1-3,3-.2,6-.5,9.1-.7,1.7,0,2.6.1,2.8.8.2.5.4,1,.3,1.5v5.2c.2,4.1.5,9.3.4,10.6v.5c0,.2,0,.3-.3.3h0Z"/>
          <path class="cls-3" d="M1631.4,506.9h-12.9c0,.1-23.3.1-23.3.1,0-18,0-41,.2-50.4.5-17,.2-13.5.6-30.4,0-4.1.3-5.8.5-9.9,0-2.1,1.4-3.7,2.8-5.2,7.2-7.6,8.8-14.2,16.1-21.8,1.6-1.6,3.2-3.1,4.9-4.6,3.4-2.9,8.5-9.5,11.5-12.6.4-.4.8-.8,1.2-1.1,1.5-1.2,3.8-1.5,5.4-.5.9.5,1.5,1.3,2.1,2.1,8.9,11.2,21.8,25.5,34,40.7.9,1.1,1.4,2.3,1.3,3.7,0,3.5-.2,4.5,0,8,.7,7.5,0-2.5.6,5,.5,7.4,0,11.8.6,19.1.6,7.4,0,14.7.6,22s0,14.6.6,21.8c.2,1.9.2,7.3.3,13.8h-23.6"/>
          <path class="cls-8" d="M1637,370.4c3.3,4.8,6.6,9.5,9.9,14.3,5.5,8,11.1,15.9,16.6,23.8,3.4,5,7.2,9.8,10.1,15,1.6,2.9,3.5,3.9,6.5,3.9s2.7.3,4,.3c2,0,2.9-1,2.8-3,0-1.2-.6-2.2-1.3-3.1-6.5-8.4-12.9-16.8-19.3-25.2-8.2-10.6-16.4-21.3-24.6-31.9-.4-.6-.8-1.2-1.2-1.8-1.4-2.2-3.2-2.4-5-.4-1.4,1.6-2.9,3.1-4.4,4.6-13.2,12.8-26.4,25.6-39.6,38.4-2.1,2-4.3,4-6.5,6-.7.6-1.3,1.2-1.5,2.1-.2,1.2.2,2.1,1.2,2.7.3.2.6.3,1,.4,6.2,1.9,5.2,2.6,9.8-2.3,13.2-14.3,26.6-28.4,39.9-42.6.4-.5.8-1,1.8-1.3h-.2Z"/>
          <path class="cls-8" d="M1617.5,506.9c5.6,0,11,.2,16.7,0,.3,0,.6-.7.5-1.5v-42.8c0-6.9.3-6.4-5.8-7.9-2.8-.7-5.5-1.4-8.3-1.9-1.6-.2-2.4.3-2.6,2.1-.2,1.5-.3,2.9-.3,4.4v14.8c-.2,11.8-.5,26.6-.4,30.4v1.4c0,.4,0,.9.3.9h0Z"/>
          <path class="cls-7" d="M390.9,447.1c-2.2,1.2-3.2,2.2-3.6,2.6-.9.9-2.2,2.3-2.5,4.3-.5,2.9,1.5,5.7,3.5,7.2,2.4,1.7,4.9,1.6,7.3,1.5,1.7,0,6-.2,9.7-3.5,1.1-.9,3.8-3.4,4.1-7.2,0-.7.4-4.4-2-6.5-1.7-1.5-3.9-1.3-7.4-1.1-4.5.3-7.6,1.9-9.1,2.7h0Z"/>
          <path class="cls-7" d="M434.1,479.5c-2.2-4.2-3.3-6.3-5.4-8.2-.7-.7-2.8-2.5-7.5-4.4-7.4-3-14.4-3.3-17.1-3.1h-2.5c-1.2,0-3.4.1-6.2.8-3,.7-6,1.5-8.5,3.6-1.2,1.1-2.2,2.4-2.9,3.7-.2.1-.5.3-.8.4-1.6.7-4,.2-8.7-.8-1.1-.2-2.4-.5-3.4-.8-1-.2-1.8-.5-1.8-.5,0,0,3.4-1.8,6.6-3.6,5.2-2.9,6.5-3.9,6.8-5.4,0-.4.2-1.3,0-2.5-.2-1-.5-1.8-.8-2.5-.8-1.7-1.3-2.6-1.8-2.9-.9-.5-2.4-.1-11.6,8-1.5,1.4-3.2,2.8-4.9,5.1-1.9,2.6-3,4.1-2.6,5.7.6,2.6,4.7,3.9,8.7,5.1,6.1,1.9,9.9,1.6,11.6,3.3-1,5.6-.6,11.9.3,23.2.3,4.2.9,9.3.8,9.7h0c.2.4,2.6.2,2.8.2,5.3-.5,26.9-1.5,32.4-2.1,1-.1,1.1-4.3,1.1-5.7v-7.6c1.1-1.3,2.5-2.4,9.5-5.1,7.3-2.9,8.7-2.9,9.3-4.6.6-1.6-.7-4.1-3.3-9h-.1ZM429.8,482.6c0,.5-.4.8-1.1,1.4-2.8,2.1-5.7,2.7-6.6,2.9-1.1.3-2.4.7-3.6,1.4-.2-3.8-.5-8-1-12.9v-.8c.9.5,1.6,1.1,5.1,3.1,4.9,2.8,7.4,3.6,7.4,4.9h-.2Z"/>
          <path class="cls-7" d="M706.5,254.1c1.9,0,1.9-3,0-3s-1.9,3,0,3h0Z"/>
          <path class="cls-7" d="M902,177.6c1.9,0,1.9-3,0-3s-1.9,3,0,3h0Z"/>
          <g>
            <path class="cls-7" d="M172.8,467.3c-1.6.2-4.4.7-7.4,2.8-.6.4-3.2,2.3-5.2,6-2.8,4.9-2.9,9.9-3.1,14.8-.2,6.2.1,6.2.4,12,.5,11.5-.6,8,1.1,8.3,3.3.7.8,0,8.7.4,4.9.2,5.2-.6,7.5-.8,9.7-.8,12.8,0,16.4-1.5.8-.3,0,0,.1-2.8.4-9.6.7-7.1-.5-20.8-.8-8.8-1.7-10.7-2.5-12-2.1-3.3-4.9-4.8-5.7-5.2-4-2-7.6-1.5-9.7-1.2h-.1Z"/>
            <path class="cls-7" d="M165.7,448.5c-.2.2-1.4.9-2.6,2.3-1.1,1.2-2.4,2.6-2.6,4.4-.4,3.1,2.4,5.6,2.8,6,3.7,3.3,9.2,2.1,11.8,1.5,2.9-.6,5.9-1.3,7.3-3.9,1.4-2.7.1-5.6-.2-6.5-1.4-3.3-4.2-4.7-5.1-5.1-5.3-2.4-10.5.9-11.2,1.3h-.2Z"/>
            <path class="cls-7" d="M150.4,449.7c-1-.2-2.7-.6-4.6.2-.6.3-2.8,1.2-3.5,3.2-1,2.7,1.6,4.6,4.1,12.2,1.1,3.3.9,3.8,1.9,6.1.3.8,1.7,3.6,4.4,6.7,1.3,1.4,2.2,2.5,3.8,3.5,1.2.8,4,2.5,7.3,1.7.4-.1,3.7-1,4-2.9.3-2-3.1-2.9-6.8-6.9-1.5-1.6-5.9-6.6-6.3-13.1-.3-4.2,1.2-7-.5-9-1-1.1-2.4-1.4-3.6-1.7h-.2Z"/>
            <path class="cls-7" d="M183.5,474.7c.7-2.2,3.2-1.6,5.2-4.2,1.8-2.4,1.9-5.5,1.9-7.3,0-3.5-1-4.1-1.7-9.3-.4-3.5-.6-5.4.3-6.7,1.9-2.7,6.3-1.4,6.5-1.3.7.2,3.5,1.1,4.7,3.8,1,2.4-.4,3.7-1,9.2-.7,5.8.5,7.2-.9,11.2-.3.8-1,2.7-2.5,4.7-.7,1-2.5,3.2-5.4,4.4-1.8.7-4,1.6-5.6.2-1.2-1-2-3.1-1.4-4.8h-.1Z"/>
          </g>
          <path class="cls-8" d="M1132.3,389.3l-5.8,4.9c-.9,0-1.6-.7-1.6-1.6v-30c0-.9.7-1.6,1.6-1.6h11.6c.9,0,1.6.7,1.6,1.6v20.5c-2.5,0-4.9,4.9-7.4,6.1h0Z"/>
          <path class="cls-1" d="M1132.3,350.4c-.2,0-1.5-33.4,19.5-61.4,12.7-17,29.6-25.6,63.3-42.8,37.9-19.4,49.7-19.4,60.5-35.4,8.3-12.3,15.6-33.4,7.4-49.3-8.7-17-26.4-11.5-49.3-29.8-3.8-3.1-37.5-30.6-32.6-66.1,3.1-22.2,21.3-47.5,43.7-48.4,22.1-.9,40.8,22.3,42.8,25.1,1.7,2.3,2.6,4,2.6,4,3.5,6.1,3.4,9.7,4.8,10,2.4.5,6.1-8.8,8.4-14,4.5-10.4,11.8-24.1,16.8-29.8,14.7-16.8,57.1-18,75.4,3.7,9.2,10.9,9.8,24.5,10.2,32.6.3,6.8.2,23.9-10.2,40-8.8,13.6-18,15.8-40.9,32.6-19.2,14-28.6,21.4-32.6,27-13,18.4-9.3,31.8-27,55.8-2.5,3.4-5.8,7.9-11.2,13-12.7,12.2-24,16.1-42.8,24.2-25.3,10.9-38.9,16.7-54.9,27.9-9.1,6.4-18.3,13.9-27,24.2-6.8,8-10.9,14.8-12.1,16.8-12.5,21-14.8,40-14.9,40h0Z"/>
          <path class="cls-7" d="M111.7,482.4c-.3-.6-.5-1.3-.8-2-1-2.1-2.6-3.8-5.2-4.9-1.9-.8-4-1.2-6.2-1.4-1.3,0-2.5-.1-3.8-.1s-.4,0-.5-.3h0c-.6-2.2-1.1-4.4-1.7-6.6-.2-.8-.4-1.5-.6-2.3,0-.2,0-.3.3-.3h.6c1.3,0,2.7.2,3.9.6.7.2,1.3.5,1.8.8s.9.7,1.4,1c.3.2.6.3,1,.2.2,0,.4-.1.6-.2.7-.4,1-1,1.3-1.6s0-.4-.3-.7c-.5-.3-1.1-.5-1.7-.7-1.6-.5-3.2-1.1-5-1.2-1.4-.1-2.7-.4-4.1-.4s-.3,0-.3-.3c0-.6-.2-1.2-.3-1.8,0-.8-.3-1.5-.4-2.3,0-.4,0-.9-.2-1.3,0-.6-.5-.8-1.2-.8s-.9.3-.8.8v.2c.4,1.8.9,3.5,1.4,5.3q0,.3-.3.4c-1.3.1-2.6.3-3.9.5-.4,0-.5,0-.5-.3v-2.3h0v-2.2c0-.3,0-.5,0-.8-.2-.5-.7-.8-1.3-.6-.6.1-1.1.2-1.7.4-.2,0-.3.1-.4.2,0,.3-.2.5,0,.8,0,.1,0,.3.2.4.7,1.5,1,3.2,1.8,4.8,0,.1,0,.2,0,.2-.2,0-.5.2-.7.2-1.2.4-2.3.8-3.3,1.4-1.1.7-2.1,1.5-2.9,2.4-1.1,1.1-1.8,2.4-2,3.8s.5,2.6,2.1,3.2c.9.4,1.8.6,2.8.8,1.6.3,3.2.4,4.8.4h1.5c.2,0,.3.1.4.3,0,.3,0,0,0,0,.2,1.5.5,2.9.8,4.4.5,2.7.9,5.4,1.4,8,0,.3,0,.5,0,.8q0,.2-.2.1h-.2c-.5-.2-.9-.4-1.4-.6-2.6-1.1-5-2.3-7.3-3.6-.6-.3-1.2-.7-1.8-1-.6-.3-1.4-.1-1.7.5v.2c-.4,1.5-.8,3-.9,4.6,0,.3,0,.6.3.9,0,.1.2.2.4.3,1.6,1.3,3.5,2.3,5.7,2.9,1.8.5,3.6.7,5.5.7h2.2q.4,0,.4.3c.2,1.4.5,2.9.8,4.3,0,.6.2,1.3.3,2,0,.4.4.6.9.6s.8,0,1.2-.1c.7-.1.9-.5.7-1-.5-1.2-.9-2.5-1.3-3.7-.2-.7-.5-1.5-.8-2.1,0-.3,0-.3.3-.4h0c1.5,0,3-.2,4.5-.4.5,0,.9-.1,1.4-.2q.4,0,.5.3v.5c0,.8.2,1.7.3,2.5,0,1,.3,1.9.2,2.9,0,.3.3.5.7.5h.4c.7,0,1.4,0,2.1-.2.6-.2.7-.4.5-.9-.5-1-1-1.9-1.5-2.9-.5-.9-.9-1.8-1.2-2.7,0-.3,0-.3.3-.4h0c2.1-.4,4.1-.9,6.1-1.6,1.2-.5,2.2-1,3.2-1.7.2-.1.3-.2.4-.4.7-1,1.2-2,1.4-3,.3-1.3.4-2.6-.2-3.9h0l-.2-.2ZM86.5,474c-.3,0-.6-.2-.9-.3-1.6-.5-2.5-1.5-2.9-2.8,0-.3,0-.6,0-.9,0-.6,0-1.1.4-1.6.3-.6.7-1.2,1.2-1.7.2-.2.5-.5.8-.6.2-.1.3,0,.3.1.2,1.1.4,2.1.6,3.2.3,1.5.5,2.9.8,4.4h0c0,.2,0,.3-.2.2h0ZM88.2,473.9c-.2-1-.4-2-.6-2.9-.3-1.4-.5-2.7-.8-4,0-.4-.2-.9-.2-1.3s0-.3.2-.3c.9-.3,1.8-.5,2.8-.6.6,0,1.1-.1,1.7-.2q.3,0,.4.2c.5,1.8,1,3.7,1.4,5.5.3,1.1.6,2.2.8,3.2q0,.5-.4.5c-1,0-2,0-3,.1h-2.1c-.4,0-.3,0-.3-.2h0ZM98.2,491.2c-2.2.1-4.3,0-6.4-.7-.3,0-.4-.2-.5-.5-.4-2.2-.8-4.5-1.3-6.7-.4-1.9-.7-3.8-1.1-5.7,0-.5-.2-1-.3-1.5q0-.3.3-.3h5.2q.4,0,.4.3c.7,2.6,1.3,5.1,2,7.7.6,2.4,1.2,4.7,1.8,7.1q0,.4-.4.4h.3ZM106.2,486c-.2.5-.4.8-.4.9-.3.7-.6,1.2-1.1,1.7-.8.9-1.7,1.3-2.2,1.6-.4.2-.6.3-1.1.5-.4.1-.8.2-1.2.3q-.3,0-.4-.2c-.2-.8-.4-1.6-.7-2.5-.8-3.2-1.7-6.3-2.5-9.5-.2-.9-.5-1.8-.7-2.8q0-.3.3-.3h1c1.5,0,3,.1,4.5.4.5,0,1,.2,1.5.4.7.2,1.2.6,1.6,1,.4.5.7.9,1.3,2.1.6,1.3.8,1.9.9,2.3.3,1.5-.2,2.8-.7,4.1h-.1Z"/>
          <g>
            <path class="cls-7" d="M36.2,148.1c-.3-.6-.5-1.3-.8-2-1-2.1-2.6-3.8-5.2-4.9-1.9-.8-4-1.2-6.2-1.4-1.3,0-2.5-.1-3.8-.1s-.4,0-.5-.3h0c-.6-2.2-1.1-4.4-1.7-6.6-.2-.8-.4-1.6-.6-2.3,0-.2,0-.3.3-.3h.6c1.3,0,2.7.2,3.9.6.7.2,1.3.5,1.8.8s.9.7,1.4,1c.3.2.6.3,1,.2.2,0,.4-.1.6-.2.6-.4,1-1,1.3-1.6q.1-.4-.3-.7c-.5-.3-1.1-.5-1.6-.7-1.6-.5-3.2-1.1-5-1.2-1.4-.1-2.7-.4-4.1-.4s-.3,0-.3-.3c0-.6-.2-1.2-.3-1.8-.1-.8-.3-1.5-.4-2.3,0-.4-.1-.9-.2-1.3-.1-.6-.5-.8-1.2-.8s-.9.3-.8.8v.2c.4,1.8.9,3.5,1.4,5.3q0,.3-.3.4c-1.3.1-2.6.3-3.9.5-.4,0-.5,0-.5-.3v-2.3h0v-2.2c0-.3,0-.5-.1-.8-.2-.5-.7-.8-1.3-.6-.6,0-1.1.2-1.7.4-.2,0-.3,0-.4.2,0,.3-.2.5,0,.8,0,0,0,.3.2.4.7,1.6,1,3.2,1.8,4.8,0,.1,0,.2-.1.2-.2,0-.5.2-.7.2-1.2.4-2.3.8-3.3,1.4-1.1.7-2.1,1.5-2.9,2.4-1.1,1.1-1.8,2.4-2,3.8-.2,1.4.5,2.6,2.1,3.2.9.4,1.8.6,2.7.8,1.6.3,3.2.4,4.8.4h1.5c.3,0,.4.1.4.3,0,.3,0,0,0,0,.2,1.4.5,2.9.8,4.4.5,2.7.9,5.4,1.4,8.1,0,.3.1.5.1.8s0,.2-.2.1h-.2c-.5-.2-.9-.4-1.4-.6-2.6-1.1-5-2.3-7.3-3.6-.6-.3-1.2-.7-1.8-1-.6-.3-1.4-.1-1.7.4,0,0,0,.2-.1.2-.4,1.5-.8,3-.9,4.6,0,.3,0,.6.3.9.1.1.2.2.4.3,1.6,1.3,3.5,2.3,5.7,2.9,1.8.4,3.6.7,5.5.7h2.2q.4,0,.4.3c.2,1.4.5,2.9.8,4.3.1.6.2,1.3.3,2,0,.4.4.6.9.6s.8,0,1.2-.1c.7-.1.9-.5.7-1-.5-1.2-.9-2.5-1.3-3.7-.2-.7-.5-1.4-.8-2.1-.1-.3,0-.3.3-.4h.1c1.5,0,3-.2,4.5-.4.5,0,.9-.1,1.4-.2q.4,0,.5.3v.5c.1.8.2,1.7.3,2.5,0,1,.3,1.9.1,2.9,0,.3.3.5.7.5h.4c.7,0,1.4,0,2.1-.2.6-.2.7-.4.5-.9-.5-.9-1-1.9-1.5-2.9-.5-.9-.9-1.8-1.2-2.7q-.1-.3.3-.4h0c2.1-.4,4.1-.9,6.1-1.6,1.2-.4,2.2-1,3.2-1.7.2-.1.3-.2.4-.4.7-.9,1.2-2,1.4-3,.3-1.3.5-2.6-.2-3.9h0v-.2ZM11,139.6c-.3,0-.6-.2-.9-.3-1.6-.6-2.5-1.5-2.9-2.8,0-.3,0-.6,0-.9,0-.6,0-1.1.4-1.6.3-.6.7-1.2,1.2-1.7.2-.2.5-.5.8-.6.2-.1.3,0,.3.1.2,1.1.4,2.1.6,3.2.3,1.4.5,2.9.8,4.4h0c0,.2,0,.3-.2.2h0ZM12.7,139.5c-.2-1-.4-1.9-.6-2.9-.3-1.4-.5-2.7-.8-4.1,0-.4-.1-.9-.2-1.3,0-.2,0-.3.2-.3.9-.3,1.8-.5,2.8-.6.6,0,1.1-.1,1.7-.2q.3,0,.4.2c.5,1.8,1,3.7,1.5,5.5.3,1.1.6,2.2.9,3.2.1.5.1.4-.4.5-1,0-2,0-3,.1h-2.1c-.4,0-.3,0-.3-.2h0ZM22.6,156.8c-2.2.1-4.3,0-6.4-.7-.3,0-.4-.2-.5-.5-.4-2.2-.9-4.5-1.3-6.7-.4-1.9-.7-3.8-1.1-5.7,0-.5-.2-1-.3-1.5q0-.3.3-.3h5.2q.4,0,.5.3c.7,2.6,1.4,5.1,2,7.7.6,2.4,1.2,4.7,1.9,7.1.1.4,0,.4-.4.4h.1ZM30.6,151.7c-.2.4-.4.8-.4.9-.4.7-.6,1.2-1.1,1.7-.8.9-1.7,1.3-2.2,1.6-.4.2-.6.3-1.1.5-.4.1-.8.2-1.2.3q-.3,0-.4-.2c-.2-.8-.4-1.6-.6-2.5l-2.5-9.5c-.2-.9-.5-1.8-.7-2.8q0-.3.3-.3h1c1.5,0,3,.1,4.5.4.5,0,1,.2,1.5.4.7.2,1.1.6,1.6,1,.4.5.7.9,1.3,2.1.5,1.3.8,1.9.9,2.3.3,1.5-.2,2.8-.7,4.1h-.2Z"/>
            <path class="cls-7" d="M73.2,148.1c-.3-.6-.5-1.3-.8-2-1-2.1-2.6-3.8-5.2-4.9-1.9-.8-4-1.2-6.2-1.4-1.3,0-2.5-.1-3.8-.1s-.4,0-.5-.3h0c-.6-2.2-1.1-4.4-1.7-6.6-.2-.8-.4-1.6-.6-2.3,0-.2,0-.3.3-.3h.6c1.3,0,2.7.2,3.9.6.7.2,1.3.5,1.8.8s.9.7,1.4,1c.3.2.6.3,1,.2.2,0,.4-.1.6-.2.7-.4,1-1,1.3-1.6.2-.4,0-.4-.3-.7-.5-.3-1.1-.5-1.7-.7-1.6-.5-3.2-1.1-5-1.2-1.4-.1-2.7-.4-4.1-.4s-.3,0-.3-.3c0-.6-.2-1.2-.3-1.8,0-.8-.3-1.5-.4-2.3,0-.4,0-.9-.2-1.3,0-.6-.5-.8-1.2-.8s-.9.3-.8.8v.2c.5,1.8.9,3.5,1.4,5.3q0,.3-.3.4c-1.3.1-2.6.3-3.9.5-.4,0-.5,0-.5-.3v-2.3h0v-2.2c0-.3,0-.5,0-.8-.2-.5-.7-.8-1.3-.6-.6,0-1.1.2-1.7.4-.2,0-.3,0-.4.2,0,.3-.2.5,0,.8,0,0,0,.3.2.4.7,1.6,1,3.2,1.8,4.8,0,.1,0,.2,0,.2-.2,0-.5.2-.7.2-1.2.4-2.3.8-3.3,1.4-1.1.7-2.1,1.5-2.9,2.4-1.1,1.1-1.8,2.4-2,3.8-.2,1.4.5,2.6,2.1,3.2.9.4,1.8.6,2.8.8,1.6.3,3.2.4,4.8.4h1.5c.2,0,.3.1.4.3.1.3,0,0,0,0,.2,1.4.5,2.9.8,4.4.5,2.7,1,5.4,1.4,8.1,0,.3,0,.5,0,.8q0,.2-.2.1h-.2c-.5-.2-.9-.4-1.4-.6-2.5-1.1-5-2.3-7.3-3.6-.6-.3-1.2-.7-1.8-1s-1.4-.1-1.7.4v.2c-.4,1.5-.8,3-.9,4.6,0,.3,0,.6.3.9,0,.1.2.2.4.3,1.6,1.3,3.5,2.3,5.7,2.9,1.8.4,3.6.7,5.5.7h2.2q.4,0,.4.3c.2,1.4.5,2.9.8,4.3,0,.6.2,1.3.3,2,0,.4.4.6.9.6s.8,0,1.2-.1c.7-.1.9-.5.7-1-.5-1.2-.9-2.5-1.3-3.7-.2-.7-.5-1.4-.8-2.1,0-.3,0-.3.3-.4h0c1.5,0,3-.2,4.5-.4.5,0,.9-.1,1.4-.2q.4,0,.5.3v.5c0,.8.2,1.7.3,2.5,0,1,.3,1.9.2,2.9,0,.3.3.5.7.5h.4c.7,0,1.4,0,2.1-.2.6-.2.7-.4.5-.9-.5-.9-1-1.9-1.5-2.9-.5-.9-.9-1.8-1.2-2.7,0-.3,0-.3.3-.4h0c2.1-.4,4.1-.9,6.1-1.6,1.2-.4,2.2-1,3.2-1.7.2-.1.3-.2.4-.4.7-.9,1.2-2,1.4-3,.3-1.3.4-2.6-.2-3.9h0l-.2-.2ZM48.1,139.6c-.3,0-.6-.2-.9-.3-1.5-.6-2.5-1.5-2.9-2.8,0-.3,0-.6,0-.9,0-.6,0-1.1.4-1.6.3-.6.7-1.2,1.2-1.7.2-.2.5-.5.8-.6.2-.1.3,0,.3.1.2,1.1.4,2.1.6,3.2.3,1.4.5,2.9.8,4.4h0c0,.2,0,.3-.2.2h0ZM49.8,139.5c-.2-1-.4-1.9-.6-2.9-.3-1.4-.5-2.7-.8-4.1,0-.4-.2-.9-.2-1.3s0-.3.2-.3c.9-.3,1.8-.5,2.8-.6.6,0,1.1-.1,1.7-.2q.3,0,.4.2c.5,1.8,1,3.7,1.5,5.5.3,1.1.6,2.2.8,3.2,0,.5,0,.4-.4.5-1,0-2,0-3,.1h-2.1c-.4,0-.3,0-.3-.2h0ZM59.8,156.8c-2.2.1-4.3,0-6.4-.7-.3,0-.4-.2-.5-.5-.4-2.2-.8-4.5-1.3-6.7-.4-1.9-.7-3.8-1.1-5.7,0-.5-.2-1-.3-1.5q0-.3.3-.3h5.2q.4,0,.5.3c.7,2.6,1.3,5.1,2,7.7.6,2.4,1.2,4.7,1.8,7.1q0,.4-.4.4h.2ZM67.8,151.7c-.2.4-.4.8-.4.9-.3.7-.6,1.2-1.1,1.7-.8.9-1.7,1.3-2.2,1.6-.4.2-.6.3-1.1.5-.4.1-.8.2-1.2.3q-.3,0-.4-.2c-.2-.8-.4-1.6-.7-2.5-.8-3.2-1.7-6.3-2.5-9.5-.2-.9-.5-1.8-.7-2.8q0-.3.3-.3h1c1.5,0,3,.1,4.5.4.5,0,1,.2,1.5.4.7.2,1.2.6,1.6,1,.4.5.7.9,1.3,2.1.6,1.3.8,1.9.9,2.3.3,1.5-.2,2.8-.7,4.1h-.1Z"/>
            <path class="cls-7" d="M110.4,148.1c-.3-.6-.5-1.3-.8-2-1-2.1-2.6-3.8-5.2-4.9-1.9-.8-4-1.2-6.2-1.4-1.3,0-2.5-.1-3.8-.1s-.4,0-.5-.3h0c-.6-2.2-1.1-4.4-1.7-6.6-.2-.8-.4-1.6-.6-2.3,0-.2,0-.3.3-.3h.6c1.3,0,2.7.2,3.9.6.7.2,1.3.5,1.8.8s.9.7,1.4,1c.3.2.6.3,1,.2.2,0,.4-.1.6-.2.7-.4,1-1,1.3-1.6s0-.4-.3-.7c-.5-.3-1.1-.5-1.7-.7-1.6-.5-3.2-1.1-5-1.2-1.4-.1-2.7-.4-4.1-.4s-.3,0-.3-.3c0-.6-.2-1.2-.3-1.8,0-.8-.3-1.5-.4-2.3,0-.4,0-.9-.2-1.3,0-.6-.5-.8-1.2-.8s-.9.3-.8.8v.2c.4,1.8.9,3.5,1.4,5.3q0,.3-.3.4c-1.3.1-2.6.3-3.9.5-.4,0-.5,0-.5-.3v-2.3h0v-2.2c0-.3,0-.5,0-.8-.2-.5-.7-.8-1.3-.6-.6,0-1.1.2-1.7.4-.2,0-.3,0-.4.2,0,.3-.2.5,0,.8,0,0,0,.3.2.4.7,1.6,1,3.2,1.8,4.8,0,.1,0,.2,0,.2-.2,0-.5.2-.7.2-1.2.4-2.3.8-3.3,1.4-1.1.7-2.1,1.5-2.9,2.4-1.1,1.1-1.8,2.4-2,3.8-.2,1.4.5,2.6,2.1,3.2.9.4,1.8.6,2.8.8,1.6.3,3.2.4,4.8.4h1.5c.2,0,.3.1.4.3,0,.3,0,0,0,0,.2,1.4.5,2.9.8,4.4.5,2.7.9,5.4,1.4,8.1,0,.3,0,.5,0,.8q0,.2-.2.1h-.2c-.5-.2-.9-.4-1.4-.6-2.6-1.1-5-2.3-7.3-3.6-.6-.3-1.2-.7-1.8-1-.6-.3-1.4-.1-1.7.4v.2c-.4,1.5-.8,3-.9,4.6,0,.3,0,.6.3.9,0,.1.2.2.4.3,1.6,1.3,3.5,2.3,5.7,2.9,1.8.4,3.6.7,5.5.7h2.2q.4,0,.4.3c.2,1.4.5,2.9.8,4.3,0,.6.2,1.3.3,2,0,.4.4.6.9.6s.8,0,1.2-.1c.7-.1.9-.5.7-1-.5-1.2-.9-2.5-1.3-3.7-.2-.7-.5-1.4-.8-2.1,0-.3,0-.3.3-.4h0c1.5,0,3-.2,4.5-.4.5,0,.9-.1,1.4-.2q.4,0,.5.3v.5c0,.8.2,1.7.3,2.5,0,1,.3,1.9.2,2.9,0,.3.3.5.7.5h.4c.7,0,1.4,0,2.1-.2.6-.2.7-.4.5-.9-.5-.9-1-1.9-1.5-2.9-.5-.9-.9-1.8-1.2-2.7,0-.3,0-.3.3-.4h0c2.1-.4,4.1-.9,6.1-1.6,1.2-.4,2.2-1,3.2-1.7.2-.1.3-.2.4-.4.7-.9,1.2-2,1.4-3,.3-1.3.4-2.6-.2-3.9h0l-.2-.2ZM85.2,139.6c-.3,0-.6-.2-.9-.3-1.6-.6-2.5-1.5-2.9-2.8,0-.3,0-.6,0-.9,0-.6,0-1.1.4-1.6.3-.6.7-1.2,1.2-1.7s.5-.5.8-.6c.2-.1.3,0,.3.1.2,1.1.4,2.1.6,3.2.3,1.4.5,2.9.8,4.4h0c0,.2,0,.3-.2.2h0ZM86.9,139.5c-.2-1-.4-1.9-.6-2.9-.3-1.4-.5-2.7-.8-4.1,0-.4-.2-.9-.2-1.3s0-.3.2-.3c.9-.3,1.8-.5,2.8-.6.6,0,1.1-.1,1.7-.2q.3,0,.4.2c.5,1.8,1,3.7,1.4,5.5.3,1.1.6,2.2.8,3.2,0,.5,0,.4-.4.5-1,0-2,0-3,.1h-2.1c-.4,0-.3,0-.3-.2h0ZM96.8,156.8c-2.2.1-4.3,0-6.4-.7-.3,0-.4-.2-.5-.5-.4-2.2-.8-4.5-1.3-6.7-.4-1.9-.7-3.8-1.1-5.7,0-.5-.2-1-.3-1.5q0-.3.3-.3h5.2q.4,0,.4.3c.7,2.6,1.3,5.1,2,7.7.6,2.4,1.2,4.7,1.8,7.1q0,.4-.4.4h.3ZM104.9,151.7c-.2.4-.4.8-.4.9-.3.7-.6,1.2-1.1,1.7-.8.9-1.7,1.3-2.2,1.6-.4.2-.6.3-1.1.5-.4.1-.8.2-1.2.3q-.3,0-.4-.2c-.2-.8-.4-1.6-.7-2.5-.8-3.2-1.7-6.3-2.5-9.5-.2-.9-.5-1.8-.7-2.8q0-.3.3-.3h1c1.5,0,3,.1,4.5.4.5,0,1,.2,1.5.4.7.2,1.2.6,1.6,1,.4.5.7.9,1.3,2.1.6,1.3.8,1.9.9,2.3.3,1.5-.2,2.8-.7,4.1h-.1Z"/>
          </g>
          <g>
            <path class="cls-7" d="M229.4,552.4c-.2,0-.5,0-.6-.2s-.2-.4-.2-.6v-15l-4.2,3.3c-.2.2-.4.2-.7.2s-.4-.2-.6-.4l-2.5-3.2c-.1-.2-.1-.4-.1-.7s.2-.4.4-.6l8-6.2c.1,0,.2-.2.3-.2h5.7c.2,0,.5,0,.6.2.2.2.3.4.3.6v22c0,.2,0,.5-.3.6-.2.2-.4.2-.6.2h-5.5,0Z"/>
            <path class="cls-7" d="M243.5,552.4c-.2,0-.4,0-.5-.2s-.2-.3-.2-.5v-.3s0,0,.1-.2l4.6-6.3h-.6c-.9,0-1.8-.3-2.8-.7s-1.9-.9-2.7-1.6c-.8-.7-1.5-1.5-2-2.5s-.8-2.1-.8-3.3.2-2.2.6-3.2,1.1-2,1.9-2.8,1.9-1.5,3.2-1.9c1.3-.5,2.8-.7,4.4-.7s3.2.2,4.5.6,2.4,1,3.3,1.8c.9.8,1.6,1.7,2,2.7.5,1,.7,2.1.7,3.3s-.2,2.1-.6,3-.9,1.8-1.5,2.7-1.2,1.7-1.9,2.6l-5,6.7c0,0-.2.2-.4.4s-.5.2-.9.2h-5.7l.3.2ZM249,539.8c.6,0,1.1,0,1.5-.3s.8-.5,1-1c.2-.4.4-.9.4-1.5s-.1-1.1-.4-1.6-.6-.8-1-1-.9-.3-1.5-.3-1.1,0-1.5.3-.8.6-1,1-.4,1-.4,1.6.1,1.1.4,1.5c.2.4.6.8,1,1s.9.3,1.5.3h0Z"/>
            <path class="cls-7" d="M266,552.4c-.2,0-.4,0-.5-.2s-.2-.3-.2-.5v-.3s0,0,.1-.2l4.6-6.3h-.6c-.9,0-1.8-.3-2.8-.7s-1.9-.9-2.7-1.6c-.8-.7-1.5-1.5-2-2.5s-.8-2.1-.8-3.3.2-2.2.6-3.2,1.1-2,1.9-2.8c.9-.8,1.9-1.5,3.2-1.9s2.8-.7,4.4-.7,3.2.2,4.5.6,2.4,1,3.3,1.8,1.6,1.7,2,2.7c.5,1,.7,2.1.7,3.3s-.2,2.1-.6,3-.9,1.8-1.5,2.7-1.2,1.7-1.9,2.6l-5,6.7c0,0-.2.2-.4.4s-.5.2-.9.2h-5.7l.3.2ZM271.5,539.8c.6,0,1.1,0,1.5-.3s.8-.5,1-1c.2-.4.4-.9.4-1.5s-.1-1.1-.4-1.6-.6-.8-1-1-.9-.3-1.5-.3-1.1,0-1.5.3-.8.6-1,1-.4,1-.4,1.6.1,1.1.4,1.5c.2.4.6.8,1,1s.9.3,1.5.3h0Z"/>
            <path class="cls-7" d="M288.5,552.4c-.2,0-.4,0-.5-.2s-.2-.3-.2-.5v-.3s0,0,.1-.2l4.6-6.3h-.6c-.9,0-1.8-.3-2.8-.7s-1.9-.9-2.7-1.6c-.8-.7-1.5-1.5-2-2.5s-.8-2.1-.8-3.3.2-2.2.6-3.2,1.1-2,1.9-2.8c.9-.8,1.9-1.5,3.2-1.9s2.8-.7,4.4-.7,3.2.2,4.5.6,2.4,1,3.3,1.8,1.6,1.7,2,2.7c.5,1,.7,2.1.7,3.3s-.2,2.1-.6,3-.9,1.8-1.5,2.7-1.2,1.7-1.9,2.6l-5,6.7c0,0-.2.2-.4.4s-.5.2-.9.2h-5.7l.3.2ZM294,539.8c.6,0,1.1,0,1.5-.3s.8-.5,1-1c.2-.4.4-.9.4-1.5s-.1-1.1-.4-1.6-.6-.8-1-1-.9-.3-1.5-.3-1.1,0-1.5.3-.8.6-1,1-.4,1-.4,1.6.1,1.1.4,1.5c.2.4.6.8,1,1s.9.3,1.5.3h0Z"/>
          </g>
          <g>
            <path class="cls-7" d="M503.5,552.4c-.2,0-.5,0-.6-.2s-.2-.4-.2-.6v-3c0-.2,0-.4.1-.8,0-.4.3-.7.7-1l2-1.9c2.1-1.5,3.8-2.8,5.2-3.9,1.4-1.1,2.4-2,3.1-2.8s1-1.5,1-2.2,0-1-.4-1.4c-.3-.4-.8-.6-1.5-.6s-1,0-1.4.4-.6.6-.8.9-.3.7-.4,1c0,.3-.2.5-.5.6s-.5.2-.8.2h-5.3c-.2,0-.4,0-.5-.2s-.2-.3-.2-.5c0-1.2.3-2.3.8-3.3s1.2-1.8,2-2.6,1.9-1.3,3.1-1.7,2.5-.6,3.9-.6,3.7.3,5.1.9c1.4.6,2.5,1.5,3.3,2.6s1.2,2.4,1.2,4-.3,2.3-.8,3.3-1.3,2-2.3,2.9-2.2,1.9-3.5,2.8l-1.7,1.6h8c.2,0,.5,0,.6.3s.2.4.2.7v4.3c0,.2,0,.5-.2.6s-.4.2-.6.2h-18.6Z"/>
            <path class="cls-7" d="M536.2,552.8c-1.7,0-3.1-.2-4.4-.7s-2.3-1.1-3.1-1.9c-.8-.8-1.5-1.7-1.9-2.8-.5-1.1-.7-2.2-.8-3.5v-6.9c0-1.2.4-2.4.8-3.5s1.1-2,2-2.8,1.9-1.4,3.1-1.8c1.2-.4,2.7-.7,4.3-.7s3,.2,4.3.7,2.3,1,3.1,1.8,1.5,1.7,2,2.8c.5,1,.7,2.2.8,3.5v6.9c0,1.2-.4,2.4-.8,3.5s-1.1,2-1.9,2.8c-.8.8-1.9,1.4-3.1,1.9s-2.7.7-4.3.7h0ZM536.2,546.9c.9,0,1.6-.3,2-.9s.6-1.4.7-2.3v-6.5c0-.9-.3-1.7-.7-2.3s-1-.9-2-.9-1.6.3-2,.9c-.4.6-.6,1.3-.7,2.3v6.5c0,1,.3,1.7.7,2.3s1,.9,2,.9Z"/>
            <path class="cls-7" d="M550.2,552.4c-.2,0-.5,0-.6-.2s-.2-.4-.2-.6v-3c0-.2,0-.4,0-.8,0-.4.3-.7.7-1l2-1.9c2.1-1.5,3.8-2.8,5.2-3.9s2.4-2,3.1-2.8,1-1.5,1-2.2,0-1-.4-1.4c-.3-.4-.8-.6-1.5-.6s-1,0-1.4.4-.6.6-.8.9-.3.7-.4,1c0,.3-.2.5-.5.6s-.5.2-.8.2h-5.3c-.2,0-.4,0-.5-.2s-.2-.3-.2-.5c0-1.2.3-2.3.8-3.3s1.2-1.8,2-2.6c.9-.8,1.9-1.3,3.1-1.7,1.2-.4,2.5-.6,3.9-.6s3.7.3,5.1.9c1.4.6,2.5,1.5,3.3,2.6s1.2,2.4,1.2,4-.3,2.3-.8,3.3-1.3,2-2.3,2.9-2.2,1.9-3.5,2.8l-1.7,1.6h8c.2,0,.5,0,.6.3s.2.4.2.7v4.3c0,.2,0,.5-.2.6s-.4.2-.6.2h-18.6Z"/>
            <path class="cls-7" d="M573.2,552.4c-.2,0-.5,0-.6-.2s-.2-.4-.2-.6v-3c0-.2,0-.4,0-.8,0-.4.3-.7.7-1l2-1.9c2.1-1.5,3.8-2.8,5.2-3.9s2.4-2,3.1-2.8,1-1.5,1-2.2,0-1-.4-1.4c-.3-.4-.8-.6-1.5-.6s-1,0-1.4.4-.6.6-.8.9-.3.7-.4,1c0,.3-.2.5-.5.6s-.5.2-.8.2h-5.3c-.2,0-.4,0-.5-.2s-.2-.3-.2-.5c0-1.2.3-2.3.8-3.3s1.2-1.8,2-2.6c.9-.8,1.9-1.3,3.1-1.7,1.2-.4,2.5-.6,3.9-.6s3.7.3,5.1.9c1.4.6,2.5,1.5,3.3,2.6s1.2,2.4,1.2,4-.3,2.3-.8,3.3-1.3,2-2.3,2.9-2.2,1.9-3.5,2.8l-1.7,1.6h8c.2,0,.5,0,.6.3s.2.4.2.7v4.3c0,.2,0,.5-.2.6s-.4.2-.6.2h-18.6Z"/>
          </g>
          <g>
            <path class="cls-7" d="M1355.1,552.4c-.2,0-.5,0-.6-.2s-.3-.4-.3-.6v-3c0-.2,0-.4,0-.8,0-.4.3-.7.7-1l2-1.9c2.1-1.5,3.8-2.8,5.2-3.9s2.4-2,3.1-2.8,1-1.5,1-2.2,0-1-.4-1.4-.8-.6-1.6-.6-1,0-1.4.4-.6.6-.8.9-.3.7-.4,1c0,.3-.2.5-.5.6s-.5.2-.8.2h-5.3c-.2,0-.4,0-.5-.2s-.2-.3-.2-.5c0-1.2.3-2.3.8-3.3s1.2-1.8,2-2.6,1.9-1.3,3.1-1.7,2.5-.6,3.9-.6,3.7.3,5.1.9c1.4.6,2.5,1.5,3.3,2.6s1.2,2.4,1.2,4-.3,2.3-.8,3.3-1.3,2-2.3,2.9-2.2,1.9-3.5,2.8l-1.7,1.6h8c.2,0,.5,0,.6.3s.3.4.3.7v4.3c0,.2,0,.5-.3.6s-.4.2-.6.2h-18.5.1Z"/>
            <path class="cls-7" d="M1387.8,552.8c-1.7,0-3.1-.2-4.4-.7s-2.3-1.1-3.1-1.9-1.5-1.7-1.9-2.8c-.5-1.1-.7-2.2-.8-3.5v-6.9c0-1.2.4-2.4.8-3.5s1.1-2,2-2.8,1.9-1.4,3.1-1.8c1.2-.4,2.7-.7,4.3-.7s3,.2,4.3.7,2.3,1,3.1,1.8c.8.8,1.5,1.7,2,2.8s.7,2.2.8,3.5v6.9c0,1.2-.4,2.4-.8,3.5s-1.1,2-1.9,2.8-1.9,1.4-3.1,1.9-2.7.7-4.3.7h0ZM1387.8,546.9c.9,0,1.6-.3,2-.9.4-.6.6-1.4.7-2.3v-6.5c0-.9-.3-1.7-.7-2.3-.4-.6-1-.9-2-.9s-1.6.3-2,.9-.6,1.3-.7,2.3v6.5c0,1,.3,1.7.7,2.3.4.6,1.1.9,2,.9Z"/>
            <path class="cls-7" d="M1412.7,552.4c-.2,0-.5,0-.6-.2s-.2-.4-.2-.6v-3.4h-10.4c-.2,0-.5,0-.6-.2s-.2-.4-.2-.6v-4c0-.2,0-.5,0-.6s.2-.3.2-.4l9.8-13c.3-.4.7-.6,1.3-.6h6c.2,0,.5,0,.6.2s.2.4.2.6v12.7h3c.3,0,.5,0,.7.3.2.2.2.4.2.6v4.2c0,.2,0,.5-.3.6s-.4.2-.6.2h-3v3.4c0,.2,0,.5-.2.6s-.4.2-.6.2h-5.4ZM1407.3,542.5h4.7v-6.5l-4.7,6.5Z"/>
            <path class="cls-7" d="M1435,552.8c-2.3,0-4.2-.3-5.7-1s-2.7-1.6-3.4-2.7c-.8-1.1-1.2-2.3-1.2-3.6s0-.4.2-.5.3-.2.5-.2h5.7c.3,0,.6,0,.8.2.2,0,.3.3.4.4.2.4.5.7.7,1s.5.5.9.6c.3,0,.7.2,1.2.2s1,0,1.4-.3.8-.5,1-1,.4-.9.4-1.5,0-1-.4-1.4-.6-.7-1-1-.9-.4-1.5-.4-.8,0-1.1.2c-.3,0-.5.2-.7.4-.2,0-.3.2-.5.4-.2,0-.3.2-.5.2h-5.6c-.2,0-.4,0-.5-.2-.2-.2-.2-.3-.2-.5l1.3-12.1c0-.4.2-.6.4-.8.2-.2.5-.3.8-.3h14.4c.2,0,.5,0,.6.2s.2.4.2.6v4c0,.2,0,.4-.2.6s-.4.3-.6.3h-9.9l-.3,3.4c.6-.4,1.2-.7,1.8-.9.7-.2,1.6-.3,2.7-.3s2.1.2,3.1.6,1.9.9,2.7,1.6,1.4,1.5,1.8,2.5.7,2,.7,3.2-.4,3-1.2,4.2c-.8,1.3-2,2.3-3.5,3-1.5.8-3.4,1.1-5.7,1.1h0v-.2Z"/>
            <path class="cls-7" d="M1460.9,544.5c-.2,0-.3,0-.5-.2s-.2-.3-.2-.4v-.6c.2-.7.4-1.3.8-2s.9-1.2,1.4-1.7l1.5-1.5c.5-.4.9-.9,1.2-1.3s.5-.8.5-1.2,0-.7-.2-.9-.4-.5-.7-.6c-.3,0-.6-.2-1-.2-.8,0-1.4.2-1.8.5s-.7.8-.8,1.4c0,.2-.2.5-.4.6s-.4.2-.8.2h-5.2c-.2,0-.4,0-.6-.3-.2-.2-.2-.4-.2-.7,0-.9.2-1.8.7-2.6s1.1-1.7,1.9-2.4,1.9-1.3,3.2-1.8c1.3-.4,2.8-.7,4.5-.7s3.3.2,4.5.7c1.2.4,2.1,1,2.8,1.7.7.7,1.1,1.4,1.4,2.1s.4,1.4.4,2,0,1.5-.4,2.1-.6,1.2-1,1.8c-.4.5-.8,1-1.3,1.5s-.9,1-1.3,1.4c-.4.5-.8,1-1.1,1.5,0,0,0,.2-.2.3l-.2.4c-.2.3-.3.6-.5.7-.2.2-.4.2-.6.2h-6,.2ZM1461.1,552.4c-.2,0-.5,0-.6-.2s-.3-.4-.3-.6v-4.6c0-.2,0-.5.3-.7.2-.2.4-.3.6-.3h5.3c.2,0,.4,0,.6.3.2.2.3.4.3.7v4.6c0,.2,0,.5-.3.6s-.4.2-.6.2h-5.3Z"/>
          </g>
        </g>
      </g>
    </g>
  </g>
</svg>