<?xml version="1.0" encoding="UTF-8"?>
<svg id="Layer_2" xmlns="http://www.w3.org/2000/svg" viewBox="0 0 91 368">
  <defs>
    <style>
      .cls-1 {
        fill: #0f3067;
      }

      .cls-2 {
        fill: #6cc5c1;
      }
    </style>
  </defs>
  <g id="Layer_1-2" data-name="Layer_1">
    <g>
      <path class="cls-1" d="M91,0v357.97c0,5.54-4.49,10.03-10.03,10.03H10.03c-5.54,0-10.03-4.49-10.03-10.03V3.63C0,1.63,1.62,0,3.63,0h87.37Z"/>
      <path class="cls-2" d="M7.51,112c0-2.6-.02-5.19.01-7.79.04-3.49.81-4.29,4.13-5,1.39-.29,2.75-.39,4.15-.39,4.19,0,8.39-.06,12.58-.01,2.27.03,3.67,1.27,3.7,3.4.06,5.79.11,11.59-.05,17.37-.09,3.33-2.76,5.61-6.09,5.61-4.98,0-9.93-.83-14.93-.65-2.21.08-3.48-1.33-3.53-3.56-.07-2.99-.01-5.99-.01-8.99h.04Z"/>
      <path class="cls-2" d="M60.08,17c-.08,2.6,1.14,5.51,1.39,8.62.16,2,1.96,3.3,4.15,3.31,1.92,0,3.84-.23,5.77-.32,1.38-.07,2.74-.1,4.15.13,3.48.57,5.17-1.47,5.05-5.45-.11-3.63-1.04-7.1-1.55-10.65-.26-1.8-1.24-2.95-3.08-3.22-2.69-.38-5.33-.23-8-.1-1.17.06-2.35.17-3.52.02-3.39-.42-4.77,1-4.56,4.87.04.74.11,1.49.2,2.78h0Z"/>
      <path class="cls-2" d="M28.38,71.95c2.9.32,6.25-.86,9.75-.88,2.25-.01,3.85-2,4.05-4.54.17-2.24.06-4.49.11-6.74.04-1.61.11-3.2.49-4.82.93-4-1.22-6.14-5.67-6.34-4.07-.18-8.03.61-12.04.9-2.04.15-3.4,1.19-3.85,3.31-.65,3.09-.7,6.18-.77,9.29-.03,1.37,0,2.75-.26,4.09-.75,3.91.73,5.64,5.07,5.72.84.02,1.67,0,3.12,0h0Z"/>
      <path class="cls-2" d="M70.09,84.58c-2.08.26-4.48-.69-7-.7-1.61-.01-2.77-1.6-2.9-3.64-.12-1.79-.05-3.6-.08-5.4-.03-1.29-.08-2.57-.35-3.86-.66-3.21.88-4.92,4.07-5.08,2.92-.15,5.76.49,8.64.72,1.46.12,2.44.95,2.76,2.65.47,2.48.5,4.95.55,7.45.02,1.09,0,2.21.19,3.28.54,3.13-.52,4.52-3.64,4.58-.6.01-1.2,0-2.24,0Z"/>
      <path class="cls-2" d="M43.81,151c0-2.6.02-5.19-.01-7.79-.04-3.49-.81-4.29-4.13-5-1.39-.29-2.75-.39-4.15-.39-4.19,0-8.39-.06-12.58-.01-2.27.03-3.67,1.27-3.7,3.4-.06,5.79-.11,11.59.05,17.37.09,3.33,2.76,5.61,6.09,5.61,4.98,0,9.93-.83,14.93-.65,2.21.08,3.48-1.33,3.53-3.56.07-2.99.01-5.99.01-8.99h-.04Z"/>
      <path class="cls-2" d="M60.04,159.11c0-1.59-.02-3.18,0-4.78.03-2.14.59-2.63,2.99-3.06,1-.18,1.99-.24,3-.24,3.04,0,6.07-.03,9.11,0,1.64.02,2.66.78,2.67,2.09.04,3.55.08,7.1-.04,10.65-.07,2.04-2,3.44-4.41,3.44-3.61,0-7.18-.51-10.8-.4-1.6.05-2.52-.82-2.55-2.18-.05-1.84-.01-3.67,0-5.51h.03,0Z"/>
      <path class="cls-2" d="M19.51,195.11c1.59,0,3.18-.02,4.78,0,2.14.03,2.63.58,3.07,2.99.18,1,.24,1.99.24,3,0,3.04.04,6.07.01,9.11-.01,1.64-.78,2.66-2.08,2.68-3.55.05-7.1.08-10.65-.03-2.04-.07-3.44-2-3.45-4.4,0-3.61.51-7.18.4-10.8-.05-1.6.82-2.52,2.18-2.55,1.84-.05,3.67-.01,5.51-.01v.03-.02Z"/>
      <path class="cls-2" d="M85.81,302c0-2.6.02-5.19-.01-7.79-.04-3.49-.81-4.29-4.13-5-1.39-.29-2.75-.39-4.15-.39-4.19,0-8.39-.06-12.58-.01-2.27.03-3.67,1.27-3.7,3.4-.06,5.79-.11,11.59.05,17.37.09,3.33,2.76,5.61,6.09,5.61,4.98,0,9.93-.83,14.93-.65,2.21.08,3.48-1.33,3.53-3.56.07-2.99.01-5.99.01-8.99h-.04Z"/>
      <path class="cls-2" d="M37.82,334.42c0-6.41.02-12.82-.02-19.23-.05-8.61-.81-10.6-4.13-12.34-1.39-.73-2.75-.97-4.15-.97-4.19-.02-8.39-.15-12.58-.04-2.27.06-3.67,3.14-3.69,8.39-.05,14.3-.1,28.61.07,42.9.1,8.23,2.77,13.86,6.1,13.87,4.98.02,7.59,0,14.93-1.6,2.17-.47,3.48-3.29,3.53-8.79.07-7.39,0-14.79,0-22.19h-.06Z"/>
      <path class="cls-2" d="M68.24,264.43c2.08.26,4.48-.69,7-.7,1.61-.01,2.77-1.6,2.9-3.64.12-1.79.05-3.6.08-5.4.03-1.29.08-2.57.35-3.86.66-3.21-.88-4.92-4.07-5.08-2.92-.15-5.76.49-8.64.72-1.46.12-2.44.95-2.76,2.65-.47,2.48-.5,4.95-.55,7.45-.02,1.09,0,2.21-.19,3.28-.54,3.13.52,4.52,3.64,4.58.6.01,1.2,0,2.24,0Z"/>
    </g>
  </g>
</svg>