<?xml version="1.0" encoding="UTF-8"?>
<svg id="Layer_2" xmlns="http://www.w3.org/2000/svg" viewBox="0 0 91 173">
  <defs>
    <style>
      .cls-1 {
        fill: #d41a2a;
      }

      .cls-2 {
        fill: #0f3067;
      }

      .cls-3 {
        fill: #6cc5c1;
      }
    </style>
  </defs>
  <g id="Layer_1-2" data-name="Layer_1">
    <path class="cls-1" d="M80.97,0H10.03C4.49,0,0,4.49,0,10.03v162.97h91V10.03C91,4.49,86.51,0,80.97,0h0ZM61.14,18.21c2.92-.15,5.76.48,8.64.71,1.46.12,2.44.96,2.76,2.66.47,2.48.5,4.95.55,7.45.02,1.09.01,2.2.19,3.27.54,3.14-.52,4.52-3.64,4.59h-2.24c-2.08.25-4.49-.69-7-.71-1.61-.01-2.76-1.6-2.9-3.63-.12-1.8-.05-3.6-.08-5.4-.03-1.3-.08-2.57-.35-3.86-.67-3.21.87-4.92,4.07-5.08ZM13.85,45h.04c0-2.6-.02-5.19,0-7.79.04-3.49.81-4.29,4.13-4.99,1.39-.3,2.75-.4,4.15-.4,4.19,0,8.39-.05,12.58,0,2.27.03,3.68,1.28,3.7,3.4.06,5.79.11,11.59-.05,17.38-.1,3.33-2.77,5.61-6.09,5.61-4.99.01-9.93-.83-14.93-.65-2.21.08-3.48-1.34-3.53-3.56-.07-3,0-5.99,0-8.99ZM28.62,153.23c-1.38-.2-2.73-.17-4.09-.1-1.89.1-3.79.33-5.68.33-2.16,0-3.92-1.16-4.07-2.97-.22-2.8-1.41-5.42-1.31-7.77-.09-1.16-.15-1.83-.18-2.5-.19-3.49,1.18-4.79,4.52-4.43,1.14.13,2.31.02,3.46-.04,2.62-.14,5.23-.29,7.87.04,1.82.23,2.78,1.26,3.02,2.89.48,3.2,1.38,6.32,1.47,9.6.09,3.59-1.58,5.44-5.01,4.95ZM41.2,96.01c-.16,3.2-1.87,4.74-5.08,4.07-1.29-.27-2.57-.32-3.86-.35-1.8-.04-3.6.04-5.4-.08-2.03-.14-3.62-1.29-3.63-2.91-.02-2.51-.96-4.92-.7-7,0-1.04-.01-1.64,0-2.24.07-3.11,1.45-4.17,4.58-3.63,1.08.18,2.19.17,3.28.19,2.49.05,4.97.08,7.45.55,1.7.32,2.53,1.3,2.65,2.77.23,2.87.86,5.71.71,8.63h0ZM80.1,149.99c-.05,2.22-1.31,3.64-3.53,3.56-5-.18-9.94.66-14.92.65-3.33,0-6-2.28-6.09-5.61-.17-5.79-.12-11.59-.06-17.38.03-2.12,1.43-3.37,3.7-3.4,4.19-.04,8.39,0,12.58,0,1.4,0,2.77.1,4.15.4,3.32.7,4.09,1.5,4.13,4.99.04,2.6,0,5.19,0,7.79h.04c.01,3,.06,5.99,0,8.99h0Z"/>
    <path class="cls-2" d="M13.47,142.72c-.09-1.16-.15-1.83-.18-2.5-.19-3.49,1.18-4.79,4.52-4.43,1.14.13,2.31.02,3.46-.04,2.62-.14,5.23-.29,7.87.04,1.82.23,2.78,1.26,3.02,2.89.48,3.2,1.38,6.32,1.47,9.6.09,3.59-1.58,5.44-5.01,4.95-1.38-.2-2.73-.17-4.09-.1-1.89.1-3.79.33-5.68.33-2.16,0-3.92-1.16-4.07-2.97-.22-2.8-1.41-5.42-1.31-7.77Z"/>
    <path class="cls-2" d="M13.86,53.99c-.07-3,0-5.99,0-8.99h.04c0-2.6-.02-5.19,0-7.79.04-3.49.81-4.29,4.13-4.99,1.39-.3,2.75-.4,4.15-.4,4.19,0,8.39-.05,12.58,0,2.27.03,3.68,1.28,3.7,3.4.06,5.79.11,11.59-.05,17.38-.1,3.33-2.77,5.61-6.09,5.61-4.99.01-9.93-.83-14.93-.65-2.21.08-3.48-1.34-3.53-3.56Z"/>
    <path class="cls-2" d="M37.84,84.61c1.7.32,2.53,1.3,2.65,2.77.23,2.87.86,5.71.71,8.63-.16,3.2-1.87,4.74-5.08,4.07-1.29-.27-2.57-.32-3.86-.35-1.8-.04-3.6.04-5.4-.08-2.03-.14-3.62-1.29-3.63-2.91-.02-2.51-.96-4.92-.7-7,0-1.04-.01-1.64,0-2.24.07-3.11,1.45-4.17,4.58-3.63,1.08.18,2.19.17,3.28.19,2.49.05,4.97.08,7.45.55h0Z"/>
    <path class="cls-2" d="M57.07,23.29c-.67-3.21.87-4.92,4.07-5.08,2.92-.15,5.76.48,8.64.71,1.46.12,2.44.96,2.76,2.66.47,2.48.5,4.95.55,7.45.02,1.09.01,2.2.19,3.27.54,3.14-.52,4.52-3.64,4.59h-2.24c-2.08.25-4.49-.69-7-.71-1.61-.01-2.76-1.6-2.9-3.63-.12-1.8-.05-3.6-.08-5.4-.03-1.3-.08-2.57-.35-3.86Z"/>
    <path class="cls-2" d="M55.56,148.59c-.17-5.79-.12-11.59-.06-17.38.03-2.12,1.43-3.37,3.7-3.4,4.19-.04,8.39,0,12.58,0,1.4,0,2.77.1,4.15.4,3.32.7,4.09,1.5,4.13,4.99.04,2.6,0,5.19,0,7.79h.04c.01,3,.06,5.99,0,8.99-.05,2.22-1.31,3.64-3.53,3.56-5-.18-9.94.66-14.92.65-3.33,0-6-2.28-6.09-5.61h0Z"/>
    <path class="cls-3" d="M38.41,52.59c-.1,3.33-2.77,5.61-6.09,5.61-4.99.01-9.93-.83-14.93-.65-2.21.08-3.48-1.34-3.53-3.56-.07-3,0-5.99,0-8.99h.04c0-2.6-.02-5.19,0-7.79.04-3.49.81-4.29,4.13-4.99,1.39-.3,2.75-.4,4.15-.4,4.19,0,8.39-.05,12.58,0,2.27.03,3.68,1.28,3.7,3.4.06,5.79.11,11.59-.05,17.38Z"/>
    <path class="cls-3" d="M69.64,36.89h-2.24c-2.08.25-4.49-.69-7-.71-1.61-.01-2.76-1.6-2.9-3.63-.12-1.8-.05-3.6-.08-5.4-.03-1.3-.08-2.57-.35-3.86-.67-3.21.87-4.92,4.07-5.08,2.92-.15,5.76.48,8.64.71,1.46.12,2.44.96,2.76,2.66.47,2.48.5,4.95.55,7.45.02,1.09.01,2.2.19,3.27.54,3.14-.52,4.52-3.64,4.59Z"/>
    <path class="cls-3" d="M41.2,96.01c-.16,3.2-1.87,4.74-5.08,4.07-1.29-.27-2.57-.32-3.86-.35-1.8-.04-3.6.04-5.4-.08-2.03-.14-3.62-1.29-3.63-2.91-.02-2.51-.96-4.92-.7-7,0-1.04-.01-1.64,0-2.24.07-3.11,1.45-4.17,4.58-3.63,1.08.18,2.19.17,3.28.19,2.49.05,4.97.08,7.45.55,1.7.32,2.53,1.3,2.65,2.77.23,2.87.86,5.71.71,8.63h0Z"/>
    <path class="cls-3" d="M80.1,149.99c-.05,2.22-1.31,3.64-3.53,3.56-5-.18-9.94.66-14.92.65-3.33,0-6-2.28-6.09-5.61-.17-5.79-.12-11.59-.06-17.38.03-2.12,1.43-3.37,3.7-3.4,4.19-.04,8.39,0,12.58,0,1.4,0,2.77.1,4.15.4,3.32.7,4.09,1.5,4.13,4.99.04,2.6,0,5.19,0,7.79h.04c.01,3,.06,5.99,0,8.99h0Z"/>
    <path class="cls-3" d="M33.63,148.28c.09,3.59-1.58,5.44-5.01,4.95-1.38-.2-2.73-.17-4.09-.1-1.89.1-3.79.33-5.68.33-2.16,0-3.92-1.16-4.07-2.97-.22-2.8-1.41-5.42-1.31-7.77-.09-1.16-.15-1.83-.18-2.5-.19-3.49,1.18-4.79,4.52-4.43,1.14.13,2.31.02,3.46-.04,2.62-.14,5.23-.29,7.87.04,1.82.23,2.78,1.26,3.02,2.89.48,3.2,1.38,6.32,1.47,9.6Z"/>
    <path class="cls-3" d="M32.16,138.68c.48,3.2,1.38,6.32,1.47,9.6.09,3.59-1.58,5.44-5.01,4.95-1.38-.2-2.73-.17-4.09-.1-1.89.1-3.79.33-5.68.33-2.16,0-3.92-1.16-4.07-2.97-.22-2.8-1.41-5.42-1.31-7.77-.09-1.16-.15-1.83-.18-2.5-.19-3.49,1.18-4.79,4.52-4.43,1.14.13,2.31.02,3.46-.04,2.62-.14,5.23-.29,7.87.04,1.82.23,2.78,1.26,3.02,2.89Z"/>
    <path class="cls-3" d="M13.85,45h.04c0-2.6-.02-5.19,0-7.79.04-3.49.81-4.29,4.13-4.99,1.39-.3,2.75-.4,4.15-.4,4.19,0,8.39-.05,12.58,0,2.27.03,3.68,1.28,3.7,3.4.06,5.79.11,11.59-.05,17.38-.1,3.33-2.77,5.61-6.09,5.61-4.99.01-9.93-.83-14.93-.65-2.21.08-3.48-1.34-3.53-3.56-.07-3,0-5.99,0-8.99Z"/>
    <path class="cls-3" d="M40.49,87.38c.23,2.87.86,5.71.71,8.63-.16,3.2-1.87,4.74-5.08,4.07-1.29-.27-2.57-.32-3.86-.35-1.8-.04-3.6.04-5.4-.08-2.03-.14-3.62-1.29-3.63-2.91-.02-2.51-.96-4.92-.7-7,0-1.04-.01-1.64,0-2.24.07-3.11,1.45-4.17,4.58-3.63,1.08.18,2.19.17,3.28.19,2.49.05,4.97.08,7.45.55,1.7.32,2.53,1.3,2.65,2.77h0Z"/>
    <path class="cls-3" d="M57.42,27.15c-.03-1.3-.08-2.57-.35-3.86-.67-3.21.87-4.92,4.07-5.08,2.92-.15,5.76.48,8.64.71,1.46.12,2.44.96,2.76,2.66.47,2.48.5,4.95.55,7.45.02,1.09.01,2.2.19,3.27.54,3.14-.52,4.52-3.64,4.59h-2.24c-2.08.25-4.49-.69-7-.71-1.61-.01-2.76-1.6-2.9-3.63-.12-1.8-.05-3.6-.08-5.4Z"/>
    <path class="cls-3" d="M80.11,141c.01,3,.06,5.99,0,8.99-.05,2.22-1.31,3.64-3.53,3.56-5-.18-9.94.66-14.92.65-3.33,0-6-2.28-6.09-5.61-.17-5.79-.12-11.59-.06-17.38.03-2.12,1.43-3.37,3.7-3.4,4.19-.04,8.39,0,12.58,0,1.4,0,2.77.1,4.15.4,3.32.7,4.09,1.5,4.13,4.99.04,2.6,0,5.19,0,7.79h.04Z"/>
  </g>
</svg>