<?xml version="1.0" encoding="UTF-8"?>
<svg id="Layer_2" xmlns="http://www.w3.org/2000/svg" viewBox="0 0 486.41 582">
  <defs>
    <style>
      .cls-1 {
        fill: #ffeecd;
      }

      .cls-2 {
        fill: #0f3067;
      }

      .cls-3 {
        fill: #db172b;
      }

      .cls-4 {
        fill: #6cc5c1;
      }

      .cls-5 {
        fill: #fcc752;
      }
    </style>
  </defs>
  <g id="Layer_1-2" data-name="Layer_1">
    <g>
      <path class="cls-4" d="M355.89,189.73c.51-4.31-.36-8.51-.97-12.73-3.24-22.53-5.96-45.13-8.83-67.71-1.94-15.3-4.69-30.51-6.02-45.87-.91-10.52-2.52-20.91-3.89-31.36-.21-1.6.02-3.44-1.54-4.62-4.39,7.39-6.28,15.86-10.19,23.47-2.3,4.46-3.33,9.57-6.89,13.39,1.19,3.07,1.1,6.25.76,9.45-1.01,9.59-1.67,19.21-2.47,28.82-.39,4.6-2.2,8.17-5.44,11.23-25.74,24.24-51.22,48.74-76.88,73.07-10.44,9.9-20.73,19.95-31.3,29.72-1.34,1.24-2.54,2.71-4.58,2.82-2.09,2.14-3.78,1.88-6.08-.15-16.94-14.94-34.18-29.53-51.29-44.27-14.91-12.85-29.7-25.85-44.84-38.44-5.16-4.29-9.92-9.06-15.4-12.97-1.48-1.06-2.86-2.34-4.81-2.48-2.98,3.35-3.62,7.71-4.48,11.78-5.77,27.34-11.23,54.75-16.9,82.12-6.75,32.6-13.63,65.17-20.4,97.77-4.93,23.77-9.73,47.58-14.65,71.36-5.5,26.62-11.08,53.22-16.61,79.84-.65,3.14-1.05,6.35-1.92,9.42-.74,2.61.12,4.4,1.91,6.12,12.1,11.66,24.19,23.34,36.24,35.05,14.57,14.16,29.09,28.38,43.64,42.56,7.33,7.14,14.66,14.29,22.1,21.32,1.93,1.83,3.82,4.16,7.08,3.44,1.86-.96,2.25-2.75,2.67-4.57,27.04-115.31,54.66-230.48,81.72-345.78.92-3.9,2.69-5.81,6.85-6.64,13.32-2.68,26.57-5.73,39.75-9.15,13.47-3.49,27.29-5.37,41.05-7.49,15.11-2.33,29.83-6.59,44.75-9.87,6.27-1.38,12.48-2.97,18.78-4.25,3.32-.67,7.11-.77,9.09-4.4Z"/>
      <path class="cls-1" d="M355.89,189.73c-2.17,1.51-4.76,2.39-7.21,2.73-5.93.83-11.63,2.59-17.42,3.9-5.33,1.21-10.74,2.12-16,3.8-4.33,1.39-8.93,1.86-13.37,3.04-13.32,3.56-27.05,4.94-40.61,7.21-7.34,1.23-14.59,3.13-21.86,4.76-8.93,1.99-17.57,5.18-26.73,6.17-4.85.52-9.4,2.72-14.33,2.93-1.66.07-2.13,1.13-2.62,2.61-2.16,6.53-3.32,13.31-4.92,19.97-7.59,31.61-15.02,63.27-22.5,94.91-8.92,37.73-17.81,75.47-26.75,113.19-8.55,36.09-17.16,72.17-25.7,108.27-1.16,4.9-2.58,9.73-3.28,14.74-.19,1.33-.88,2.59-1.34,3.88,11.69-3.14,23.89-3.56,35.6-6.34,8.67-2.06,17.51-2.7,26.13-4.66,13.13-2.99,26.6-4.11,39.69-7.01,10.18-2.25,20.57-3.02,30.66-5.4,8.2-1.93,16.47-3.23,24.77-4.47,2.22-.33,2.88-1.55,3.36-3.61,3.25-13.96,6.69-27.88,10.03-41.83,4.26-17.8,8.5-35.6,12.74-53.4,6.12-25.66,12.2-51.33,18.34-76.99,4.9-20.47,9.88-40.92,14.78-61.38,6.17-25.81,12.28-51.63,18.46-77.43,3.41-14.24,6.94-28.45,10.37-42.68.55-2.3,1.74-4.7-.29-6.93Z"/>
      <path class="cls-2" d="M75.22,121.1c17.74,14.07,34.52,29.28,51.72,43.99,14.3,12.23,28.55,24.53,42.82,36.8,7.31,6.28,14.63,12.56,21.93,18.85,1.26,1.09,2.41,2.32,4.08,2.78,1.18-.99,1.05-2.56,1.84-3.67,1.27-1.15,1.12-2.78,1.43-4.25,5.99-29.13,8.02-58.87,13.45-88.05,4.17-22.38,6.09-44.86,7.21-67.49.04-.77.22-1.51.47-2.23,4.45-4.5,10.38-6.82,15.44-10.43,2.1-1.5,4.37-2.79,6.57-4.15,1.23-.76,2.87-1.36,2.46-3.37-14.45-9.23-28.89-18.47-43.34-27.69-5.03-3.21-10.08-6.4-15.13-9.6-.78-.49-1.53-1.02-2.34-1.46-3.48-1.91-4.77-1.46-6.17,2.26-3.34,8.88-6.82,17.72-9.9,26.69-1.44,4.19-3.71,7.42-6.94,10.44-28.61,26.78-57.09,53.71-85.6,80.59Z"/>
      <path class="cls-3" d="M244.63,39.86c-5.14,4.34-11.25,7.19-16.75,10.99-2.87,1.98-5.93,3.7-8.9,5.54,1.14,1.96,3.19,1.59,4.9,1.73,29.51,2.41,59.02,4.78,88.52,7.24,1.77.15,3.68.55,5.28-.76,1.17-.32,2.26-.57,2.85-1.95,4.87-11.5,10.54-22.68,14.06-34.74.04-.14.03-.3.04-.46-2.16-2.03-4.73-1.7-7.33-1.27-27.55,4.56-55.11,9.12-82.66,13.67Z"/>
      <path class="cls-1" d="M317.68,64.59c-13.4-1.15-26.8-2.33-40.2-3.44-19.5-1.62-39-3.18-58.5-4.77-1.21,6.94-.94,13.99-1.5,20.99-1.15,14.31-2.18,28.58-5.05,42.75-3.85,19.03-6,38.37-8.14,57.67-1.01,9.12-3.14,18.05-4.66,27.09-.83,4.96-2.21,9.85-2.02,14.95.47,1.17,1.05,1.92,2.3.73,2.65-2.53,5.33-5.02,7.98-7.55,11.03-10.53,22.05-21.07,33.08-31.61,18.86-18.02,37.7-36.04,56.58-54.04,4.42-4.21,8.85-8.41,13.38-12.5,3.66-3.31,5.79-7.09,6.08-12.23.65-11.23,1.72-22.44,2.78-33.65.2-2.09.03-3.6-2.09-4.4Z"/>
    </g>
    <path class="cls-5" d="M357.82,307.84l33.09-25.27c2.08-1.59,5.09-.51,5.7,2.03l9.33,39.39c.84,3.54,4.04,6.02,7.68,5.93l44.24-1c2.65-.06,4.46,2.67,3.37,5.09l-17.52,38.68c-1.6,3.53-.33,7.7,2.97,9.74l38.04,23.53c2.28,1.41,2.28,4.72,0,6.13l-38.04,23.53c-3.3,2.04-4.57,6.21-2.97,9.74l17.52,38.68c1.1,2.42-.71,5.15-3.37,5.09l-44.24-1c-3.64-.08-6.84,2.39-7.68,5.93l-9.33,39.39c-.6,2.54-3.62,3.62-5.7,2.03l-33.09-25.27c-2.76-2.11-6.6-2.11-9.36,0l-33.09,25.27c-2.08,1.59-5.09.51-5.7-2.03l-9.33-39.39c-.84-3.54-4.04-6.02-7.68-5.93l-44.24,1c-2.65.06-4.46-2.67-3.37-5.09l17.52-38.68c1.6-3.53.33-7.7-2.97-9.74l-38.04-23.53c-2.28-1.41-2.28-4.72,0-6.13l38.04-23.53c3.3-2.04,4.57-6.21,2.97-9.74l-17.52-38.68c-1.1-2.42.71-5.15,3.37-5.09l44.24,1c3.64.08,6.84-2.39,7.68-5.93l9.33-39.39c.6-2.54,3.62-3.62,5.7-2.03l33.09,25.27c2.76,2.11,6.6,2.11,9.36,0Z"/>
  </g>
</svg>