<?xml version="1.0" encoding="UTF-8"?>
<svg xmlns="http://www.w3.org/2000/svg" version="1.1" viewBox="0 0 1058.5 602.1">
  <defs>
    <style>
      .cls-1 {
        fill: #0f3067;
      }
    </style>
  </defs>
  <!-- Generator: Adobe Illustrator 28.7.1, SVG Export Plug-In . SVG Version: 1.2.0 Build 142)  -->
  <g>
    <g id="Layer_2">
      <g id="Layer_1-2">
        <g>
          <path class="cls-1" d="M10.3,105.8c-1.7,0-3.1-.2-4.3-.6-1.2-.4-2.2-.9-3-1.6-.8-.7-1.3-1.4-1.7-2.2s-.6-1.7-.6-2.6.3-2.1.8-2.9c.5-.8,1.2-1.5,2-2-.7-.5-1.2-1.1-1.5-1.8-.4-.7-.5-1.5-.5-2.4s.3-2.2.9-3.2c.6-1,1.5-1.8,2.8-2.3s3-.9,5.1-.9,3.8.3,5.1.9c1.3.6,2.2,1.4,2.8,2.3.6,1,.9,2,.9,3.2s-.2,1.7-.5,2.4-.8,1.3-1.5,1.8c.9.4,1.6,1.1,2.1,2s.8,1.9.8,3-.3,2.3-1,3.4c-.7,1.1-1.7,1.9-3.1,2.6-1.4.7-3.2,1-5.5,1h0ZM10.3,101.1c.5,0,1,0,1.5-.3.4-.2.8-.5,1-.8s.4-.8.4-1.2-.1-.9-.4-1.3c-.2-.3-.6-.6-1-.8-.4-.2-.9-.3-1.5-.3s-1,0-1.4.3c-.4.2-.8.5-1,.8s-.4.8-.4,1.3.1.9.4,1.2c.2.3.6.6,1,.8.4.2.9.3,1.4.3ZM10.3,92.1c.5,0,1-.1,1.4-.3.4-.2.7-.4.9-.7.2-.3.3-.7.3-1.1s-.1-.8-.3-1.1-.5-.6-.9-.7-.8-.3-1.4-.3-.9,0-1.3.3-.7.4-.9.7c-.2.3-.3.7-.3,1.1s0,.8.3,1.1.5.6.9.8.8.3,1.3.3Z"/>
          <path class="cls-1" d="M27.1,94.7c-1.4,0-2.6-.4-3.5-1.1-.9-.7-1.4-1.7-1.5-3,0-.5,0-1,0-1.4,0-.4,0-.9,0-1.5,0-1.3.5-2.3,1.4-3s2-1.1,3.5-1.1,2.7.4,3.5,1.1,1.3,1.8,1.4,3c0,.6,0,1.1,0,1.5s0,.9,0,1.4c0,1.2-.6,2.2-1.5,3-.9.7-2,1.1-3.5,1.1ZM24.7,105.4c-.5,0-.7-.2-.7-.6s0-.2.1-.3l15.4-20.3c.2-.2.3-.3.5-.4s.4-.2.7-.2h2.7c.5,0,.7.2.7.6s0,.2-.1.3l-15.4,20.3c-.1.2-.3.3-.4.4s-.4.2-.7.2h-2.7,0ZM27.1,91.6c.3,0,.5,0,.6-.2.1-.1.3-.3.3-.5,0-.2.1-.4.1-.6,0-.4,0-.9,0-1.3s0-.9,0-1.3c0-.3-.1-.6-.3-.9s-.4-.4-.8-.4-.7.1-.8.4c-.2.2-.3.5-.3.9,0,.4,0,.8,0,1.3s0,.9,0,1.3c0,.2,0,.4.1.6s.2.3.4.5.4.2.6.2h0ZM41,105.6c-1.4,0-2.6-.4-3.5-1.1s-1.4-1.8-1.5-3c0-.5,0-1,0-1.4,0-.4,0-.9,0-1.5,0-1.3.5-2.3,1.4-3s2-1.1,3.5-1.1,2.7.4,3.5,1.1,1.3,1.8,1.4,3c0,.6,0,1.1,0,1.5s0,.9,0,1.4c0,1.2-.5,2.2-1.4,3s-2,1.1-3.5,1.1ZM41,102.5c.3,0,.5,0,.6-.2s.3-.3.3-.5c0-.2.1-.4.1-.6,0-.4,0-.9,0-1.3s0-.9,0-1.3c0-.3-.1-.6-.3-.9s-.4-.4-.8-.4-.7.1-.8.4c-.2.2-.3.5-.3.9,0,.4,0,.8,0,1.3s0,.9,0,1.3c0,.2,0,.4.1.6s.2.3.3.5c.2.1.4.2.6.2h0Z"/>
        </g>
        <g>
          <path class="cls-1" d="M11.1,251.7c-.2,0-.4,0-.6-.2s-.2-.4-.2-.6v-3.1H.8c-.2,0-.4,0-.6-.2C0,247.4,0,247.2,0,247v-3.7c0-.2,0-.4.1-.6,0-.2.2-.3.2-.4l8.9-11.9c.3-.4.7-.5,1.1-.5h5.5c.2,0,.4,0,.6.2.2.2.2.4.2.6v11.6h2.8c.2,0,.5,0,.6.2.1.2.2.4.2.6v3.9c0,.2,0,.4-.2.6-.2.2-.4.2-.6.2h-2.8v3.1c0,.2,0,.4-.2.6s-.4.2-.6.2h-4.8,0ZM6.2,242.6h4.3v-5.9s-4.3,5.9-4.3,5.9Z"/>
          <path class="cls-1" d="M27.2,240.9c-1.4,0-2.6-.4-3.5-1.1-.9-.7-1.4-1.7-1.5-3,0-.5,0-1,0-1.4,0-.4,0-.9,0-1.5,0-1.3.5-2.3,1.4-3s2-1.1,3.5-1.1,2.7.4,3.5,1.1,1.3,1.8,1.4,3c0,.6,0,1.1,0,1.5s0,.9,0,1.4c0,1.2-.6,2.2-1.5,3-.9.7-2,1.1-3.5,1.1ZM24.8,251.7c-.5,0-.7-.2-.7-.6s0-.2.1-.3l15.4-20.3c.2-.2.3-.3.5-.4s.4-.2.7-.2h2.7c.5,0,.7.2.7.6s0,.2-.1.3l-15.4,20.3c-.1.2-.3.3-.4.4s-.4.2-.7.2h-2.7,0ZM27.2,237.9c.3,0,.5,0,.6-.2.1-.1.3-.3.3-.5s.1-.4.1-.6c0-.4,0-.9,0-1.3s0-.9,0-1.3c0-.3-.1-.6-.3-.9s-.4-.4-.8-.4-.7.1-.8.4c-.2.2-.3.5-.3.9,0,.4,0,.8,0,1.3s0,.9,0,1.3c0,.2,0,.4.1.6s.2.4.4.5.4.2.6.2h0ZM41.1,251.9c-1.4,0-2.6-.4-3.5-1.1s-1.4-1.8-1.5-3c0-.5,0-1,0-1.4,0-.4,0-.9,0-1.5,0-1.3.5-2.3,1.4-3s2-1.1,3.5-1.1,2.7.4,3.5,1.1,1.3,1.8,1.4,3c0,.6,0,1.1,0,1.5s0,.9,0,1.4c0,1.2-.5,2.2-1.4,3s-2,1.1-3.5,1.1ZM41.1,248.8c.3,0,.5,0,.6-.2s.3-.3.3-.5.1-.4.1-.6c0-.4,0-.9,0-1.3s0-.9,0-1.3c0-.3-.1-.6-.3-.9s-.4-.4-.8-.4-.7.1-.8.4c-.2.2-.3.5-.3.9,0,.4,0,.8,0,1.3s0,.9,0,1.3c0,.2,0,.4.1.6s.2.4.3.5c.2.1.4.2.6.2h0Z"/>
        </g>
        <g>
          <path class="cls-1" d="M1.9,398c-.2,0-.4,0-.6-.2-.2-.2-.2-.4-.2-.6v-2.7c0-.1,0-.4.1-.7,0-.3.3-.6.7-.9l1.8-1.7c1.9-1.4,3.5-2.6,4.8-3.6,1.3-1,2.2-1.8,2.9-2.6s.9-1.4.9-2-.1-.9-.4-1.3c-.2-.4-.7-.5-1.4-.5s-.9.1-1.2.3-.6.5-.7.8c-.2.3-.3.6-.4,1,0,.3-.2.5-.4.6s-.4.2-.7.2H2.2c-.2,0-.4,0-.5-.2-.1-.1-.2-.3-.2-.5,0-1.1.2-2.1.7-3s1.1-1.7,1.9-2.4,1.7-1.2,2.8-1.6c1.1-.4,2.3-.5,3.6-.5s3.4.3,4.7.8,2.3,1.4,3,2.4,1.1,2.2,1.1,3.6-.2,2.1-.8,3-1.2,1.8-2.1,2.7c-.9.8-2,1.7-3.2,2.6l-1.5,1.5h7.3c.2,0,.4,0,.6.2s.2.4.2.6v3.9c0,.2,0,.4-.2.6-.2.2-.4.2-.6.2H1.9Z"/>
          <path class="cls-1" d="M27,387.2c-1.4,0-2.6-.4-3.5-1.1-.9-.7-1.4-1.7-1.5-3,0-.5,0-1,0-1.5,0-.4,0-.9,0-1.5,0-1.3.5-2.3,1.4-3s2-1.1,3.5-1.1,2.7.4,3.5,1.1c.8.8,1.3,1.8,1.4,3,0,.6,0,1.1,0,1.5s0,.9,0,1.5c0,1.2-.6,2.2-1.5,3-.9.7-2,1.1-3.5,1.1ZM24.6,398c-.5,0-.7-.2-.7-.6s0-.2.1-.3l15.4-20.3c.2-.2.3-.3.5-.4s.4-.2.7-.2h2.7c.5,0,.7.2.7.6s0,.2-.1.3l-15.4,20.3c-.1.2-.3.3-.4.4-.1.1-.4.2-.7.2h-2.7,0ZM27,384.1c.3,0,.5,0,.6-.2.1-.1.3-.3.3-.5s.1-.4.1-.6c0-.4,0-.9,0-1.3s0-.9,0-1.3c0-.3-.1-.6-.3-.9s-.4-.4-.8-.4-.7.1-.8.4c-.2.2-.3.5-.3.9,0,.4,0,.8,0,1.3s0,.9,0,1.3c0,.2,0,.4.1.6,0,.2.2.4.4.5s.4.2.6.2h0ZM40.9,398.1c-1.4,0-2.6-.4-3.5-1.1-.9-.8-1.4-1.8-1.5-3,0-.5,0-1,0-1.5,0-.4,0-.9,0-1.5,0-1.3.5-2.3,1.4-3s2-1.1,3.5-1.1,2.7.4,3.5,1.1c.8.8,1.3,1.8,1.4,3,0,.6,0,1.1,0,1.5s0,.9,0,1.5c0,1.2-.5,2.2-1.4,3-.9.8-2,1.1-3.5,1.1ZM40.9,395c.3,0,.5,0,.6-.2.1-.1.3-.3.3-.5s.1-.4.1-.6c0-.4,0-.9,0-1.3s0-.9,0-1.3c0-.3-.1-.6-.3-.9-.2-.2-.4-.4-.8-.4s-.7.1-.8.4c-.2.2-.3.5-.3.9,0,.4,0,.8,0,1.3s0,.9,0,1.3c0,.2,0,.4.1.6,0,.2.2.4.3.5.2.1.4.2.6.2h0Z"/>
        </g>
        <g>
          <path class="cls-1" d="M11.7,544.5c-1.5,0-2.9-.2-4-.6-1.1-.4-2.1-1-2.8-1.7s-1.3-1.6-1.8-2.6c-.4-1-.7-2-.8-3.2,0-.6,0-1.2,0-2s0-1.5,0-2.3,0-1.5,0-2c0-1.1.3-2.2.8-3.2.4-1,1-1.8,1.8-2.5.8-.7,1.8-1.3,2.9-1.7,1.1-.4,2.4-.6,3.9-.6s2.8.2,3.9.6c1.1.4,2.1,1,2.9,1.7.8.7,1.4,1.6,1.8,2.5.4,1,.7,2,.8,3.2,0,.6,0,1.3,0,2v2.3c0,.8,0,1.4,0,2,0,1.1-.3,2.2-.7,3.2-.4,1-1,1.8-1.8,2.6-.8.7-1.7,1.3-2.9,1.7s-2.5.6-4,.6h0ZM11.7,539.2c.8,0,1.4-.3,1.8-.8s.6-1.2.6-2.1c0-.6,0-1.3,0-2s0-1.4,0-2.1c0-.7,0-1.4,0-1.9,0-.8-.2-1.5-.6-2.1s-1-.8-1.8-.9c-.9,0-1.5.3-1.8.9-.4.5-.6,1.2-.6,2.1,0,.6,0,1.2,0,1.9s0,1.4,0,2.1c0,.7,0,1.4,0,2,0,.9.2,1.6.6,2.1.4.5,1,.8,1.8.8Z"/>
          <path class="cls-1" d="M28.6,533.4c-1.4,0-2.6-.4-3.5-1.1-.9-.7-1.4-1.7-1.5-3,0-.5,0-1,0-1.5,0-.4,0-.9,0-1.5,0-1.3.5-2.3,1.4-3s2-1.1,3.5-1.1,2.7.4,3.5,1.1c.8.8,1.3,1.8,1.4,3,0,.6,0,1.1,0,1.5s0,.9,0,1.5c0,1.2-.6,2.2-1.5,3-.9.7-2,1.1-3.5,1.1ZM26.2,544.2c-.5,0-.7-.2-.7-.6s0-.2.1-.3l15.4-20.3c.2-.2.3-.3.5-.4s.4-.2.7-.2h2.7c.5,0,.7.2.7.6s0,.2-.1.3l-15.4,20.3c-.1.2-.3.3-.4.4-.1,0-.4.2-.7.2h-2.7,0ZM28.6,530.4c.3,0,.5,0,.6-.2.1-.1.3-.3.3-.5,0-.2.1-.4.1-.6,0-.4,0-.9,0-1.3s0-.9,0-1.3c0-.3-.1-.6-.3-.9s-.4-.4-.8-.4-.7.1-.8.4c-.2.2-.3.5-.3.9,0,.4,0,.8,0,1.3s0,.9,0,1.3c0,.2,0,.4.1.6s.2.3.4.5.4.2.6.2h0ZM42.5,544.4c-1.4,0-2.6-.4-3.5-1.1-.9-.8-1.4-1.8-1.5-3,0-.5,0-1,0-1.5,0-.4,0-.9,0-1.5,0-1.3.5-2.3,1.4-3s2-1.1,3.5-1.1,2.7.4,3.5,1.1c.8.8,1.3,1.8,1.4,3,0,.6,0,1.1,0,1.5s0,.9,0,1.5c0,1.2-.5,2.2-1.4,3-.9.8-2,1.1-3.5,1.1ZM42.5,541.3c.3,0,.5,0,.6-.2s.3-.3.3-.5c0-.2.1-.4.1-.6,0-.4,0-.9,0-1.3s0-.9,0-1.3c0-.3-.1-.6-.3-.9-.2-.2-.4-.4-.8-.4s-.7.1-.8.4c-.2.2-.3.5-.3.9,0,.4,0,.8,0,1.3s0,.9,0,1.3c0,.2,0,.4.1.6s.2.3.3.5c.2.1.4.2.6.2h0Z"/>
        </g>
        <g>
          <path class="cls-1" d="M63.2,10.1c0,9.2,0,18.5,0,27.7,0,24-.1,48-.2,72.1,0,33.3-.2,66.5-.3,99.8,0,37-.2,74-.3,111,0,35.2-.2,70.4-.3,105.5,0,27.8-.2,55.7-.2,83.5,0,15,0,29.9-.1,44.9,0,7.5,2.7,14.8,11.7,15.2,1.5,0,3.1,0,4.6,0h966.5c5.8,0,5.8-9,0-9H78.9c-1.7,0-3.7.3-5.4,0-3.6-.7-2.8-4.5-2.8-7.3,0-5.9,0-11.9,0-17.8,0-22.6.1-45.2.2-67.8,0-32.2.2-64.4.3-96.7,0-36.7.2-73.4.3-110,0-35.6.2-71.1.3-106.7,0-29,.2-57.9.2-86.9,0-16.9,0-33.8.1-50.8,0-2.2,0-4.5,0-6.7,0-5.8-9-5.8-9,0h0Z"/>
          <path class="cls-1" d="M68.2,9.9c-.8.4-1.1,1.1-1.6,1.7-11,15.8-22.1,31.5-33.1,47.3-.3.5-.8.9-1,1.5-.8,2.4-2.2,2.9-4,2.6-1.2-.2-2.4-.3-3.6-.3-1,0-2-.3-2.5-1.7-.5-1.4,0-2.7.6-3.9.4-.7.9-1.2,1.3-1.8,13-16.8,26-33.6,39.1-50.4,1-1.2,1.9-2.6,2.8-3.8,1-1.4,2.1-1.4,3.2-.1.2.2.4.5.6.8,8.1,14.4,16.9,28.3,25.4,42.4,3,5,6.1,9.9,9.1,14.8.4.7.8,1.3,1.1,2,.6,1.6.2,3.3-1.2,3.8-1.4.5-2.9.8-4.4,1.1-1.2.2-1.8-.9-2.4-2-1.9-3.6-3.9-7.1-5.8-10.7-7.7-14.1-15.3-28.2-23-42.2-.2-.3-.3-.6-.6-1h0Z"/>
          <path class="cls-1" d="M1048.6,564.1c-.4-.8-1.1-1.1-1.7-1.6-15.8-11-31.5-22.1-47.3-33.1-.5-.3-.9-.8-1.5-1-2.4-.8-2.9-2.2-2.6-4,.2-1.2.3-2.4.3-3.6,0-1,.3-2,1.7-2.5,1.4-.5,2.7,0,3.9.6.7.3,1.2.9,1.8,1.3,16.8,13,33.6,26,50.4,39,1.2,1,2.6,1.9,3.8,2.8,1.3,1,1.4,2.1.1,3.2-.2.2-.5.4-.8.6-14.4,8.1-28.2,16.9-42.4,25.4-5,3-9.8,6.1-14.8,9.1-.7.4-1.3.8-2,1.1-1.6.6-3.3.2-3.8-1.2-.5-1.4-.8-2.9-1.1-4.4-.2-1.2,1-1.8,2-2.4,3.6-1.9,7.1-3.9,10.7-5.8,14.1-7.7,28.2-15.3,42.2-23,.3-.2.6-.3,1-.6h0Z"/>
        </g>
        <g>
          <path class="cls-1" d="M82.3,600.8c-.2,0-.3,0-.5-.2-.1-.1-.2-.3-.2-.5v-11l-3.1,2.4c-.2.1-.3.2-.5.1-.2,0-.3-.2-.4-.3l-1.8-2.4c0-.2-.1-.3,0-.5,0-.2.1-.3.3-.4l5.9-4.5c0,0,.2-.1.2-.1s.2,0,.3,0h3.9c.2,0,.3,0,.5.2.1.1.2.3.2.5v16.1c0,.2,0,.3-.2.5-.1.1-.3.2-.5.2h-4Z"/>
          <path class="cls-1" d="M92.6,600.8c-.2,0-.3,0-.4-.2s-.2-.2-.2-.4,0-.2,0-.2c0,0,0,0,0-.1l3.4-4.6c-.2,0-.3,0-.5,0-.7,0-1.3-.2-2.1-.5s-1.4-.7-1.9-1.2c-.6-.5-1.1-1.1-1.4-1.8-.4-.7-.6-1.5-.6-2.4s.2-1.6.5-2.4c.3-.8.8-1.4,1.4-2s1.4-1.1,2.3-1.4c.9-.3,2-.5,3.2-.5s2.3.2,3.3.5,1.8.7,2.4,1.3c.7.6,1.1,1.2,1.5,2s.5,1.6.5,2.4-.2,1.5-.4,2.2c-.3.7-.7,1.3-1.1,2-.4.6-.9,1.3-1.4,1.9l-3.6,4.9c0,0-.2.2-.3.3-.1.1-.3.2-.6.2h-4.2ZM96.6,591.6c.4,0,.8,0,1.1-.2.3-.2.6-.4.7-.7.2-.3.3-.7.3-1.1s0-.8-.3-1.1-.4-.6-.8-.7c-.3-.2-.7-.2-1.1-.2s-.8,0-1.1.2c-.3.2-.6.4-.8.7-.2.3-.3.7-.3,1.1s0,.8.3,1.1.4.6.8.7c.3.2.7.2,1.1.2h0Z"/>
          <path class="cls-1" d="M109,600.8c-.2,0-.3,0-.4-.2s-.2-.2-.2-.4,0-.2,0-.2c0,0,0,0,0-.1l3.4-4.6c-.2,0-.3,0-.5,0-.7,0-1.3-.2-2.1-.5s-1.4-.7-1.9-1.2c-.6-.5-1.1-1.1-1.4-1.8-.4-.7-.6-1.5-.6-2.4s.2-1.6.5-2.4c.3-.8.8-1.4,1.4-2s1.4-1.1,2.3-1.4c.9-.3,2-.5,3.2-.5s2.3.2,3.3.5,1.8.7,2.4,1.3c.7.6,1.1,1.2,1.5,2s.5,1.6.5,2.4-.2,1.5-.4,2.2c-.3.7-.7,1.3-1.1,2-.4.6-.9,1.3-1.4,1.9l-3.6,4.9c0,0-.2.2-.3.3-.1.1-.3.2-.6.2h-4.2ZM113.1,591.6c.4,0,.8,0,1.1-.2.3-.2.6-.4.7-.7.2-.3.3-.7.3-1.1s0-.8-.3-1.1-.4-.6-.8-.7c-.3-.2-.7-.2-1.1-.2s-.8,0-1.1.2c-.3.2-.6.4-.8.7-.2.3-.3.7-.3,1.1s0,.8.3,1.1.4.6.8.7c.3.2.7.2,1.1.2h0Z"/>
          <path class="cls-1" d="M125.5,600.8c-.2,0-.3,0-.4-.2s-.2-.2-.2-.4,0-.2,0-.2c0,0,0,0,0-.1l3.4-4.6c-.2,0-.3,0-.5,0-.7,0-1.3-.2-2.1-.5s-1.4-.7-1.9-1.2c-.6-.5-1.1-1.1-1.4-1.8-.4-.7-.6-1.5-.6-2.4s.2-1.6.5-2.4c.3-.8.8-1.4,1.4-2s1.4-1.1,2.3-1.4c.9-.3,2-.5,3.2-.5s2.3.2,3.3.5,1.8.7,2.4,1.3c.6.6,1.1,1.2,1.5,2s.5,1.6.5,2.4-.1,1.5-.4,2.2-.7,1.3-1.1,2-.9,1.3-1.4,1.9l-3.6,4.9c0,0-.2.2-.3.3-.1.1-.4.2-.6.2h-4.2,0ZM129.5,591.6c.4,0,.8,0,1.1-.2.3-.2.6-.4.7-.7.2-.3.3-.7.3-1.1s0-.8-.3-1.1c-.2-.3-.4-.6-.8-.7-.3-.2-.7-.2-1.1-.2s-.8,0-1.1.2c-.3.2-.6.4-.8.7-.2.3-.3.7-.3,1.1s0,.8.3,1.1.4.6.8.7c.3.2.7.2,1.1.2h0Z"/>
        </g>
        <g>
          <path class="cls-1" d="M871.3,601.8c-.2,0-.3,0-.5-.2s-.2-.3-.2-.5v-2.2c0-.1,0-.3,0-.6s.2-.5.5-.7l1.4-1.4c1.5-1.1,2.8-2.1,3.8-2.9s1.8-1.5,2.3-2,.8-1.1.8-1.6,0-.7-.3-1c-.2-.3-.6-.4-1.1-.4s-.8,0-1,.3-.4.4-.6.7-.2.5-.3.8c0,.2-.2.4-.3.5-.2,0-.4.1-.6.1h-3.9c-.2,0-.3,0-.4-.2,0-.1-.2-.2-.2-.4,0-.9.2-1.7.6-2.4s.8-1.4,1.5-1.9,1.4-1,2.2-1.3c.9-.3,1.8-.4,2.9-.4s2.7.2,3.8.7c1,.5,1.8,1.1,2.4,1.9s.8,1.8.8,2.9-.2,1.7-.6,2.4c-.4.8-1,1.5-1.7,2.1s-1.6,1.4-2.6,2.1l-1.2,1.2h5.8c.2,0,.3,0,.5.2s.2.3.2.5v3.1c0,.2,0,.3-.2.5-.1.1-.3.2-.5.2h-13.6Z"/>
          <path class="cls-1" d="M895.2,602.1c-1.2,0-2.3-.2-3.2-.5-.9-.3-1.7-.8-2.3-1.4s-1.1-1.3-1.4-2-.5-1.6-.6-2.5c0-.5,0-1,0-1.6v-1.8c0-.6,0-1.2,0-1.6,0-.9.3-1.8.6-2.5.3-.8.8-1.4,1.5-2s1.4-1,2.3-1.3c.9-.3,1.9-.5,3.1-.5s2.2.2,3.1.5c.9.3,1.7.8,2.3,1.3s1.1,1.2,1.4,2,.5,1.6.6,2.5c0,.5,0,1,0,1.6v1.8c0,.6,0,1.2,0,1.6,0,.9-.3,1.8-.6,2.5s-.8,1.5-1.4,2c-.6.6-1.4,1-2.3,1.4s-2,.5-3.2.5ZM895.2,597.8c.7,0,1.1-.2,1.4-.7.3-.4.5-1,.5-1.7,0-.5,0-1,0-1.6v-1.7c0-.6,0-1.1,0-1.5,0-.7-.2-1.2-.5-1.7-.3-.4-.8-.7-1.4-.7-.7,0-1.2.2-1.4.7s-.4,1-.5,1.7c0,.5,0,1,0,1.5v1.7c0,.6,0,1.1,0,1.6,0,.7.2,1.3.5,1.7s.8.7,1.4.7Z"/>
          <path class="cls-1" d="M905.5,601.8c-.2,0-.3,0-.5-.2s-.2-.3-.2-.5v-2.2c0-.1,0-.3,0-.6s.2-.5.5-.7l1.4-1.4c1.5-1.1,2.8-2.1,3.8-2.9s1.8-1.5,2.3-2,.8-1.1.8-1.6,0-.7-.3-1c-.2-.3-.6-.4-1.1-.4s-.8,0-1,.3-.4.4-.6.7-.2.5-.3.8c0,.2-.2.4-.3.5-.2,0-.4.1-.6.1h-3.9c-.2,0-.3,0-.4-.2,0-.1-.2-.2-.2-.4,0-.9.2-1.7.6-2.4s.8-1.4,1.5-1.9,1.4-1,2.2-1.3c.9-.3,1.8-.4,2.9-.4s2.7.2,3.8.7c1,.5,1.8,1.1,2.4,1.9s.8,1.8.8,2.9-.2,1.7-.6,2.4c-.4.8-1,1.5-1.7,2.1s-1.6,1.4-2.6,2.1l-1.2,1.2h5.8c.2,0,.3,0,.5.2s.2.3.2.5v3.1c0,.2,0,.3-.2.5-.1.1-.3.2-.5.2h-13.6Z"/>
          <path class="cls-1" d="M922.3,601.8c-.2,0-.3,0-.5-.2s-.2-.3-.2-.5v-2.2c0-.1,0-.3,0-.6s.2-.5.5-.7l1.4-1.4c1.5-1.1,2.8-2.1,3.8-2.9s1.8-1.5,2.3-2,.8-1.1.8-1.6,0-.7-.3-1c-.2-.3-.6-.4-1.1-.4s-.8,0-1,.3-.4.4-.6.7-.2.5-.3.8c0,.2-.2.4-.3.5-.2,0-.4.1-.6.1h-3.9c-.2,0-.3,0-.4-.2,0-.1-.2-.2-.2-.4,0-.9.2-1.7.6-2.4s.8-1.4,1.5-1.9,1.4-1,2.2-1.3c.9-.3,1.8-.4,2.9-.4s2.7.2,3.8.7c1,.5,1.8,1.1,2.4,1.9s.8,1.8.8,2.9-.2,1.7-.6,2.4c-.4.8-1,1.5-1.7,2.1s-1.6,1.4-2.6,2.1l-1.2,1.2h5.8c.2,0,.3,0,.5.2s.2.3.2.5v3.1c0,.2,0,.3-.2.5-.1.1-.3.2-.5.2h-13.6Z"/>
        </g>
      </g>
    </g>
  </g>
</svg>