<?xml version="1.0" encoding="UTF-8"?>
<svg id="Layer_2" xmlns="http://www.w3.org/2000/svg" viewBox="0 0 871.69 427.64">
  <defs>
    <style>
      .cls-1 {
        fill: none;
        stroke: #db172b;
        stroke-miterlimit: 10;
        stroke-width: 9px;
      }
    </style>
  </defs>
  <g id="Layer_1-2" data-name="Layer_1">
    <polyline class="cls-1" points="867.34 191.25 863 175.07 850.98 245.97 844.68 192.78 827.93 277.86 828.06 229.4 824.05 250.86 809.06 307.11 801.96 386.89 791.89 335.02 777.78 394.85 773.76 375.8 755.85 410.17 741.08 338.48 721.96 408.14 726 372.94 708.09 407.31 709.28 383.51 687.4 338.4 662.73 330.41 659.31 312.85 645.81 335.91 636.98 311.51 615.14 300.56 591.37 284.67 580.89 254.38 564.61 308.38 553.05 307.69 550.14 285.82 529.64 234.68 521.66 250.11 513.6 225.76 500.86 269.12 485.46 247.95 459.71 229.04 447.33 215.28 443.5 181.05 437.01 163.3 422.7 179.81 418.66 215.01 401.36 210.36 395.11 190.45 385.59 165.29 362.1 153.75 363.31 116.21 358.55 63.12 346.25 109.4 346.11 76.85 333.3 141.18 325.76 119.03 316.54 145.24 306.47 111.36 296.63 149.83 281.3 168.45 260.87 141.71 248.48 174.64 242.7 164.17 228.84 183.59 225.65 157.36 210.57 173.82 210.24 156.44 196.83 132.08 185.84 147.48 169.34 129.13 167.03 149.25 162.39 137.6 153.37 148.63 149.85 105.02 130.14 113.82 125.15 89.65 101.11 109.91 97.04 57.59 88.18 87.44 80.09 56.57 74.12 20.77 60.62 64.09 48.76 32.27 41.19 44.12 31.67 18.95 23.84 87.2 7.61 113.72 4.44 94"/>
  </g>
</svg>