<?xml version="1.0" encoding="UTF-8"?>
<svg id="Layer_2" xmlns="http://www.w3.org/2000/svg" viewBox="0 0 1779.04 258.72">
  <defs>
    <style>
      .cls-1 {
        fill: #db172b;
      }
    </style>
  </defs>
  <g id="Layer_1-2" data-name="Layer_1">
    <path class="cls-1" d="M6.58,258.61c-3.97-.08-4.73-6.64-6.13-67.16-.5-21.61-.73-32.54.09-38.68,2.67-19.87,6.49-48.26,29.25-64.81,27.62-20.09,63.6-8.04,68.56-6.3,18.48,6.5,45.2,22.38,47.35,41.98.38,3.42.13,8.04,1.22,20.29.86,9.64,1.81,15.58,2.48,20.81.39,3.02,1.43,11.6,1.99,37.08.71,31.93,2.9,51.28-2.13,51.97-17.14,2.34-36.58,3.12-73.24,3.12-72.46,0-38.96,2.34-69.45,1.71Z"/>
    <path class="cls-1" d="M59.07,1.28c-2.13.46-12.86,2.93-23.22,11.94-6.61,5.75-16.72,14.53-15.92,26.54.79,11.87,11.75,19.3,14.6,21.23,8.54,5.79,16.93,6.2,29.19,6.63,18.93.67,30.33,1.08,41.13-6.63,8.8-6.28,19.79-19.8,16.59-33.17-3.2-13.37-18.76-18.98-30.52-23.22-6.91-2.49-17.98-6.32-31.85-3.32Z"/>
    <path class="cls-1" d="M186.85,258.43c-3.97-.08-4.73-6.64-6.13-67.16-.5-21.61-.73-32.54.09-38.68,2.67-19.87,6.49-48.26,29.25-64.81,27.62-20.09,63.6-8.04,68.56-6.3,18.48,6.5,45.2,22.38,47.35,41.98.38,3.42.13,8.04,1.22,20.29.86,9.64,1.81,15.58,2.48,20.81.39,3.02,1.43,11.6,1.99,37.08.71,31.93,2.9,51.28-2.13,51.97-17.14,2.34-36.58,3.12-73.24,3.12-72.46,0-38.96,2.34-69.45,1.71Z"/>
    <path class="cls-1" d="M239.33,1.1c-2.13.46-12.86,2.93-23.22,11.94-6.61,5.75-16.72,14.53-15.92,26.54.79,11.87,11.75,19.3,14.6,21.23,8.54,5.79,16.93,6.2,29.19,6.63,18.93.67,30.33,1.08,41.13-6.63,8.8-6.28,19.79-19.8,16.59-33.17-3.2-13.37-18.76-18.98-30.52-23.22-6.91-2.49-17.98-6.32-31.85-3.32Z"/>
    <path class="cls-1" d="M366.55,258.61c-3.97-.08-4.73-6.64-6.13-67.16-.5-21.61-.73-32.54.09-38.68,2.67-19.87,6.49-48.26,29.25-64.81,27.62-20.09,63.6-8.04,68.56-6.3,18.48,6.5,45.2,22.38,47.35,41.98.38,3.42.13,8.04,1.22,20.29.86,9.64,1.81,15.58,2.48,20.81.39,3.02,1.43,11.6,1.99,37.08.71,31.93,2.9,51.28-2.13,51.97-17.14,2.34-36.58,3.12-73.24,3.12-72.46,0-38.96,2.34-69.45,1.71Z"/>
    <path class="cls-1" d="M419.03,1.28c-2.13.46-12.86,2.93-23.22,11.94-6.61,5.75-16.72,14.53-15.92,26.54.79,11.87,11.75,19.3,14.6,21.23,8.54,5.79,16.93,6.2,29.19,6.63,18.93.67,30.33,1.08,41.13-6.63,8.8-6.28,19.79-19.8,16.59-33.17-3.2-13.37-18.76-18.98-30.52-23.22-6.91-2.49-17.98-6.32-31.85-3.32Z"/>
    <path class="cls-1" d="M546.82,258.43c-3.97-.08-4.73-6.64-6.13-67.16-.5-21.61-.73-32.54.09-38.68,2.67-19.87,6.49-48.26,29.25-64.81,27.62-20.09,63.6-8.04,68.56-6.3,18.48,6.5,45.2,22.38,47.35,41.98.38,3.42.13,8.04,1.22,20.29.86,9.64,1.81,15.58,2.48,20.81.39,3.02,1.43,11.6,1.99,37.08.71,31.93,2.9,51.28-2.13,51.97-17.14,2.34-36.58,3.12-73.24,3.12-72.46,0-38.96,2.34-69.45,1.71Z"/>
    <path class="cls-1" d="M599.3,1.1c-2.13.46-12.86,2.93-23.22,11.94-6.61,5.75-16.72,14.53-15.92,26.54.79,11.87,11.75,19.3,14.6,21.23,8.54,5.79,16.93,6.2,29.19,6.63,18.93.67,30.33,1.08,41.13-6.63,8.8-6.28,19.79-19.8,16.59-33.17-3.2-13.37-18.76-18.98-30.52-23.22-6.91-2.49-17.98-6.32-31.85-3.32Z"/>
    <path class="cls-1" d="M729.14,258.43c-3.97-.08-4.73-6.64-6.13-67.16-.5-21.61-.73-32.54.09-38.68,2.67-19.87,6.49-48.26,29.25-64.81,27.62-20.09,63.6-8.04,68.56-6.3,18.48,6.5,45.2,22.38,47.35,41.98.38,3.42.13,8.04,1.22,20.29.86,9.64,1.81,15.58,2.48,20.81.39,3.02,1.43,11.6,1.99,37.08.71,31.93,2.9,51.28-2.13,51.97-17.14,2.34-36.58,3.12-73.24,3.12-72.46,0-38.96,2.34-69.45,1.71Z"/>
    <path class="cls-1" d="M781.62,1.1c-2.13.46-12.86,2.93-23.22,11.94-6.61,5.75-16.72,14.53-15.92,26.54.79,11.87,11.75,19.3,14.6,21.23,8.54,5.79,16.93,6.2,29.19,6.63,18.93.67,30.33,1.08,41.13-6.63,8.8-6.28,19.79-19.8,16.59-33.17-3.2-13.37-18.76-18.98-30.52-23.22-6.91-2.49-17.98-6.32-31.85-3.32Z"/>
    <path class="cls-1" d="M910.58,258.61c-3.97-.08-4.73-6.64-6.13-67.16-.5-21.61-.73-32.54.09-38.68,2.67-19.87,6.49-48.26,29.25-64.81,27.62-20.09,63.6-8.04,68.56-6.3,18.48,6.5,45.2,22.38,47.35,41.98.38,3.42.13,8.04,1.22,20.29.86,9.64,1.81,15.58,2.48,20.81.39,3.02,1.43,11.6,1.99,37.08.71,31.93,2.9,51.28-2.13,51.97-17.14,2.34-36.58,3.12-73.24,3.12-72.46,0-38.96,2.34-69.45,1.71Z"/>
    <path class="cls-1" d="M963.07,1.28c-2.13.46-12.86,2.93-23.22,11.94-6.61,5.75-16.72,14.53-15.92,26.54.79,11.87,11.75,19.3,14.6,21.23,8.54,5.79,16.93,6.2,29.19,6.63,18.93.67,30.33,1.08,41.13-6.63,8.8-6.28,19.79-19.8,16.59-33.17-3.2-13.37-18.76-18.98-30.52-23.22-6.91-2.49-17.98-6.32-31.85-3.32Z"/>
    <path class="cls-1" d="M1090.85,258.43c-3.97-.08-4.73-6.64-6.13-67.16-.5-21.61-.73-32.54.09-38.68,2.67-19.87,6.49-48.26,29.25-64.81,27.62-20.09,63.6-8.04,68.56-6.3,18.48,6.5,45.2,22.38,47.35,41.98.38,3.42.13,8.04,1.22,20.29.86,9.64,1.81,15.58,2.48,20.81.39,3.02,1.43,11.6,1.99,37.08.71,31.93,2.9,51.28-2.13,51.97-17.14,2.34-36.58,3.12-73.24,3.12-72.46,0-38.96,2.34-69.45,1.71Z"/>
    <path class="cls-1" d="M1143.33,1.1c-2.13.46-12.86,2.93-23.22,11.94-6.61,5.75-16.72,14.53-15.92,26.54.79,11.87,11.75,19.3,14.6,21.23,8.54,5.79,16.93,6.2,29.19,6.63,18.93.67,30.33,1.08,41.13-6.63,8.8-6.28,19.79-19.8,16.59-33.17-3.2-13.37-18.76-18.98-30.52-23.22-6.91-2.49-17.98-6.32-31.85-3.32Z"/>
    <path class="cls-1" d="M1270.55,258.61c-3.97-.08-4.73-6.64-6.13-67.16-.5-21.61-.73-32.54.09-38.68,2.67-19.87,6.49-48.26,29.25-64.81,27.62-20.09,63.6-8.04,68.56-6.3,18.48,6.5,45.2,22.38,47.35,41.98.38,3.42.13,8.04,1.22,20.29.86,9.64,1.81,15.58,2.48,20.81.39,3.02,1.43,11.6,1.99,37.08.71,31.93,2.9,51.28-2.13,51.97-17.14,2.34-36.58,3.12-73.24,3.12-72.46,0-38.96,2.34-69.45,1.71Z"/>
    <path class="cls-1" d="M1323.03,1.28c-2.13.46-12.86,2.93-23.22,11.94-6.61,5.75-16.72,14.53-15.92,26.54.79,11.87,11.75,19.3,14.6,21.23,8.54,5.79,16.93,6.2,29.19,6.63,18.93.67,30.33,1.08,41.13-6.63,8.8-6.28,19.79-19.8,16.59-33.17-3.2-13.37-18.76-18.98-30.52-23.22-6.91-2.49-17.98-6.32-31.85-3.32Z"/>
    <path class="cls-1" d="M1450.82,258.43c-3.97-.08-4.73-6.64-6.13-67.16-.5-21.61-.73-32.54.09-38.68,2.67-19.87,6.49-48.26,29.25-64.81,27.62-20.09,63.6-8.04,68.56-6.3,18.48,6.5,45.2,22.38,47.35,41.98.38,3.42.13,8.04,1.22,20.29.86,9.64,1.81,15.58,2.48,20.81.39,3.02,1.43,11.6,1.99,37.08.71,31.93,2.9,51.28-2.13,51.97-17.14,2.34-36.58,3.12-73.24,3.12-72.46,0-38.96,2.34-69.45,1.71Z"/>
    <path class="cls-1" d="M1503.3,1.1c-2.13.46-12.86,2.93-23.22,11.94-6.61,5.75-16.72,14.53-15.92,26.54.79,11.87,11.75,19.3,14.6,21.23,8.54,5.79,16.93,6.2,29.19,6.63,18.93.67,30.33,1.08,41.13-6.63,8.8-6.28,19.79-19.8,16.59-33.17-3.2-13.37-18.76-18.98-30.52-23.22-6.91-2.49-17.98-6.32-31.85-3.32Z"/>
    <path class="cls-1" d="M1633.14,258.43c-3.97-.08-4.73-6.64-6.13-67.16-.5-21.61-.73-32.54.09-38.68,2.67-19.87,6.49-48.26,29.25-64.81,27.62-20.09,63.6-8.04,68.56-6.3,18.48,6.5,45.2,22.38,47.35,41.98.38,3.42.13,8.04,1.22,20.29.86,9.64,1.81,15.58,2.48,20.81.39,3.02,1.43,11.6,1.99,37.08.71,31.93,2.9,51.28-2.13,51.97-17.14,2.34-36.58,3.12-73.24,3.12-72.46,0-38.96,2.34-69.45,1.71Z"/>
    <path class="cls-1" d="M1685.62,1.1c-2.13.46-12.86,2.93-23.22,11.94-6.61,5.75-16.72,14.53-15.92,26.54.79,11.87,11.75,19.3,14.6,21.23,8.54,5.79,16.93,6.2,29.19,6.63,18.93.67,30.33,1.08,41.13-6.63,8.8-6.28,19.79-19.8,16.59-33.17-3.2-13.37-18.76-18.98-30.52-23.22-6.91-2.49-17.98-6.32-31.85-3.32Z"/>
  </g>
</svg>